<svg xmlns="http://www.w3.org/2000/svg" viewBox="0 0 223.29 195.14"><defs><style>.cls-1{fill:#cc4e44;}.cls-2{fill:#e2584d;}.cls-3{fill:#030405;}</style></defs><g id="Calque_2" data-name="Calque 2"><g id="Calque_1-2" data-name="Calque 1"><path class="cls-1" d="M110.91,191.6q0-12.87,0-25.73,0-68.7,0-137.38c0-1.52-.52-3.26,1.13-4.4,10.7-9.64,22.3-17.79,36.33-21.89a48,48,0,0,1,38.55,4.41c13.82,7.86,24.38,18.81,30.88,33.45a63.89,63.89,0,0,1,5,18.55c.07.58,0,1.17.45,1.64V72.9c-1.06,3.36-1.22,6.9-2.16,10.3a64,64,0,0,1-18.85,31.2c-17.39,15.76-34.95,31.33-52.46,47Q131.54,177.7,113.2,194"/><path class="cls-2" d="M109.94,194.29c-30-26.88-60-53.65-89.8-80.76C9.25,103.6,2.92,90.85.78,76.18-2,57.1,2.67,39.92,14.68,25,23.73,13.75,34.88,5.16,49.17,1.45a47.56,47.56,0,0,1,26.41.92c12.89,4,23.7,11.45,33.8,20.13.78.66,1.33,1.82,2.67,1.59a3.63,3.63,0,0,0-.45,2.09q0,84.48,0,169"/><g id="J67lPh.tif"><path class="cls-3" d="M117.61,80.26h43.7L89.1,175.62l-.49-.34c12.93-26.08,20.64-45.65,33.57-71.73,1.85-3.73,1.86-3.73-2.47-3.74-11.87,0-23.75-.1-35.62,0-2.86,0-2.92-.73-1.9-3C94.38,69.7,105.83,46.23,117.94,19c.7-1.58,3.76-3.46,5.38-4.45,9-5.51,19.13-13.32,29.33-13.44,3.08,0,2.72,12.75,1.5,14.87Q136.66,46.63,119.3,77.32C118.87,78.08,118.43,78.83,117.61,80.26Z"/></g></g></g></svg>