<svg xmlns="http://www.w3.org/2000/svg" viewBox="0 0 223.29 195.28"><defs><style>.cls-1{fill:#cc4e44;}.cls-2{fill:#e2584d;}</style></defs><g id="Calque_2" data-name="Calque 2"><g id="Calque_1-2" data-name="Calque 1"><path class="cls-1" d="M112.05,24.09c10.7-9.64,22.3-17.79,36.33-21.89a48,48,0,0,1,38.55,4.41c13.82,7.86,24.38,18.81,30.88,33.45a63.89,63.89,0,0,1,5,18.55c.07.58,0,1.17.45,1.64V72.9c-1.06,3.36-1.22,6.9-2.16,10.3a64,64,0,0,1-18.85,31.2c-17.39,15.76-34.95,31.33-52.46,47Q131.54,177.7,113.2,194c-.48.42-1,.77-1.56,1.16-.92-1-.73-2.32-.73-3.54q0-12.87,0-25.73,0-68.7,0-137.38C110.93,27,110.4,25.23,112.05,24.09Z"/><path class="cls-2" d="M112.05,24.09a3.63,3.63,0,0,0-.45,2.09q0,84.48,0,169c-1,.51-1.25-.45-1.7-.85-30-26.88-60-53.65-89.8-80.76C9.25,103.6,2.92,90.85.78,76.18-2,57.1,2.67,39.92,14.68,25,23.73,13.75,34.88,5.16,49.17,1.45a47.56,47.56,0,0,1,26.41.92c12.89,4,23.7,11.45,33.8,20.13C110.16,23.16,110.71,24.32,112.05,24.09Z"/></g></g></svg>