<svg xmlns="http://www.w3.org/2000/svg" viewBox="0 0 1350.53 892.35"><defs><style>.cls-1{fill:#050607;}.cls-2{fill:#cf5538;}.cls-3{fill:#e984ad;}.cls-4{fill:#70bdc2;}.cls-5{fill:#fff;}.cls-6{fill:#ffcd03;}.cls-7{fill:#ea6444;}.cls-8{fill:#70bdc1;}</style></defs><g id="Calque_2" data-name="Calque 2"><g id="Calque_1-2" data-name="Calque 1"><g id="Groupe_7" data-name="Groupe 7"><path id="Tracé_67" data-name="Tracé 67" class="cls-1" d="M1148,85.26c3.87-4.07,7.78-8.1,11.62-12.2a112.11,112.11,0,0,1,45.19-28.3,121.78,121.78,0,0,1,39.33-9.21,60,60,0,0,1,26.3,5.19,31.5,31.5,0,0,1,19.72,24.91c.48,3.24.65,7.11,6,5.16a3.85,3.85,0,0,1,4.81,2.54l.06.26c.59,2-1.37,2.72-2.81,3.61a216.07,216.07,0,0,0-26,16.79,21.36,21.36,0,0,0-6.23,7.1c-.9,1.88-1.79,4.13-4.54,2.74a4.11,4.11,0,0,1-2.24-5.36c.06-.14.12-.27.19-.4,3.26-6.36,3.28-13.42,4.72-20.16,1.74-8.17-1-12.41-8.33-16.4-17.55-9.51-33.7-6-50,3.63A88.21,88.21,0,0,0,1165,119.58c-2,7.13-5.68,13.79-6.43,22,8.19-4.51,14.8-10.28,22.36-14.64a39,39,0,0,1,26.38-5.27c16.75,2.66,31.91,8.06,42,23.22a136.39,136.39,0,0,0,14.77,16.9c8.51,9,10.59,20.51,12.65,32a359.22,359.22,0,0,0,11.12,42.56,31.53,31.53,0,0,0,7.41,11.23c2.84,3.14,1.56,5-1.77,6.25a18.72,18.72,0,0,1-3.81,1.05,104.62,104.62,0,0,0-32.09,10.35c-2,1-4.2,1.47-5.71-.3-1.74-2-.67-3.85,1.55-4.93,1.81-.88.42-1.69.08-2.59a401.85,401.85,0,0,1-17.33-64.23c-1-5.14-1.37-10.42-2.12-15.62-2.28-15.84-12.14-25.47-26.3-31.09a50.13,50.13,0,0,0-37.43-1.15,40.44,40.44,0,0,0-21.34,19.43c-1.49,2.8.27,7.14-.48,10.56a112.89,112.89,0,0,1-5.29,17.82c-7.45,18.54-13,37.68-19,56.7C1116.41,275,1105.4,299,1097.06,324c-6.12,18.38-10,37.45-16.77,55.63-14.09,37.74-29,75.16-46.32,111.54-1.49,3.11-4.34,6.31.83,8.93,1.1.54.9,2,.15,3s-2.16,1.55-3,.91c-4-3.13-4.72.55-6,2.78-18.06,31.76-35,64.14-52.32,96.26a490.84,490.84,0,0,1-32.4,52.25c-1.23,1.7-1,7.38-5.14,2.1a16.84,16.84,0,0,0-1.86,2,23.42,23.42,0,0,1-24.48,10.31A106.83,106.83,0,0,1,876.42,658C820.94,630.9,779.56,587.45,740.88,541c-19.79-23.76-38.68-48.27-52.66-76.1A129.53,129.53,0,0,1,678,441.79c-2.49-9-.76-13.7,7-18.71,35.2-22.7,71.16-44.17,107.33-65.29q97.18-56.76,194-114c41.5-24.54,82.81-49.41,124.12-74.26,9.42-5.67,18.39-12,27.74-17.77,2.15-1.32,1.82-3.07,2.13-4.78,2.06-11.23-.28-22.39-1.14-33.5A121.12,121.12,0,0,0,1128,69a41.39,41.39,0,0,0-35.15-24.65c-15.13-1.41-30.19-3.56-45.28-5.39-2.23-.27-4.46-.59-6.7-.85a7.35,7.35,0,0,1-7.26-6c-.58-3.82,3.24-4.77,5.74-5.86,6.37-2.79,13-5,19.45-7.57A338.84,338.84,0,0,0,1100.23,1c5-2.83,8.2.75,11.18,3.8a139,139,0,0,1,24.3,35.6c5.71,11.4,9.76,22.71,7.89,35.6a22.24,22.24,0,0,0,.27,4.47,15.56,15.56,0,0,1-.22,9.91A6.5,6.5,0,0,1,1148,85.26Z"/><path id="Tracé_68" data-name="Tracé 68" class="cls-2" d="M1148,85.26q-2.7,4.17-5.42,8.34a9.06,9.06,0,0,1-1.82.68c2.59-4.82,2-9.37,3.11-13.74C1146.08,81.39,1145.47,84.69,1148,85.26Z"/><path id="Tracé_69" data-name="Tracé 69" class="cls-3" d="M936.73,614.56c4.92,17.49.39,31.4-8,44.25-3.73,5.72-10.22,6.75-16.68,6a108.24,108.24,0,0,1-34.34-12.35c-53.8-26.55-94.2-68.6-131.71-113.91A411.69,411.69,0,0,1,693.09,461c-2.77-5.54-5.27-11.21-7.88-16.82a18,18,0,0,1-1.44-9.93c.4-3.35.73-7.45,5.83-3.5a5.5,5.5,0,0,0,4.37.62,70.11,70.11,0,0,1,40.18,3.95c13.3,5.57,27.88,7.33,41,14a197.26,197.26,0,0,1,29.87,17c12,9,25.75,15.65,37.24,25.48,33.48,28.62,64.12,59.67,84.57,99.37A209.85,209.85,0,0,1,936.73,614.56Z"/><path id="Tracé_70" data-name="Tracé 70" class="cls-4" d="M699.44,422.86c25.48-15.67,50.77-31.24,76.1-46.76a10.28,10.28,0,0,1,5.1-2.15c16.2.7,32.56,0,48.15,6.1a287.53,287.53,0,0,1,129.55,99.78,127,127,0,0,1,23.46,47.62c2.35,10.61,6.91,20.71,7.35,31.79a9,9,0,0,1-.7,4.9,794,794,0,0,1-44.71,78.45c-.38.56-.88,1-2.15,2.53,7.85-28.26-5.7-50.28-18.49-71.62a308.54,308.54,0,0,0-56.92-68c-19.88-18.29-42-32.89-64.16-47.7A144.2,144.2,0,0,0,747,434.19a26.37,26.37,0,0,1-6.91-2.35,79.66,79.66,0,0,0-36-7.63C702.65,424.19,701,424.79,699.44,422.86Z"/><path id="Tracé_71" data-name="Tracé 71" class="cls-5" d="M939.52,282.86a146.86,146.86,0,0,1,110.35,54.05A106.78,106.78,0,0,1,1069.15,371a29,29,0,0,1,.33,20.91c-13.2,32.63-25.83,65.49-40.93,97.33-1.77,3.73-3.13,5.55-8.22,4.54-8-1.6-15.29,2.59-22.38,6.07-.61.29-1.2.62-3.43,1.76,10.24-14,10.82-28.56,9.92-43.41a51.65,51.65,0,0,0-6.6-21.36,14.89,14.89,0,0,0-12.65-8.21c-13.7-1.14-27.14-1.26-39.5,8.62,8.81-22.71,2.61-41.61-15.65-55.11s-38.06-13.32-57.32-.67c-7.73-31.51-13.71-37.61-39-38.83,12.81-7.78,25-15.19,37.15-22.57,21.85-13.25,43.86-26.26,66.21-38.59C938.58,280.75,938.49,282.79,939.52,282.86Z"/><path id="Tracé_72" data-name="Tracé 72" class="cls-6" d="M1084.15,346.44c-11.91-23.31-30.38-38.35-48.62-53.89a141.7,141.7,0,0,0-64.42-31.05c23.4-14.06,46.18-27.37,68.59-41.26,31.92-19.8,65-37.61,96.34-58.43,1.46-1,3-2.88,5-1.82s1.29,3.3,1.46,5.12a43.48,43.48,0,0,1-3.68,20.34c-11.37,28.91-18.89,59.12-29.83,88.18C1100.18,297,1090.49,320.09,1084.15,346.44Z"/><path id="Tracé_73" data-name="Tracé 73" class="cls-7" d="M1290.46,250.2A116.39,116.39,0,0,0,1255.72,261a36,36,0,0,0-2-18.86,411.33,411.33,0,0,1-13.55-61.68c-2.27-18.74-12.86-30.87-29.76-37.87a68.73,68.73,0,0,0-34.29-5.1c9.9-7.48,20.52-12.73,33.35-10.53,15.76,2.69,29.51,8.73,37.67,23.69a22.65,22.65,0,0,0,5.2,6.63c15.89,13.11,18.08,32.32,22.35,50.44C1278.13,222.23,1280.76,236.83,1290.46,250.2Z"/><path id="Tracé_74" data-name="Tracé 74" class="cls-7" d="M982.4,511.75a178.54,178.54,0,0,0-24-40c-5-6.35-10.27-12.44-15.66-18.44-1.79-2-2.2-3.07.24-4.69a15.86,15.86,0,0,0,3-3.33c11-13.07,25.48-13.69,40.7-11.16a11.28,11.28,0,0,1,8.15,8c6.56,17.58,7.39,35.17-1.72,52.24C990,500.13,986.28,505.5,982.4,511.75Z"/><path id="Tracé_75" data-name="Tracé 75" class="cls-7" d="M890.58,379c24.81-5.53,43.87,6.91,52.14,29.44a22.2,22.2,0,0,1,.2,12.79c-1.61,7-3.35,13.86-5,20.8-.29,1.27-.14,3-1.44,3.44-1.78.65-2.45-1.31-3.45-2.28a271.09,271.09,0,0,0-56.17-45.09c-7.08-4-7.12-4-1.34-10A35.42,35.42,0,0,1,890.58,379Z"/><path id="Tracé_76" data-name="Tracé 76" class="cls-8" d="M939.51,282.86c-1.23.27-1.64-.88-2.42-1.39l23-13.76a10.52,10.52,0,0,1,6.93-1.2c27.78,2.84,50.21,16.49,70.86,34.16,15.19,13,29.72,26.35,39.86,44a17.81,17.81,0,0,1,2.12,16.78c-1.48,3.76-2.52,7.66-4.29,13.17a112.25,112.25,0,0,0-8.41-20,143.33,143.33,0,0,0-88.47-70.16,167.58,167.58,0,0,0-23.49-5.72,39.44,39.44,0,0,0-14.94,1.91C939,280.92,939.35,282,939.51,282.86Z"/><path id="Tracé_77" data-name="Tracé 77" class="cls-7" d="M1147.63,152c1.69-13.52-1.09-26.88-1.12-40.29a35.41,35.41,0,0,1,8-21.32A114,114,0,0,1,1210.84,50c12-4.05,23.76-8.42,36.63-8.37a61.21,61.21,0,0,1,19.87,3.51c11.34,3.92,17.83,13.55,17.74,29.31a3.49,3.49,0,0,1-1.86,3.57c-4.32,2.58-8.58,5.28-13.62,8.39.66-5.67,2.24-10.66.41-15.82a16.66,16.66,0,0,0-5.57-8.88c-12.08-8.12-25.16-14.71-40-11.06a88,88,0,0,0-49.37,31.59,109.72,109.72,0,0,0-17.15,36.54Q1152.76,135.38,1147.63,152Z"/><path id="Tracé_78" data-name="Tracé 78" class="cls-7" d="M1136.19,72.19c-3-4.61-5.74-9-8.79-13.21a46.15,46.15,0,0,0-32.14-19.86c-13.77-1.81-27.5-3.75-41.27-5.63-1.82-.25-3.63-.53-6.2-.91a63.33,63.33,0,0,1,16.08-6.29,327,327,0,0,0,40.65-17.82c2.79-1.48,3.69.54,5.07,1.88,10.46,10.13,16.21,23.22,22.79,35.83A38.81,38.81,0,0,1,1136.19,72.19Z"/><path id="Tracé_79" data-name="Tracé 79" class="cls-7" d="M787.94,368.8c9.41-5.47,18.65-11.24,28.28-16.27a43.21,43.21,0,0,1,27.27-3.87c17.24,3.11,20,11.31,22.1,27.53.63,4.78,1.7,11.47-1.39,14.08-3.36,2.83-8-2.71-12-4.48-14.1-6.17-27.64-13.56-43.35-15.43C801.93,369.55,795.13,369.26,787.94,368.8Z"/><path id="Tracé_80" data-name="Tracé 80" class="cls-7" d="M993.61,553.7a78.1,78.1,0,0,0-6.89-25.34c-3.75-7.7-1.28-12.75,4.62-17.39a60.41,60.41,0,0,1,21.52-11.75,14.86,14.86,0,0,1,3.32-.55c2.08-.07,4.59-.23,5.86,1.34,1.62,2-.86,3.73-1.75,5.37C1011.66,521.2,1002.88,537,993.61,553.7Z"/></g><g id="Groupe_2" data-name="Groupe 2"><path id="Tracé_1" data-name="Tracé 1" d="M405.23,868.54c-.18-23.79-30.2-50.49-53.85-46.86-64.59,9.92-124.83-1.82-182.25-32.65a44.94,44.94,0,0,0-31.49-1.78c-61,19.4-120-11.85-135.28-73-6.82-27.35,1.28-46.56,22.35-52.91,21.78-6.58,36.66,3.93,45,32.8,5.56,19.2,16.62,31.08,37.6,27.58a28.92,28.92,0,0,0,25.82-31.51c-.9-20.77-13.77-30-34.59-30.64-29.12-.93-44-14.28-43.15-36.62.82-21.21,18.65-34.52,46.31-34.52,56.53,0,101.34,43.4,101,100.65-.12,18.64,4.64,30.54,22.47,35.26,25.38,6.72,50.73,14.26,76.58,18.23,24.22,3.71,48.13,2.13,59.11-27a28.88,28.88,0,0,1,15.47-15.5s33.8-21.28,37.57-13.74S405.23,868.54,405.23,868.54ZM101.6,773.24A82.85,82.85,0,0,0,184.5,692c.4-45.36-38.72-85.94-83-83.64-8.93.46-17.39,10.53-26.08,16.16,8,4.92,15.65,13.19,24.09,14.12,29.11,3.19,48.83,18,52.81,43.19,4.36,27.42-12.12,53.13-37.5,58.54C84,746.93,61.14,731.76,50.52,700.6c-2.72-8-12.5-13.55-19-20.22-3.37,9.49-11,19.81-9.35,28.36,7.43,39.11,40.06,64.38,79.46,64.49Zm248.74,27.84c-8-15.28,3.16-39.52-20.49-38.59-46.6,1.85-90.24-5.73-132.24-29l-24.26,34c55.22,31.76,111.17,45.5,177,33.54Z"/><path id="Tracé_2" data-name="Tracé 2" d="M414.12,629.32C449.43,522.56,522.94,458.44,633.7,437.44c10.47-2,21-3.56,34.34-5.81,0-26.67.11-52.94-.16-79.21,0-2.91-1.57-7.65-3.6-8.41-33.4-12.59-7.76-19.6,3.9-27.17-24.45-15.21-24.7-19.39-3.21-31.08-40.77-22.71-54-44.67-46.48-77.39a62.41,62.41,0,0,1,57.21-47.12,60.93,60.93,0,0,1,61,45c9.55,32.93-1.55,52.6-44.19,79.22,4.38,5.17,13,11.12,12.25,15.51-.95,5.61-9.42,10-15.69,15.84,10.7,8.07,33.48,17.3,1.26,28.3-1.75.6-2.66,5.85-2.69,8.94-.21,25.49-.12,51-.12,69.11,49,18.76,96,30.84,136.85,53.73,64.88,36.33,105.31,95.28,121.33,168l8.39,205.74v41.71H402.29c0-22-1.48-43.4.41-64.49ZM677.54,875.5v.2q117.94,0,235.92.1c12.62,0,22.91-.26,22.44-17.73-1.66-62,2.08-124.41-4.63-185.77-13.22-120.83-122.11-217-241.67-219.57-129.35-2.84-243,83.58-261.77,207.51-9.46,62.37-3.85,127-6.44,190.51-.82,19.91,5.73,25.41,25.18,25.17C523.56,874.92,600.55,875.5,677.54,875.5Zm1.12-692.72a41.1,41.1,0,0,0-41.53,40.29A41.77,41.77,0,0,0,676,263.74a40.76,40.76,0,0,0,42.37-39.1c0-.14,0-.29,0-.44a39.16,39.16,0,0,0-36.83-41.36q-1.47-.09-2.94-.06Z"/><path id="Tracé_3" data-name="Tracé 3" class="cls-5" d="M101.6,773.23c-39.4-.11-72-25.38-79.47-64.5-1.62-8.55,6-18.86,9.35-28.36,6.53,6.68,16.31,12.25,19,20.23,10.62,31.15,33.5,46.31,64.25,39.78,25.39-5.4,41.86-31.11,37.5-58.53-4-25.19-23.72-40-52.8-43.19-8.45-.93-16.09-9.21-24.09-14.12,8.68-5.64,17.13-15.7,26.08-16.17,44.32-2.29,83.44,38.28,83,83.64A82.84,82.84,0,0,1,101.6,773.23Z"/><path id="Tracé_4" data-name="Tracé 4" class="cls-5" d="M350.34,801.08c-65.81,12-121.77-1.77-177-33.53l24.26-34c42,23.23,85.63,30.8,132.24,29C353.5,761.55,342.36,785.79,350.34,801.08Z"/><path id="Tracé_5" data-name="Tracé 5" class="cls-5" d="M677.54,875.5c-77,0-154-.58-230.95.4-19.47.25-26-5.28-25.19-25.16,2.59-63.53-3-128.12,6.45-190.52,18.8-123.92,132.43-210.33,261.76-207.5,119.56,2.61,228.45,98.74,241.67,219.57,6.71,61.34,3,123.82,4.63,185.76.47,17.47-9.82,17.76-22.44,17.74q-118-.28-235.92-.1Z"/><path id="Tracé_6" data-name="Tracé 6" class="cls-5" d="M678.66,182.78a39.16,39.16,0,0,1,39.83,38.48c0,1,0,2-.06,3a40.77,40.77,0,0,1-41.94,39.55l-.45,0a41.77,41.77,0,0,1-38.91-40.66A41.1,41.1,0,0,1,678.66,182.78Z"/><g id="Groupe_1" data-name="Groupe 1"><path id="Tracé_7" data-name="Tracé 7" class="cls-1" d="M664.67,547.56l25,0a144.31,144.31,0,0,1,55.75,16.91,65.88,65.88,0,0,0-15,19c-1.92,4.06-4.68.32-6.69-.47-41.43-16.2-80.66-12.25-116.9,13.54a116.34,116.34,0,0,0-44.46,124.85,118.49,118.49,0,0,0,232.16-43.81,100.88,100.88,0,0,0-7.28-28.74c-1.49-3.51-.81-5.21,2.69-6.54A32.8,32.8,0,0,0,803.56,633c3.49-4.14,4.81-2.77,6.66,1.41A145.05,145.05,0,1,1,533.8,716.23C519.48,638,575.14,560.49,653.88,549.09,657.46,548.57,661.07,548.07,664.67,547.56Z"/><path id="Tracé_8" data-name="Tracé 8" class="cls-1" d="M677.11,625.91a65.6,65.6,0,1,1-66.37,64.87A65.59,65.59,0,0,1,677.11,625.91Z"/><path id="Tracé_9" data-name="Tracé 9" class="cls-1" d="M741.84,601.62a29.88,29.88,0,0,1,29.62-30.13h.22a30.07,30.07,0,1,1-29.84,30.36Z"/></g><path id="Tracé_10" data-name="Tracé 10" d="M936.62,686.35c3.77-7.54,37.57,13.75,37.57,13.75a28.85,28.85,0,0,1,15.47,15.5c11,29.13,34.89,30.72,59.11,27,25.85-4,51.2-11.5,76.57-18.22,17.84-4.72,22.59-16.63,22.48-35.27-.35-57.24,44.47-100.68,101-100.65,27.68,0,45.52,13.31,46.31,34.53.84,22.34-14,35.68-43.15,36.61-20.82.67-33.69,9.88-34.59,30.65a28.91,28.91,0,0,0,25.82,31.5c21,3.5,32-8.38,37.6-27.58,8.37-28.87,23.24-39.37,45-32.8,21.05,6.36,29.16,25.57,22.34,52.92-15.25,61.11-74.28,92.37-135.27,73a44.82,44.82,0,0,0-31.49,1.78c-57.42,30.82-117.67,42.57-182.26,32.65-23.65-3.63-53.67,23.06-53.84,46.85C945.3,868.54,932.85,693.89,936.62,686.35Zm391.77,22.39c1.63-8.56-6-18.87-9.34-28.36-6.53,6.67-16.32,12.25-19,20.22-10.62,31.15-33.51,46.31-64.25,39.79-25.39-5.41-41.86-31.12-37.51-58.54,4-25.18,23.72-40,52.81-43.19,8.45-.93,16.08-9.21,24.09-14.12-8.68-5.63-17.13-15.7-26.08-16.16-44.33-2.3-83.44,38.28-83,83.64a82.84,82.84,0,0,0,82.89,81.22c39.4-.12,72-25.39,79.46-64.51Zm-151.22,58.8-24.25-34c-42,23.23-85.63,30.8-132.24,29-23.65-.94-12.52,23.3-20.5,38.59,65.83,12,121.78-1.78,177-33.54Z"/><path id="Tracé_11" data-name="Tracé 11" class="cls-5" d="M1248.93,773.23c39.4-.11,72-25.38,79.46-64.5,1.63-8.55-6-18.86-9.34-28.36-6.53,6.68-16.31,12.25-19,20.23-10.62,31.15-33.51,46.31-64.25,39.78-25.38-5.4-41.86-31.11-37.5-58.53,4-25.19,23.71-40,52.8-43.19,8.45-.93,16.09-9.21,24.1-14.12-8.68-5.64-17.14-15.7-26.09-16.17-44.32-2.29-83.43,38.28-83,83.64A82.83,82.83,0,0,0,1248.93,773.23Z"/><path id="Tracé_12" data-name="Tracé 12" class="cls-5" d="M1000.19,801.08c65.8,12,121.77-1.77,177-33.53l-24.25-34c-42,23.23-85.64,30.8-132.25,29C997,761.55,1008.16,785.79,1000.19,801.08Z"/></g></g></g></svg>