<svg xmlns="http://www.w3.org/2000/svg" viewBox="0 0 565.29 306.01"><defs><style>.cls-1{fill:#fff;}.cls-2{fill:#020203;}</style></defs><g id="Calque_2" data-name="Calque 2"><g id="Calque_1-2" data-name="Calque 1"><path d="M169.62,296.06c-.08-10-12.64-21.13-22.54-19.61-27,4.15-52.25-.77-76.28-13.67-3.56-1.91-9.21-2-13.18-.74-25.54,8.12-50.25-5-56.63-30.54-2.86-11.45.54-19.49,9.35-22.15,9.12-2.76,15.34,1.64,18.84,13.73,2.33,8,7,13,15.74,11.54,7-1.17,11.11-6.17,10.81-13.19-.38-8.69-5.76-12.55-14.48-12.82-12.19-.39-18.41-6-18.06-15.33.34-8.88,7.81-14.45,19.4-14.45C66.24,178.82,85,197,84.85,221c0,7.8,2,12.78,9.41,14.76,10.62,2.81,21.23,6,32.05,7.63,10.14,1.55,20.15.89,24.74-11.31a12.06,12.06,0,0,1,6.48-6.48s14.14-8.91,15.72-5.76S169.62,296.06,169.62,296.06ZM42.53,256.17c18.86.06,34.54-15.31,34.7-34,.17-19-16.21-36-34.76-35-3.74.19-7.28,4.4-10.92,6.76,3.36,2.06,6.55,5.52,10.09,5.91,12.18,1.34,20.43,7.53,22.11,18.08,1.82,11.47-5.07,22.24-15.7,24.5-12.87,2.74-22.45-3.61-26.89-16.65-1.14-3.34-5.23-5.67-8-8.47-1.41,4-4.6,8.29-3.92,11.87C12.39,245.55,26,256.12,42.53,256.17Zm104.12,11.65c-3.34-6.4,1.32-16.54-8.58-16.15-19.51.77-37.77-2.4-55.35-12.12L72.57,253.79C95.68,267.08,119.09,272.83,146.65,267.82Z"/><path d="M173.34,195.93c14.78-44.68,45.55-71.52,91.91-80.31,4.38-.83,8.79-1.49,14.37-2.43,0-11.16.05-22.16-.07-33.16,0-1.21-.66-3.2-1.5-3.51-14-5.28-3.25-8.21,1.63-11.38-10.24-6.36-10.34-8.11-1.35-13-17.06-9.5-22.58-18.69-19.45-32.39A26.12,26.12,0,0,1,282.83,0a25.49,25.49,0,0,1,25.54,18.82c4,13.78-.65,22-18.49,33.14,1.83,2.17,5.43,4.66,5.12,6.5-.39,2.35-3.94,4.17-6.56,6.62,4.48,3.38,14,7.24.53,11.85-.74.25-1.12,2.44-1.13,3.74-.09,10.67,0,21.34,0,28.93,20.52,7.85,40.17,12.91,57.28,22.49,27.15,15.2,44.08,39.88,50.78,70.33l3.52,86.12c0,5.51,0,11,0,17.45h-231c0-9.22-.62-18.16.16-27ZM283.59,299v.09q49.38,0,98.75,0c5.28,0,9.59-.11,9.39-7.42-.69-25.93.87-52.08-1.94-77.75-5.53-50.58-51.1-90.82-101.15-91.91C234.5,120.84,187,157,179.08,208.87c-4,26.11-1.62,53.15-2.7,79.74-.34,8.33,2.4,10.63,10.55,10.53C219.15,298.73,251.37,299,283.59,299ZM284.07,9A17.21,17.21,0,0,0,266.68,25.9c0,8.81,7.6,16.74,16.29,17a17.07,17.07,0,0,0,17.74-16.55C301.05,16.63,293.89,9.17,284.07,9Z"/><path class="cls-1" d="M42.53,256.17c-16.49-.05-30.14-10.62-33.26-27-.68-3.58,2.51-7.89,3.92-11.87,2.74,2.8,6.83,5.13,8,8.47,4.44,13,14,19.39,26.89,16.65,10.63-2.26,17.52-13,15.7-24.5-1.68-10.55-9.93-16.74-22.11-18.08-3.54-.39-6.73-3.85-10.09-5.91,3.64-2.36,7.18-6.57,10.92-6.76,18.55-1,34.93,16,34.76,35C77.07,240.86,61.39,256.23,42.53,256.17Z"/><path class="cls-1" d="M146.65,267.82c-27.56,5-51-.74-74.08-14l10.15-14.24c17.58,9.72,35.84,12.89,55.35,12.12C148,251.28,143.31,261.42,146.65,267.82Z"/><path class="cls-1" d="M283.59,299c-32.22,0-64.44-.24-96.66.17-8.15.1-10.89-2.2-10.55-10.53,1.08-26.59-1.26-53.63,2.7-79.74C187,157,234.5,120.84,288.64,122c50.05,1.09,95.62,41.33,101.15,91.91,2.81,25.67,1.25,51.82,1.94,77.75.2,7.31-4.11,7.43-9.39,7.42q-49.38-.12-98.75,0Z"/><path class="cls-1" d="M284.07,9c9.82.14,17,7.6,16.64,17.34A17.07,17.07,0,0,1,283,42.92c-8.69-.28-16.28-8.21-16.29-17A17.21,17.21,0,0,1,284.07,9Z"/><path class="cls-2" d="M278.21,161.71l10.46,0A60.27,60.27,0,0,1,312,168.81c-2.57,2.48-4.84,4.88-6.29,8-.81,1.7-2,.13-2.8-.19-17.34-6.79-33.76-5.13-48.93,5.66a48.7,48.7,0,0,0-18.61,52.26,49.33,49.33,0,0,0,42.11,36.3c32.07,3.52,58.49-22.68,55.06-54.64a42.07,42.07,0,0,0-3.05-12c-.62-1.47-.35-2.18,1.13-2.74a13.8,13.8,0,0,0,5.72-3.94c1.46-1.74,2-1.16,2.78.59,12,27.26,1.36,60.23-24.47,75.55-36.73,21.79-83.57.59-91.23-41.29-6-32.76,17.31-65.19,50.27-70Z"/><path class="cls-2" d="M283.41,194.5c15.22,0,27.73,12.44,27.62,27.39a27.7,27.7,0,0,1-55.4-.24A27.42,27.42,0,0,1,283.41,194.5Z"/><path class="cls-2" d="M310.51,184.34A12.49,12.49,0,0,1,323,171.73a12.59,12.59,0,1,1,.05,25.17A12.49,12.49,0,0,1,310.51,184.34Z"/><path d="M392,219.8c1.57-3.15,15.72,5.76,15.72,5.76a12.06,12.06,0,0,1,6.48,6.48c4.59,12.2,14.6,12.86,24.74,11.31,10.82-1.66,21.43-4.82,32-7.63,7.46-2,9.45-7,9.4-14.76-.14-24,18.62-42.14,42.27-42.13,11.59,0,19.06,5.57,19.39,14.45.36,9.35-5.87,14.94-18.05,15.33-8.72.27-14.11,4.13-14.48,12.82-.3,7,3.79,12,10.8,13.19,8.79,1.46,13.41-3.51,15.74-11.54,3.51-12.09,9.73-16.49,18.85-13.73,8.81,2.66,12.21,10.7,9.35,22.15-6.38,25.57-31.09,38.66-56.63,30.54-4-1.27-9.62-1.17-13.18.74-24,12.9-49.25,17.82-76.28,13.67-9.9-1.52-22.47,9.65-22.54,19.61C395.67,296.06,390.46,223,392,219.8Zm164,9.37c.69-3.58-2.51-7.89-3.91-11.87-2.74,2.8-6.83,5.13-8,8.47-4.44,13-14,19.39-26.89,16.65-10.63-2.26-17.52-13-15.7-24.5,1.68-10.55,9.93-16.74,22.11-18.08,3.53-.39,6.73-3.85,10.08-5.91-3.63-2.36-7.17-6.57-10.91-6.76-18.56-1-34.93,16-34.76,35,.16,18.69,15.84,34.06,34.69,34C539.24,256.12,552.9,245.55,556,229.17Zm-63.29,24.62-10.15-14.24c-17.58,9.72-35.84,12.89-55.35,12.12-9.9-.39-5.24,9.75-8.58,16.15C446.19,272.83,469.61,267.08,492.72,253.79Z"/><path class="cls-1" d="M522.75,256.17c16.49-.05,30.15-10.62,33.26-27,.69-3.58-2.51-7.89-3.91-11.87-2.74,2.8-6.83,5.13-8,8.47-4.44,13-14,19.39-26.89,16.65-10.63-2.26-17.52-13-15.7-24.5,1.68-10.55,9.93-16.74,22.11-18.08,3.53-.39,6.73-3.85,10.08-5.91-3.63-2.36-7.17-6.57-10.91-6.76-18.56-1-34.93,16-34.76,35C488.22,240.86,503.9,256.23,522.75,256.17Z"/><path class="cls-1" d="M418.64,267.82c27.55,5,51-.74,74.08-14l-10.15-14.24c-17.58,9.72-35.84,12.89-55.35,12.12C417.32,251.28,422,261.42,418.64,267.82Z"/></g></g></svg>