<svg xmlns="http://www.w3.org/2000/svg" viewBox="0 0 1706.9 1707.55"><defs><style>.cls-1{fill:#fff;}</style></defs><g id="Calque_2" data-name="Calque 2"><g id="Calque_1-2" data-name="Calque 1"><path class="cls-1" d="M1706.9,793.37c0-25.64-3.93-50.81-8.15-76-39.16-233.73-154.93-420.4-345.57-559.54C1223,62.81,1076.76,9.66,915.44,0H794.91c-47,1.4-92.86,10.09-138.59,20.63C225,120-61.66,550.46,11.35,988.83Q69.07,1335.33,350,1544.64c131.66,98.12,280.41,153.15,445,162.91H915.44c25.58,0,50.69-3.94,75.84-8.17,233.17-39.25,419.39-155.3,558.19-346.4,94.77-130.49,147.8-277.08,157.43-438.79Zm-430.16,76.07q-261.69,261.84-522,525.06c-12.05,12.19-17.62,12.32-29.49,0-39.23-40.9-79.65-80.67-120.4-120.07-10.31-10-10.11-15.19.07-25.37C731.45,1122.34,857.26,994.94,984,868.44c12.34-12.32,11.51-17.76-.31-29.57C857.5,712.8,732.12,585.94,606.14,459.69c-9.89-9.91-13.41-15-1.19-26.94,44.9-44,88.23-89.68,133.79-136.4,53.1,53.68,104,105.3,155.11,156.77Q1085.24,646,1277.1,838.33C1290.27,851.46,1289.1,857.07,1276.74,869.44Z"/></g></g></svg>