<svg xmlns="http://www.w3.org/2000/svg" viewBox="0 0 1706.9 1707.55"><defs><style>.cls-1{fill:#fff;}</style></defs><g id="Calque_2" data-name="Calque 2"><g id="Calque_1-2" data-name="Calque 1"><g id="Calque_2-2" data-name="Calque 2"><g id="Calque_1-2-2" data-name="Calque 1-2"><path class="cls-1" d="M0,914.18c0,25.64,3.93,50.81,8.15,76,39.16,233.73,154.93,420.4,345.57,559.54,130.18,95,276.42,148.17,437.74,157.83H912c47-1.4,92.86-10.09,138.59-20.63,431.32-99.37,718-529.83,645-968.2q-57.72-346.5-338.65-555.81C1225.24,64.79,1076.49,9.76,911.9,0H791.46c-25.58,0-50.69,3.94-75.84,8.17-233.17,39.25-419.39,155.3-558.19,346.4C62.66,485.06,9.63,631.65,0,793.36Zm430.16-76.07q261.69-261.84,522-525.06c12.05-12.19,17.62-12.32,29.49,0,39.23,40.9,79.65,80.67,120.4,120.07,10.31,10,10.11,15.19-.07,25.37C975.45,585.21,849.64,712.61,722.9,839.11c-12.34,12.32-11.51,17.76.31,29.57,126.19,126.07,251.57,252.93,377.55,379.18,9.89,9.91,13.41,15,1.19,26.94-44.9,44-88.23,89.68-133.79,136.4-53.1-53.68-104-105.3-155.11-156.77Q621.67,1061.54,429.8,869.22C416.63,856.09,417.8,850.48,430.16,838.11Z"/></g></g></g></g></svg>