<svg xmlns="http://www.w3.org/2000/svg" viewBox="0 0 405.22 331.56"><defs><style>.cls-1{fill:#fff;}.cls-2{fill:#020203;}.cls-3{fill:#1e1e1e;}.cls-4{fill:#f8f8f8;stroke:#1d1d1b;stroke-miterlimit:10;stroke-width:6px;}.cls-5{fill:#fcdc0c;}</style></defs><g id="Calque_2" data-name="Calque 2"><g id="Calque_1-2" data-name="Calque 1"><path d="M170.55,195.93c14.78-44.68,45.55-71.52,91.91-80.31,4.38-.83,8.79-1.49,14.37-2.43,0-11.16.05-22.16-.07-33.16,0-1.21-.66-3.2-1.5-3.51-14-5.28-3.25-8.21,1.63-11.38-10.24-6.36-10.34-8.11-1.35-13-17.06-9.5-22.58-18.69-19.45-32.39A26.12,26.12,0,0,1,280,0a25.49,25.49,0,0,1,25.54,18.82c4,13.78-.64,22-18.49,33.14,1.83,2.17,5.43,4.66,5.12,6.5-.39,2.35-3.94,4.17-6.56,6.62,4.48,3.38,14,7.24.53,11.85-.74.25-1.12,2.44-1.13,3.74C285,91.36,285,102,285,109.62c20.52,7.85,40.17,12.91,57.28,22.49,27.15,15.2,44.08,39.88,50.78,70.33l3.52,86.12c0,5.51,0,11,0,17.45h-231c0-9.22-.62-18.16.16-27ZM280.8,299v.09q49.38,0,98.75,0c5.28,0,9.59-.11,9.39-7.42-.69-25.93.87-52.08-1.94-77.75-5.53-50.58-51.1-90.82-101.15-91.91-54.14-1.18-101.69,35-109.56,86.85-4,26.11-1.61,53.15-2.7,79.74-.34,8.33,2.4,10.63,10.55,10.53C216.36,298.73,248.58,299,280.8,299ZM281.28,9A17.21,17.21,0,0,0,263.89,25.9c0,8.81,7.6,16.74,16.29,17a17.07,17.07,0,0,0,17.74-16.55C298.26,16.63,291.1,9.17,281.28,9Z"/><path class="cls-1" d="M280.8,299c-32.22,0-64.44-.24-96.66.17-8.15.1-10.89-2.2-10.55-10.53,1.09-26.59-1.26-53.63,2.7-79.74,7.87-51.87,55.42-88,109.56-86.85,50,1.09,95.62,41.33,101.15,91.91,2.81,25.67,1.25,51.82,1.94,77.75.2,7.31-4.11,7.43-9.39,7.42q-49.37-.12-98.75,0Z"/><path class="cls-2" d="M281.74,185.87h7a40.43,40.43,0,0,1,15.64,4.75,18.31,18.31,0,0,0-4.22,5.34c-.54,1.14-1.32.09-1.88-.13-11.62-4.55-22.63-3.44-32.8,3.8a32.64,32.64,0,0,0-12.48,35,33.25,33.25,0,0,0,65.15-12.29,28.18,28.18,0,0,0-2.05-8.07c-.41-1-.23-1.46.76-1.83a9.17,9.17,0,0,0,3.83-2.65c1-1.16,1.35-.77,1.87.4,8.06,18.28.91,40.38-16.41,50.65A40.82,40.82,0,0,1,245,233.2c-4-22,11.6-43.7,33.7-46.9Z"/><path class="cls-2" d="M285.23,207.85a18.41,18.41,0,1,1-18.62,18.2A18.5,18.5,0,0,1,285.23,207.85Z"/><path class="cls-2" d="M303.4,201a8.39,8.39,0,0,1,8.37-8.46,8.44,8.44,0,1,1,0,16.88A8.38,8.38,0,0,1,303.4,201Z"/><path d="M173,293.64c-1.68,3.1-15.53-6.25-15.53-6.25a12.08,12.08,0,0,1-6.27-6.69c-4.21-12.33-14.19-13.31-24.37-12.08-10.87,1.31-21.57,4.13-32.28,6.6-7.52,1.74-9.67,6.66-9.87,14.46-.61,23.95-19.94,41.53-43.58,40.77-11.58-.38-18.87-6.18-18.92-15.07-.06-9.35,6.34-14.74,18.53-14.74,8.72,0,14.23-3.68,14.88-12.36.52-7-3.4-12.13-10.38-13.52-8.73-1.75-13.52,3.08-16.1,11-3.88,12-10.25,16.17-19.27,13.13C1.15,296-2,287.84,1.24,276.48c7.19-25.36,32.3-37.65,57.56-28.72,3.94,1.39,9.58,1.47,13.2-.33,24.43-12.13,49.79-16.25,76.68-11.24,9.85,1.84,22.76-8.93,23.15-18.88C171.83,217.31,174.72,290.54,173,293.64ZM9.44,279.07c-.79,3.56,2.26,8,3.54,12,2.82-2.71,7-4.91,8.23-8.21,4.86-12.89,14.64-18.94,27.41-15.79,10.55,2.6,17.1,13.57,14.91,25-2,10.48-10.45,16.42-22.67,17.36-3.55.28-6.85,3.64-10.27,5.59,3.56,2.47,7,6.8,10.7,7.11,18.51,1.55,35.41-14.91,35.85-33.89.43-18.68-14.75-34.54-33.6-35.08C27.06,252.67,13.07,262.8,9.44,279.07Zm64-22.59L83.18,271c17.88-9.16,36.23-11.75,55.71-10.36,9.88.71,5.54-9.58,9.08-15.87C120.59,238.92,97,243.92,73.48,256.48Z"/><path class="cls-1" d="M43.54,253.14c-16.48-.47-30.47,9.66-34.1,25.93-.79,3.56,2.26,8,3.54,12,2.82-2.71,7-4.91,8.23-8.21,4.86-12.89,14.64-18.94,27.41-15.79,10.55,2.6,17.1,13.57,14.91,25-2,10.48-10.45,16.42-22.67,17.36-3.55.28-6.85,3.64-10.27,5.59,3.56,2.47,7,6.8,10.7,7.11,18.51,1.55,35.41-14.91,35.85-33.89C77.57,269.54,62.39,253.68,43.54,253.14Z"/><path class="cls-1" d="M148,244.8c-27.38-5.88-51-.88-74.49,11.68L83.18,271c17.88-9.16,36.23-11.75,55.71-10.36C148.77,261.38,144.43,251.09,148,244.8Z"/><path class="cls-1" d="M280.84,9c9.83.14,17,7.6,16.64,17.34a17.07,17.07,0,0,1-17.74,16.55c-8.69-.28-16.27-8.21-16.28-17A17.2,17.2,0,0,1,280.84,9Z"/><path class="cls-3" d="M346.12,201.78c-.61-1.49-1.44-2.9-2.16-4.35-15.33-31-42.14-41.89-71.16-36.93-27.47,4.69-45,22.57-52.14,49.95-.89,3.43.18,8.19-2.6,10s-7,1.33-10.56,1.3c-4.39,0-7.3,1.71-7,6.13.28,4.26,3.33,6.67,7.66,7a73.68,73.68,0,0,0,8.14,0c2.36-.1,3.73.56,4,3.18a43.88,43.88,0,0,0,5,15.83c14.95,29,43.37,41.6,72.26,36s49-28.71,52.31-58c.51-4.52,1.44-9.08,5.36-11.85l1.4-14.48C349.17,209.36,349.38,209.74,346.12,201.78Zm-62.93,76.77c-25.78-.47-52.14-22.79-51.79-54.08.32-27.72,24.35-52.63,53.65-52.61,26.72,0,54.09,23.63,52.49,53.33C339.33,254.25,312.67,279.09,283.19,278.55Z"/><polyline class="cls-3" points="207.5 221.79 168.45 224.36 172.71 242.35 216.3 234.89"/><polyline class="cls-3" points="356.64 205.61 393.06 202.44 387 213.93 355.24 220.09"/><polygon class="cls-4" points="362.38 271.03 402.22 271.03 402.22 301.89 365.12 302.58 362.38 271.03"/><rect class="cls-5" x="257.16" y="247.56" width="121.45" height="83.99" transform="translate(635.77 579.12) rotate(180)"/></g></g></svg>