<svg xmlns="http://www.w3.org/2000/svg" viewBox="0 0 1002.21 642.27"><defs><style>.cls-1{fill:#fff;}.cls-2{fill:#020203;}.cls-3{fill:#1e1e1e;}.cls-4{fill:#f9f9f9;stroke:#1d1e1b;stroke-miterlimit:10;stroke-width:6px;}.cls-5{fill:#fcdc0c;}.cls-6{fill:#fed9a7;}.cls-7{fill:#fedcac;}.cls-8{fill:#fedcab;}.cls-9{fill:#202b2c;}.cls-10{fill:#202b2b;}</style></defs><g id="Calque_2" data-name="Calque 2"><g id="Calque_1-2" data-name="Calque 1"><g id="Calque_2-2" data-name="Calque 2"><g id="Calque_1-3" data-name="Calque 1"><path id="Tracé_13" data-name="Tracé 13" d="M306.21,398.77c26.53-80.21,81.78-128.4,165-144.18,7.86-1.49,15.78-2.68,25.8-4.36,0-20,.09-39.79-.13-59.54,0-2.16-1.18-5.76-2.69-6.3-25.13-9.48-5.84-14.74,2.93-20.43-18.37-11.42-18.57-14.56-2.43-23.34-30.61-17.05-40.54-33.55-34.93-58.15A46.89,46.89,0,0,1,502.69,47a45.77,45.77,0,0,1,45.86,33.78c7.18,24.74-1.15,39.5-33.2,59.5,3.28,3.9,9.75,8.37,9.19,11.67-.7,4.22-7.07,7.49-11.78,11.88,8,6.07,25.14,13,1,21.28-1.33.45-2,4.38-2,6.72v52c36.84,14.09,72.12,23.18,102.83,40.38,48.75,27.29,79.14,71.59,91.17,126.26L712,565.07V596.4H297.29c0-16.56-1.12-32.6.28-48.47Zm197.92,185V584H681.42c9.48,0,17.22-.2,16.86-13.33-1.24-46.55,1.56-93.5-3.48-139.59-9.93-90.81-91.75-163-181.6-165C416,263.94,330.61,328.89,316.5,422c-7.18,46.88-2.88,95.43-4.85,143.16-.6,15,4.33,19.09,19,18.91C388.45,583.33,446.3,583.81,504.13,583.81ZM505,63.17a30.9,30.9,0,0,0-31.22,30.34A31.35,31.35,0,0,0,503,124a30.65,30.65,0,0,0,31.84-29.41c0-.1,0-.2,0-.31a29.5,29.5,0,0,0-27.8-31.1c-.69,0-1.38-.05-2.06,0Z"/><path id="Tracé_14" data-name="Tracé 14" class="cls-1" d="M504.15,583.82c-57.85,0-115.7-.43-173.54.3-14.63.18-19.55-4-18.94-18.9,1.95-47.74-2.27-96.29,4.84-143.16,14.13-93.13,99.5-158,196.7-155.94,89.77,2,171.67,74.19,181.6,165,5,46.1,2.24,93,3.48,139.59.36,13.12-7.38,13.33-16.86,13.33q-88.63-.22-177.29,0Z"/><path id="Tracé_15" data-name="Tracé 15" class="cls-2" d="M505.83,380.71H518.4a72.59,72.59,0,0,1,28.09,8.53,32.8,32.8,0,0,0-7.57,9.59c-1,2-2.37.16-3.37-.24a59.16,59.16,0,1,0,35.67,47.6,50.39,50.39,0,0,0-3.68-14.49c-.72-1.8-.42-2.62,1.36-3.29a16.39,16.39,0,0,0,6.88-4.75c1.8-2.09,2.42-1.39,3.35.72a73.19,73.19,0,1,1-78.74-42.89Z"/><path id="Tracé_16" data-name="Tracé 16" class="cls-2" d="M512.1,420.17a33.05,33.05,0,1,1-33.43,32.68,33.06,33.06,0,0,1,33.43-32.68Z"/><path id="Tracé_17" data-name="Tracé 17" class="cls-2" d="M544.72,407.88a15.06,15.06,0,1,1,4.38,10.67A15.05,15.05,0,0,1,544.72,407.88Z"/><path id="Tracé_18" data-name="Tracé 18" d="M310.61,574.2c-3,5.56-27.88-11.23-27.88-11.23a21.65,21.65,0,0,1-11.26-12c-7.56-22.13-25.48-23.89-43.75-21.68a555.29,555.29,0,0,0-58,11.85c-13.5,3.12-17.36,12-17.72,26a74.46,74.46,0,0,1-75.63,73.28q-1.3,0-2.61-.09c-20.79-.68-33.88-11.09-34-27-.11-16.79,11.38-26.47,33.27-26.47,15.65,0,25.55-6.6,26.71-22.19A21.72,21.72,0,0,0,81.18,540.3c-15.68-3.14-24.28,5.53-28.91,19.75-7,21.54-18.4,29-34.6,23.57C2.08,578.43-3.58,563.78,2.24,543.39c12.9-45.53,58-67.6,103.35-51.57a33.7,33.7,0,0,0,23.7-.59c43.86-21.78,89.39-29.17,137.67-20.17,17.68,3.31,40.86-16,41.56-33.89C308.51,437.16,313.69,568.63,310.61,574.2ZM17,548c-1.42,6.39,4.06,14.36,6.35,21.54,5.07-4.86,12.57-8.81,14.77-14.74,8.73-23.14,26.29-34,49.21-28.35,18.94,4.69,30.7,24.37,26.77,44.89-3.6,18.81-18.76,29.48-40.69,31.16-6.38.51-12.3,6.54-18.44,10,6.39,4.43,12.57,12.21,19.21,12.76,33.23,2.79,63.57-26.76,64.36-60.86a62.26,62.26,0,0,0-60.32-63C48.59,500.64,23.48,518.83,17,548Zm114.9-40.56,17.49,26.07c32.1-16.44,65-21.09,100-18.6,17.73,1.28,9.94-17.2,16.3-28.49-49.16-10.5-91.51-1.53-133.74,21Z"/><path id="Tracé_19" data-name="Tracé 19" class="cls-1" d="M78.18,501.48C48.59,500.64,23.48,518.83,17,548c-1.42,6.39,4.06,14.36,6.36,21.54,5.06-4.87,12.56-8.82,14.76-14.74,8.73-23.14,26.29-34,49.21-28.35,18.94,4.68,30.7,24.36,26.77,44.88-3.6,18.82-18.76,29.48-40.69,31.17-6.38.51-12.3,6.54-18.44,10,6.39,4.43,12.57,12.21,19.21,12.76,33.23,2.79,63.57-26.76,64.36-60.86A62.27,62.27,0,0,0,78.18,501.48Z"/><path id="Tracé_20" data-name="Tracé 20" class="cls-1" d="M265.72,486.51c-49.15-10.56-91.56-1.58-133.73,21l17.36,26.07c32.1-16.45,65-21.1,100-18.6C267.11,516.27,259.31,497.8,265.72,486.51Z"/><path id="Tracé_21" data-name="Tracé 21" class="cls-1" d="M504.21,63.17A29.4,29.4,0,0,1,534.15,92c0,.76,0,1.52,0,2.28A30.65,30.65,0,0,1,502.56,124h-.31A31.36,31.36,0,0,1,473,93.5,30.87,30.87,0,0,1,504.21,63.17Z"/><path id="Tracé_22" data-name="Tracé 22" class="cls-3" d="M621.42,409.26c-1.08-2.67-2.59-5.21-3.88-7.81-27.52-55.65-75.66-75.2-127.76-66.3-49.32,8.42-80.79,40.52-93.61,89.67-1.6,6.16.33,14.7-4.68,17.95s-12.57,2.39-19,2.34c-7.88,0-13.1,3.06-12.56,11,.5,7.65,6,12,13.75,12.57a131.86,131.86,0,0,0,14.61,0c4.24-.18,6.7,1,7.18,5.71a78.93,78.93,0,0,0,9,28.42c26.84,52.06,77.86,74.68,129.73,64.63s88-51.54,93.92-104.13c.91-8.11,2.58-16.3,9.62-21.28l2.52-26C626.89,422.88,627.27,423.57,621.42,409.26Zm-113,137.83c-46.28-.84-93.6-40.92-93-97.09.58-49.77,43.72-94.49,96.32-94.46,48,0,97.11,42.42,94.24,95.75,3.21,52.19-44.65,96.78-97.58,95.81Z"/><path id="Tracé_23" data-name="Tracé 23" class="cls-3" d="M372.55,445.2l-70.11,4.61,7.65,32.3,78.26-13.39"/><path id="Tracé_24" data-name="Tracé 24" class="cls-3" d="M640.31,416.15l65.38-5.69-10.88,20.63-57,11.05"/><path id="Tracé_25" data-name="Tracé 25" class="cls-4" d="M650.61,533.6h71.53V589l-66.63,1.24Z"/><rect id="Rectangle_4" data-name="Rectangle 4" class="cls-5" x="461.7" y="491.48" width="218.05" height="150.79"/></g></g><g id="Groupe_3" data-name="Groupe 3"><path id="Tracé_26" data-name="Tracé 26" class="cls-5" d="M839.18,0h-5.4a62.25,62.25,0,0,1-8,.21A192.88,192.88,0,0,0,785,4.09a158.58,158.58,0,0,0-40,14.25,131.52,131.52,0,0,0-26.27,18.09,113.49,113.49,0,0,0-22.13,26.78A126.81,126.81,0,0,0,682.24,100,121.51,121.51,0,0,0,679,126.91c0,1.8-.18,3.6-.17,5.4v12.41a87.19,87.19,0,0,0,6.81,36,145.28,145.28,0,0,0,12.76,22.82c3.35,5.08,6.45,10.34,10.18,15.18a100.33,100.33,0,0,0,30.08,25.76A107.61,107.61,0,0,0,774.6,257c5.59,1,11.25,1.45,16.9,1.9,7.52.62,15.06.77,22.56,1.55,3.24.33,6.48.17,9.75.38a337.51,337.51,0,0,0,34.7.42,146.76,146.76,0,0,0,34.07-4.56c2.31-.64,3.67.6,3.45,3.25a33.19,33.19,0,0,1-3,11c-1.74,3.85-3.26,7.8-4.64,11.79a19.47,19.47,0,0,0-.89,4.47,4.17,4.17,0,0,0,3.33,4.86,4.27,4.27,0,0,0,1.13.06,48,48,0,0,0,19.9-4.48A124.61,124.61,0,0,0,947.57,266a130.45,130.45,0,0,0,27.22-30.33,142.82,142.82,0,0,0,10.87-21.48,240,240,0,0,0,14-48,130.44,130.44,0,0,0,2-19.81q.16-5.91.28-11.82c.12-6.43,0-12.88-.44-19.3a152.62,152.62,0,0,0-8.84-40.65A98.22,98.22,0,0,0,966,33.35a92,92,0,0,0-31.11-18A295.05,295.05,0,0,0,894.39,5.32C885.5,3.49,876.57,2,867.57.93,864,.51,860.38.61,856.79.46c-3.18-.13-6.36-.4-9.54-.25A63.93,63.93,0,0,1,839.18,0Z"/><path id="Tracé_27" data-name="Tracé 27" class="cls-6" d="M1001.83,131.82a2.43,2.43,0,0,0,.38,0v13.32a2.43,2.43,0,0,0-.38,0Z"/><path id="Tracé_28" data-name="Tracé 28" class="cls-7" d="M833.29.38a1,1,0,0,0,0-.38h8.32A31.94,31.94,0,0,1,833.29.38Z"/><path id="Tracé_29" data-name="Tracé 29" class="cls-8" d="M855.38,0a2.19,2.19,0,0,0,0,.36A30.74,30.74,0,0,1,847.06,0Z"/><path id="Tracé_30" data-name="Tracé 30" class="cls-9" d="M848.73,54.05a48.91,48.91,0,0,1,22.83,4.44,33.52,33.52,0,0,1,16.05,43.25,106.92,106.92,0,0,1-13.31,21.71,146.3,146.3,0,0,0-12.4,18.4,43.87,43.87,0,0,0-4.9,16,9.25,9.25,0,0,1-7.58,8.08,45.52,45.52,0,0,1-20.41,0c-7.2-1.75-10.8-7.08-11-15.13A50.37,50.37,0,0,1,832.28,115a39.13,39.13,0,0,0,7.59-10.58,8.19,8.19,0,0,0-1.22-9.8,8.84,8.84,0,0,0-10.44-2.23c-3.2,1.28-6.31,2.82-9.48,4.2A28,28,0,0,1,815,97.93a8.33,8.33,0,0,1-10.1-3.71,20.55,20.55,0,0,1-2.28-21.74,19.44,19.44,0,0,1,8.8-8.56A77.64,77.64,0,0,1,848.73,54.05Z"/><path id="Tracé_31" data-name="Tracé 31" class="cls-10" d="M843.54,179.17a17.34,17.34,0,0,1,17.85,15.6,18.33,18.33,0,0,1-14.15,18.75c-10.13,2.73-23-5.2-24.89-15.36a12.85,12.85,0,0,1,3.77-11.37A26.21,26.21,0,0,1,843.54,179.17Z"/></g></g></g></svg>