<svg xmlns="http://www.w3.org/2000/svg" viewBox="0 0 1538.71 1385"><defs><style>.cls-1{fill:#ffd000;}.cls-2{fill:#fbf5f1;}.cls-3{fill:#fbb900;}.cls-4{fill:#ffd100;}.cls-5{fill:#fbbb00;}.cls-6{fill:#f7a600;}.cls-7{fill:#fbba00;}.cls-8{fill:#d4aa5f;}.cls-9{fill:#fff;}.cls-10{fill:#020203;}.cls-11{fill:#161616;}.cls-12{fill:#171717;}.cls-13{fill:#1a1b1b;}.cls-14{fill:#1c1c1c;}.cls-15{fill:#1f1f1f;}.cls-16{fill:#303031;}.cls-17{fill:#222323;}.cls-18{fill:#272828;}.cls-19{fill:#2b2b2c;}.cls-20{fill:#2a2a2a;}.cls-21{fill:#2f2f30;}.cls-22{fill:#292929;}.cls-23{fill:#252526;}.cls-24{fill:#222424;}.cls-25{fill:#262626;}.cls-26{fill:#383838;}.cls-27{fill:#eaeaea;}.cls-28{fill:#2d2d2e;}.cls-29{fill:#2f3031;}.cls-30{fill:#3c3c3c;}.cls-31{fill:#343434;}.cls-32{fill:#474847;}.cls-33{fill:#e9e9e9;}.cls-34{fill:#cac7c7;}.cls-35{fill:#fefefe;}.cls-36{fill:#f9f9fa;}.cls-37{fill:#fbfbfb;}.cls-38{fill:#fcfbfc;}.cls-39{fill:#fdfdfd;}.cls-40{fill:#faf9fa;}.cls-41{fill:#f9f9f9;}.cls-42{fill:#fcfcfc;}.cls-43{fill:#f9f7f9;}.cls-44{fill:#f5f4f5;}.cls-45{fill:#e8e7e7;}.cls-46{fill:#f0efef;}.cls-47{fill:#f8f7f7;}.cls-48{fill:#f4f3f4;}.cls-49{fill:#f3f2f3;}.cls-50{fill:#f0f0f0;}.cls-51{fill:#e3e3e2;}.cls-52{fill:#efefef;}.cls-53{fill:#edeced;}.cls-54{fill:#e8e8e8;}.cls-55{fill:#e3e2e2;}.cls-56{fill:#e9e8e9;}.cls-57{fill:#d2d0d1;}.cls-58{fill:#cfcece;}.cls-59{fill:#cecbcc;}.cls-60{fill:#2d2d2d;}.cls-61{fill:#fffeff;}.cls-62{fill:#fafafa;}.cls-63{fill:#f4f4f4;}.cls-64{fill:#e8e7e8;}.cls-65{fill:#5a5a5a;}.cls-66{fill:#4f4e4e;}.cls-67{fill:#fbfafb;}.cls-68{fill:#fefdfe;}.cls-69{fill:#424242;}.cls-70{fill:#dddcdc;}.cls-71{fill:#e5e4e4;}.cls-72{fill:#f7f6f6;}.cls-73{fill:#dcdbdb;}.cls-74{fill:#e9e8e8;}.cls-75{fill:#eae9ea;}.cls-76{fill:#e2e2e1;}.cls-77{fill:#edecec;}.cls-78{fill:#e3e2e1;}.cls-79{fill:#e0dfdf;}.cls-80{fill:#727272;}</style></defs><g id="Calque_2" data-name="Calque 2"><g id="Calque_4" data-name="Calque 4"><path class="cls-1" d="M1085.57,860.67c-4.46-.85-8.9-1.8-13.37-2.52q-159.35-25.83-318.71-51.49c-18.64-3-19-6.2-24.41,14.48-1.1,4.24-3.83,4.74-7.65,4.07-8-1.41-16.1-2.83-24.21-3.68-23.08-2.43-41.08,11.34-44.51,34.18-4.26,28.31-3.1,56.52,1.12,84.82,7.74,51.88,25.62,98.91,64.9,135.36,16.75,15.55,35.71,28.16,60,28.65,6,.12,10,3.27,13.68,7.68,14.45,17.19,29.83,33.42,49.89,44.3,5.35,2.9,6.57,6.78,5.5,12.78-2.94,16.38-5.17,32.88-7.68,49.34,5.17-.91,4.9-5.46,5.55-9,2-10.53,3.76-21.1,5.05-31.75.79-3.72.63-7.65,2.55-11.13.59-.7,1.3-1.64,2.11-1.62,17,.49,32.53-4.75,48.25-10.7,12-4.55,22.75-11,33.44-17.54a197,197,0,0,0,36.11-28.68c13-13,26.44-25.43,37.25-40.49,15.52-21.63,30.08-43.75,41.31-68,7.23-15.62,13.67-31.51,19.65-47.64,7.9-21.35,11.76-43.75,17.27-65.72C1090.86,877.65,1092.48,868.53,1085.57,860.67ZM757.19,1060.05a114.27,114.27,0,0,1-29.9-28.45c-25.52-35-37.09-74.5-39.76-117.31a434.33,434.33,0,0,1-.6-46.06c.36-8.24,4-11.69,11.92-10.52s17,.55,22.82,4.64c7.16,5,1.08,14.54,1.19,22.07.83,56.7,8.71,112,31.81,164.35C756,1051.83,758.71,1054.83,757.19,1060.05Z"/><path class="cls-2" d="M860.2,1010c13.15-15.6,2.77-29.2-7-43.83-8.11-12.16,1.75-28.87,16.3-29.57,6.64-.32,13.31-.54,19.94-.24,4.34.2,6.51-2.12,8.9-5.06,4.56-5.6,7.37-12.54,13.29-17.1,11.84-9.14,28.6-4.71,33.58,9.26,1.31,3.66,3.55,7.53,3.58,11.07.08,10.6,7.55,12.67,15.17,15.05a74.36,74.36,0,0,1,15,6.26c12.6,7.18,13.45,25.26,1.94,32.63-14.25,9.13-23.58,19-20,37.74,1.76,9.29-4.28,16.88-13.57,20.08-8,2.76-15.47,0-22.17-4.65-4.43-3.08-8.4-7-13.12-9.45-7.37-3.92-13.83,1.27-20.26,3.7-10.79,4.07-22.14,1.08-29-8.08C859,1022.84,860,1017.54,860.2,1010Z"/><path class="cls-3" d="M850.64,1163.4c3.52-3.11,7.87-1.14,11.28-.75,18.23,2.07,33.85-7.16,49.05-13.52,14.22-5.94,27.92-15.38,40.86-25.15A273,273,0,0,0,978,1101.07c11.31-11,23.27-22.21,31.79-36.24,8.4-13.83,20.28-25.9,26.77-40.46s17.22-27,20.12-42.92c.86-4.76,4.15-8,5.85-12.15a388,388,0,0,0,20.47-70c1.74-8.7,3.33-17.46,5.54-26.05.78-3,.1-4.67-2.13-6.06-3.09-1.91-3.22-4-.82-6.55,17.42,2.53,34.91,4.62,52.06,8.78,3.91,1.41,6.74,3.42,6.86,8.27.35,14.85,1.72,29.58-3.47,44.2-1.93,5.43-7.59,9.67-5.85,16.36.55,10.68-4.59,19.94-7.94,29.52-16,45.83-40.36,87-70.84,124.67a76.15,76.15,0,0,1-14.15,14c-12.16,7.52-20.73,19.14-31.53,28.27-5.42,4.59-12,4.14-17.32,8.12-4.91,3.64-10.53,6.77-15.83,10.13-13.29,9.42-28.48,14.31-44.11,17.83-6.09,1.38-9.5,3.76-10.48,10.31-3.42,22.65-8.66,45.05-9,68.11-6.13-3-4.57-8.6-4-13.36,1.56-13.16,4.05-26.2,6.14-39.3,3-18.7,1.34-20.77-17.35-20.27-15.14.4-29.06-4.47-43.05-9.19A10.34,10.34,0,0,1,850.64,1163.4Z"/><path class="cls-1" d="M1133.58,938.34c-2-1.69-3-3.14-1.28-6.07,8.14-13.57,12.75-28,10.58-44.2-.88-6.54,2.4-14.05-5.25-18.62,6.22-.14,8.79,2.84,8.09,9-.3,2.67.52,5.5.07,8.12-1,6.06,1.69,8,7.32,8.58,9.64.92,19.3,2.1,28.45,5.55,19.24,7.24,28.82,24,25.4,44.24-6.78,40-23,76.16-44.86,110-20.46,31.69-46.34,57.59-80.06,75.15-24.07,12.53-49.22,18.19-76.09,11.24-3.73-1-6.18,0-9.28,1.51-6.48,3.16-11.91,8.3-19.11,10,6.42-8,16.07-10.48,24.49-15.23a79.82,79.82,0,0,0,23.43-19.93c4.16-5.28,9.39-9,15.11-12.25,41-13,69.64-41,92.16-76.37,16.54-26,27.91-54.09,35.29-83.92,1.57-6.38-.47-9.88-6.86-11.12C1151.46,932.27,1141.68,929.65,1133.58,938.34Z"/><path class="cls-4" d="M944.52,1368.25q-64.18-10.2-128.38-20.42-39.06-6.24-78.1-12.62c-7-1.16-15.34-.9-18.08-9.53-3.06-9.63.56-18.38,7.33-24.86,8.45-8.09,18.54-14.4,31.11-10.42s23.74-.5,35.22-4.08c.54,6.65,5.32,7.8,10.72,8.67,38.28,6.2,76.61,12.15,114.83,18.71a42.85,42.85,0,0,1,12.43,2.93c5.06,3.65,10.53,6.74,14.83,11.46C956.63,1339.24,955.83,1358,944.52,1368.25Z"/><path class="cls-5" d="M919.69,1316.41q-60.75-9.81-121.5-19.63c-10-1.62-10-1.65-4.57-10.46,21.19-13.66,35.32-32.71,43.15-56.55,1.21-3.68,2.24-7.42,3.35-11.13,4.77-10.49,4.2-22.06,6.72-33,.74-3.19,1.22-6.45,1.82-9.67,14.09,2.46,23.66,11.07,30.12,23.18,3.91,7.33,4.26,15.3,3.35,23.82-2.78,25.88.12,50.73,16.49,72.46a57.23,57.23,0,0,0,15.44,13.84C916.66,1310.92,920.54,1311.9,919.69,1316.41Z"/><path class="cls-6" d="M919.69,1316.41c-6.12-6.69-15.56-9-21-16.81-12-17.15-20.13-35-19.32-56.92.34-9.27,1-18.57,1.14-27.82.14-12-5.65-22-15.67-29-5.17-3.61-10.77-6.62-16.17-9.9l2-12.56c6.66,1.73,13.6,2.77,19.91,5.36,11.49,4.72,23.26,5.23,35.34,4.55,11.78-.67,16,4,14.13,15.53q-3.67,23.22-7.49,46.4c-.79,4.82-1.1,9.53,1.4,14,2.06,16.26,5,32.16,14.12,46.34,5.77,9,12.89,16.65,20.49,24-5.87,6.33-11,1.22-16.35-1Z"/><path class="cls-7" d="M932.19,1318.51c5.47,0,10.73,3.36,16.35,1L964.9,1324c7.67,9.46,21.49,9.38,29.2,18.78l2,1.7c.77,5.88,3.49,11.43,1.94,17.71-2.37,9.65-6.94,13.63-16.79,12.29-12.28-1.68-24.46-4.12-36.69-6.24,1.85-4,4.2-8,5.46-12.18,4-13.44-.77-25.35-12.87-32.79C935,1322,932.87,1321.11,932.19,1318.51Z"/><path class="cls-8" d="M994.1,1342.79c-9.38-6.81-24-5.55-29.21-18.78l3.38-.31,15.68,5.06,0,0C985.7,1334.58,995.4,1334.71,994.1,1342.79Z"/><g id="Calque_2-2" data-name="Calque 2"><g id="Calque_1-2" data-name="Calque 1-2"><path d="M534.34,1365.73c-.15-19.3-24.4-40.79-43.51-37.85-52.12,8-100.87-1.47-147.25-26.37-6.88-3.69-17.78-3.86-25.45-1.45-49.3,15.67-97-9.65-109.32-59-5.52-22.1,1-37.62,18.05-42.76,17.61-5.3,29.61,3.19,36.37,26.51,4.5,15.44,13.51,25.09,30.39,22.3,13.51-2.28,21.44-11.93,20.86-25.47-.73-16.77-11.12-24.22-28-24.76-23.53-.76-35.54-11.59-34.86-29.58.65-17.14,15.07-27.89,37.43-27.89,45.67,0,81.89,35,81.6,81.31,0,15.07,3.86,24.69,18.16,28.49,20.5,5.44,41,11.58,61.87,14.73,19.58,3,38.88,1.72,47.76-21.81A23.33,23.33,0,0,1,511,1229.64s27.3-17.2,30.35-11.1S534.34,1365.73,534.34,1365.73Zm-245.34-77c36.41,0,66.68-29.56,67-65.64.31-36.68-31.29-69.49-67.1-67.56-7.24.38-14.06,8.51-21.08,13.07,6.48,3.86,12.64,10.65,19.47,11.4,23.44,2.55,39.44,14.52,42.74,34.89,3.52,22.14-9.78,42.91-30.3,47.29-24.85,5.27-43.34-7-51.91-32.16-2.2-6.45-10.1-10.94-15.45-16.33-2.72,7.72-8.88,16-7.56,22.91C230.82,1268.28,257.17,1288.65,289,1288.75Zm201,22.49c-6.45-12.36,2.55-31.93-16.56-31.18-37.67,1.49-72.92-4.63-106.85-23.4-6.68,9.35-12.63,17.7-19.6,27.47C391.6,1309.81,436.8,1320.89,490,1311.24Z"/><path d="M541.52,1172.46c28.53-86.27,87.93-138.07,177.43-155,8.45-1.6,17-2.89,27.74-4.71,0-21.54.1-42.76-.14-64,0-2.36-1.27-6.18-2.89-6.8-27-10.17-6.28-15.82,3.14-21.94-19.76-12.3-20-15.68-2.6-25.1-32.93-18.36-43.59-36.08-37.55-62.53a50.44,50.44,0,0,1,46.14-38.1,49.22,49.22,0,0,1,49.32,36.33c7.72,26.62-1.25,42.47-35.69,64,3.53,4.19,10.48,9,9.88,12.53-.75,4.54-7.6,8-12.66,12.8,8.65,6.52,27,14,1,22.85-1.41.49-2.14,4.73-2.16,7.24,0,20.6,0,41.2,0,55.75,39.61,15.18,77.55,24.93,110.58,43.42,52.41,29.36,85.09,77,98,135.79l6.82,166.34V1385H531.93c0-17.8-1.2-35.08.31-52.12Zm212.83,198.83v.18H945c10.2,0,18.52-.2,18.13-14.33-1.33-50,1.68-100.52-3.75-150.09-10.67-97.62-98.66-175.3-195.26-177.41-104.51-2.29-196.3,67.57-211.5,167.66-7.72,50.41-3.12,102.59-5.21,153.93-.66,16.07,4.63,20.53,20.37,20.33,62.2-.65,124.39-.19,186.59-.19Zm.93-559.71a33.2,33.2,0,0,0-33.57,32.55c0,17,14.67,32.31,31.45,32.82a32.94,32.94,0,0,0,34.23-31.58c0-.13,0-.25,0-.37.66-18.67-13.16-33.07-32.12-33.34Z"/><path class="cls-9" d="M289,1288.75c-31.83-.1-58.18-20.52-64.2-52.13-1.32-6.91,4.84-15.25,7.56-22.91,5.29,5.39,13.19,9.88,15.45,16.33,8.57,25.1,27,37.43,51.91,32.16,20.52-4.38,33.82-25.09,30.3-47.29-3.24-20.37-19.17-32.34-42.68-34.9-6.83-.76-13-7.46-19.48-11.41,7-4.56,13.84-12.69,21.08-13.07,35.81-1.93,67.41,30.88,67.11,67.56C355.68,1259.19,325.41,1288.84,289,1288.75Z"/><path class="cls-9" d="M490,1311.24c-53.2,9.65-98.45-1.43-143-27,7-9.77,12.92-18.13,19.6-27.47,33.93,18.76,69.18,24.88,106.85,23.4C492.55,1279.31,483.55,1298.88,490,1311.24Z"/><path class="cls-9" d="M754.35,1371.37c-62.2,0-124.39-.46-186.59.33-15.74.19-21-4.27-20.37-20.33,2.09-51.35-2.43-103.53,5.21-153.93,15.2-100.13,107-169.88,211.5-167.66,96.52,2.1,184.59,79.78,195.26,177.41,5.43,49.57,2.42,100,3.75,150.09.39,14.13-7.93,14.36-18.13,14.32q-95.33-.19-190.63,0Z"/><path class="cls-9" d="M755.28,811.66c19,.27,32.82,14.67,32.12,33.45a32.93,32.93,0,0,1-33.88,32h-.36c-16.78-.54-31.43-15.85-31.45-32.82A33.2,33.2,0,0,1,755.28,811.66Z"/><path class="cls-10" d="M744,1106.4h20.19a116.34,116.34,0,0,1,45,13.65,53.44,53.44,0,0,0-12.15,15.44c-1.56,3.3-3.86.27-5.4-.37-33.48-13.09-65.17-9.9-94.46,11a94,94,0,0,0-35.92,100.86A95.18,95.18,0,0,0,742.56,1317c61.91,6.79,112.91-43.76,106.29-105.46a82.18,82.18,0,0,0-5.89-23.17c-1.2-2.83-.68-4.21,2.18-5.29a26.39,26.39,0,0,0,11-7.72c2.84-3.34,3.86-2.24,5.39,1.16,23.16,52.62,2.62,116.27-47.24,145.84-70.9,42.07-161.32,1.12-176.11-79.7-11.58-63.26,33.41-125.85,97-135.13Z"/><path class="cls-10" d="M754,1169.7c29.39,0,53.54,24,53.32,52.87a53.47,53.47,0,1,1-106.94-.46h0a52.92,52.92,0,0,1,53.41-52.42Z"/><path class="cls-10" d="M806.32,1150.06a24.15,24.15,0,0,1,24-24.34h.15a24.31,24.31,0,0,1,0,48.61h0a24.15,24.15,0,0,1-24.11-24.19Z"/><path d="M963.71,1218.54c3-6.1,30.38,11.14,30.38,11.14a23.28,23.28,0,0,1,12.51,12.52c8.86,23.54,28.19,24.83,47.76,21.82,20.89-3.21,41.37-9.29,61.77-14.73,14.41-3.86,18.25-13.42,18.15-28.49-.27-46.34,36-81.35,81.6-81.31,22.37,0,36.79,10.75,37.43,27.89.7,18-11.33,28.82-34.86,29.57-16.82.54-27.22,8-27.94,24.77-.59,13.51,7.3,23.17,20.85,25.46,17,2.82,25.89-6.77,30.39-22.29,6.77-23.32,18.78-31.82,36.39-26.51,17,5.14,23.55,20.66,18,42.76-12.32,49.38-60,74.63-109.32,59-7.73-2.43-18.57-2.24-25.45,1.45-46.33,24.9-95.07,34.4-147.25,26.37-19.11-2.94-43.38,18.64-43.51,37.85C970.72,1365.73,960.66,1224.62,963.71,1218.54Zm316.59,18.08c1.31-6.91-4.85-15.25-7.57-22.91-5.27,5.39-13.16,9.88-15.44,16.33-8.59,25.1-27,37.43-51.91,32.16-20.52-4.38-33.82-25.09-30.31-47.29,3.22-20.37,19.17-32.34,42.68-34.9,6.82-.76,13-7.46,19.46-11.41-7-4.56-13.84-12.69-21.06-13.07-35.83-1.93-67.43,30.88-67.1,67.56.31,36.08,30.58,65.64,67,65.64,31.85-.08,58.22-20.45,64.22-52.11Zm-122.18,47.51c-7-9.77-12.91-18.12-19.59-27.47-33.94,18.77-69.19,24.89-106.85,23.4-19.11-.75-10.12,18.82-16.56,31.18,53.12,9.65,98.33-1.43,142.94-27.11Z"/><path class="cls-9" d="M1216.09,1288.75c31.84-.1,58.21-20.52,64.21-52.13,1.31-6.91-4.85-15.25-7.57-22.91-5.27,5.39-13.16,9.88-15.44,16.33-8.59,25.1-27,37.43-51.91,32.16-20.52-4.38-33.82-25.09-30.31-47.29,3.22-20.37,19.17-32.34,42.68-34.9,6.82-.76,13-7.46,19.46-11.41-7-4.56-13.84-12.69-21.06-13.07-35.83-1.93-67.43,30.88-67.1,67.56C1149.38,1259.19,1179.65,1288.84,1216.09,1288.75Z"/><path class="cls-9" d="M1015.06,1311.24c53.18,9.65,98.45-1.43,143-27-7-9.77-12.91-18.13-19.59-27.47-33.94,18.76-69.19,24.88-106.85,23.4C1012.51,1279.31,1021.51,1298.88,1015.06,1311.24Z"/><g id="tkzClA.tif"><path class="cls-11" d="M762.44,173.73c13.78-14,24.29-30.35,42.07-41.31,23.57-14.58,47.27-12.74,72.21-9.27,22.51,3.17,22.51,3,14.77,24.65-1.43,4-2.64,8-4.63,14.09,30.88-6.23,60.36-14.32,90.32-17.79,69.25-8,123.94-49.11,184-78,8.19-3.86,15.1-5.16,23.79-2.59,44.8,13.24,89.8,25.89,134.64,39,7.73,2.29,13.52,2.29,20.1-4.23,8.88-8.82,16.89-23.5,28.84-23.17,10.7.27,21.24,11.2,31.66,17.61,19,11.58,38.15,22.89,56.62,35.25,7.9,5.27,12.93,5.58,17.86-3,7.2-12.49,15.3-13.1,26.19-3.2,10.1,9.21,21.82,16.62,32.82,24.9,3.07,2.34,8.32,4.19,2.3,9.17-35.74,29.5-71.43,59.09-110.27,86.87,8.82-21.6,17.63-43.22,27-66.14-35.6,9-69.73,17.92-104,26.22-8.59,2.09-9,8.8-10.3,14.88-4.19,18.9-8.32,37.86-11.59,56.95-1.14,6.82-3.28,11.93-9.65,14.27-42.47,15.44-62.33,48.1-69.26,90.73-.76,4.57-3.11,8.88-4.73,13.3a57.93,57.93,0,0,1-27.76.13c-.29-7.72,6.1-6.12,10-6.15,8.72,0,12.6-4.46,14.71-12.28,3.67-13.61,10-26.47,12.06-40.43-3.68-3.47-6.62-.73-9.24.66-31.26,16.66-63.55,31.24-94.59,48.26-5.8,3.19-11.72,6.18-18.52,6.22-8.74-2.26-1.6,4.5-3.36,6.18,3.17,10.52,17.38,12.35,19,24-.91,1.93-1.93,3.45-4.48,2.18-6.54-6.08-13.51-11.79-19.54-18.38-5.34-5.79-8.37-4.92-12.76,1.08-15.94,21.78-32.47,43.11-48.47,64.87-5.1,6.95-7.86,7.87-12-1-11.58-24.78-23.91-49.24-36.13-73.74-1.93-4-3.17-8.49-8.67-10.44-25.25-9-49.61-20.45-75.54-27.63-3.59,3.17.48,8.09-2.6,11.37a4.43,4.43,0,0,1-3.87-.31c-2.66-7.06-6.93-10.25-15.11-8.41-6.82,1.52-14,1.77-21.49,4,0,6.28,6,10.73,5.47,17A10.5,10.5,0,0,1,889,384a4.69,4.69,0,0,1-3.59,1.51c-6.28-2.61-7.36-9.39-11.24-13.9a40.59,40.59,0,0,1-3.34-5.06,20.8,20.8,0,0,1-.67-20.48c4.77-9.15.94-12.63-7.51-14.73a108.49,108.49,0,0,1-12-4.46c-4.79-1.82-11.43-2.94-11.22-9.15.24-5.79,6.76-7.36,11.47-9.31,9.11-3.86,18.84-6.19,28.42-12.29-5.41-5.43-12.3-7.26-18.21-10.64-6.75-3.86-11.58-2.26-14.86,4.83-4.63,9.86-10.08,19.3-14.31,29.38-2.35,5.58-3.61,13.2-10.84,13.51s-9-7.41-12.28-12.37a197,197,0,0,1-13.65-25.35,45.14,45.14,0,0,1,1.58,22.68c-1.44,8.82-6.46,9.66-13.09,4.79-5-3.73-8-9.34-12.12-13.88-10.48-11.45-14-11.89-26.39-3.17A178.05,178.05,0,0,0,722,325.65c45.48-5.6,85.86,14.75,128.45,22.9,7.89,1.5,12.41,8.24,16,15.17.81,4.73,2.45,10-5.62,9.36-3.64-1.73-6.83-5-11.48-3.76a9.78,9.78,0,0,1-3.67-.66,6.44,6.44,0,0,1-2.49-2.85c-1.33-5.16-4.79-7.73-9.85-9.1-22.89-5.79-45.79-11.46-70.57-17.64,3.7,9.65,9.55,16.1,12.72,23.8,1.64,3.77,3.65,7.43,2.55,11.78a3.51,3.51,0,0,1-3.09,2.12c-12.47-5-14.56-18.09-20.48-27.84-5.45-8.95-9.93-10.57-19.15-5.79-14.29,7.43-28.38,15.21-42.47,23-3.86,2.05-6.84,5.39-11,6.89-1.08.54-2.18,1.05-3.26,1.57-5.79,5.27-2.8,12.93-5.23,19.09a6.51,6.51,0,0,1-2.43,2.74c-3.86.31-4.71-5-8.65-4.57a5,5,0,0,1-4.46-1.76C663.06,368.39,681,355.38,695.3,337c-20.25,3.55-16.14-8.29-15.25-19.15,1.18-14.25,4-25.66,22.24-24,8.69.77,8.4-7,8.18-11.91C710,270.52,716,264,724,257.3c17.56-14.66,37.79-26.88,47-51.91,2.86,4.9,4.42,7.1,5.5,9.51,9.83,21.8,28,24.83,45.31,7.9,7.07-6.89,15-12.92,24.19-20.79-5.41-2.4-7-3.11-8.53-3.86-23.17-9.48-23.17-9.48-13.92-33.28C817.77,169.54,812,174,806.42,179c-6.1,5.44-15.1,8.45-15.16,19,0,7.72-1.1,15.66-1.7,23.52a16.76,16.76,0,0,1-3.86-.45c-4.15-21.14-19-23.16-36.68-21-2.95.38-7.33,1.93-8.8-1.93s2.49-5.49,5.08-7.38a5.67,5.67,0,0,1,5.48.47c5.39,1.93,11.58,4.17,15.71-.7,3.11-3.61-1.23-7.72-3.26-11.37A5.22,5.22,0,0,1,762.44,173.73Z"/><path class="cls-12" d="M437.74,799.19c-11.35-9.89-22.58-19.92-34.11-29.6-4.57-3.86-3.16-8.53-3.16-13.1,0-54.61,4.55-108.8,15.84-162.29a25.6,25.6,0,0,0-3.55-20.08c-8.11-13.32-14.3-28-23.47-40.54-14.17-19.3-17-39.17-7.72-60.79,5.17-12,1.62-17.76-10.47-22.72-39.74-16.35-78.84-34.3-118.53-50.79-10-4.17-15.94-9.86-19.71-20C221,347.43,208.12,316,196.05,284.19c-3.15-8.3-7.45-14.65-15.33-19.31-31.64-18.55-61-39.9-81.07-71.58-4-6.29-7.57-6.06-13.52-2.51-25.65,15.14-51.62,29.75-77.54,44.4-2.13,1.2-4.06,4.69-7.16,2.24s-.29-5.29.56-7.72c12.48-34.5,25.3-69,37.7-103.63,2.41-6.75,5.79-8.57,12.58-6.71,10.95,2.95,22.2,4.76,33.13,7.72,28.05,7.59,55.44,9.77,85,4.55,64.3-11.33,122.75-39.28,184-59.84l-159,10c0-6.72,4.53-7.16,7.51-8.78C245.35,50.06,287.82,27.29,330,4.2a30.35,30.35,0,0,1,18.9-4c32,3.65,64.09,7.2,96,10.89,2.51.29,6.26-1.1,7,2.8.69,3.47-2.84,4.53-4.92,6.18a150.35,150.35,0,0,1-14.73,11c-39,23.53-68,56.62-91.85,94.86-3.86,6.18-5.27,10.69-2.51,17.91,10.27,26.76,19.57,53.88,29.55,81.8,16.06-12.69,31-25.1,46.56-36.55,5.89-4.36,6.36-7.35,2.17-13.28-13.38-18.95-26.2-38.32-39.1-57.6-2.23-3.34-6.33-5.93-5.23-11.06,3.71-2.65,6.26.79,8.71,2.08,23.16,12,45.94,24.38,69.09,36.27,7.34,3.87,10.6,6.51,2.9,13.77-8.11,7.6-21.68,15.35-20.91,24.84s12.82,17.9,20,26.76c9.52,11.81,18.72,23.9,28.78,35.25,4.87,5.48,4.35,8.69-.42,13.86-33.51,36.18-66.72,72.64-100,109.07a14.62,14.62,0,0,1-12.32,5.17c-22.25-.5-44.51-.21-66.48-.21,7.61,6.83,16.74,15.08,25.93,23.17,14.53,12.89,30.13,24.8,43.37,38.89,12.7,13.52,27.51,18.54,45.14,19.12,11.35.38,22.79,3.26,34,2.37,25.83-1.93,46.49,8.24,66.52,22.91,17.94,13.11,36.82,25.1,55.87,36.49,8.67,5.21,9.32,8.78,3.32,17.06-45,62.14-88.8,125.23-135.92,185.83a25.08,25.08,0,0,0-5.6,22c3.34,18.48,5.06,37.22,7.43,55.85Z"/><path class="cls-13" d="M657.81,390.17h4.67a6.06,6.06,0,0,1,1.93,3.49c-.23,8.77-4.36,16.41-7.93,24-5,10.56-2.88,19,4.75,27a136.31,136.31,0,0,1,15.44,19.44c-3.47-20.71-6.58-39.44-8.94-58.28,0-3.86.7-7.31,3.73-10l-.35.14c7.41-.2,6.49,6.39,8.57,10.52,3,18.7,5.79,37.43,9,56.14,1.08,6.42,3.26,11.06,11.27,7.49,29.38-13.09,58.38-27,89-41.37-14.89-9.11-30.89-11.59-43.75-20.18a7.83,7.83,0,0,1-1.54-3.86,7.22,7.22,0,0,1,1.39-3.86c17.12-2.47,29.55,10.29,45.79,13.32-4.42-7.6-9.66-14.84-13.07-23-2.09-5-6.1-10-.95-15.44l-.31.25c3.11-1.93,5.12.17,7.18,1.93,5.37,8.76,10.81,17.51,15.54,26.66,4,7.72,8,11.79,14.25,1.43,2.41-4,5.19-9.46,12-6.92,2.16,3.42.79,6.61-.62,9.77-8.55,14.52-8.47,14.21,8,18.13,22.73,5.4,45.47,10.52,69.23,14.81-5.62-12.36-15.93-20.93-19-33.56a8.12,8.12,0,0,1,3.67-7.21,2.29,2.29,0,0,1,3.19.6,2.49,2.49,0,0,1,.27.51c4.92,17.19,17.37,30,26.29,44.83,3.26,5.44,9.65,1.76,14.52,2.3a185.31,185.31,0,0,0,19.15.15c-.95,7.9-6.8,11.89-11.39,15.83-25.1,21.62-39.29,48.63-43.38,81.54a105.38,105.38,0,0,1-27.16,59.63c-11,11.91-13.4,26.39-14.29,41.74-1.14,19.3-3,38.4-4.51,57.56L845.74,707c-9.65-14.77-19.52-29.36-28.73-44.4-5.38-8.84-8.64-19.09-14.59-27.51-20.35-28.74-26.62-61.25-25.35-95.32.78-20.83-6.37-36.89-19.59-52.55-20.54-24.28-19.73-25-48.26-11.58-24.13,11.22-24.13,11.22-41.18-9.52a39.67,39.67,0,0,0-5.52-6.48c-22.49-17.49-21.6-37.94-7.84-60.08.93-2.14,0-4.92,2.34-6.56Z"/><path class="cls-12" d="M610.28,6.9c7.38-2,10,2.2,13.17,4.67,15.77,12.86,30.89,26.47,47.1,38.86,7.53,5.79,7,8.9.29,14.71q-66.69,57.63-132.73,115.92c-6.39,5.66-8.87,4-12.13-2.7-12.39-25.46-25.34-50.63-37.66-76.06-4-8.26-9-13-18.86-14.23-21.08-2.74-41.91-7.2-62.84-11-2.24-.41-5.13.25-6.23-2.39-1.51-3.61,1.93-4.85,3.86-6.55,14.86-12.49,30-24.67,44.65-37.27,8.13-7,18.07-5,27.16-6.26C521.48,18.15,567,12.5,610.28,6.9Z"/><path class="cls-14" d="M1354.68,680.6c-21.1-12.24-42.26-24.26-63.3-36.81a15.82,15.82,0,0,0-14.65-1.08c-12.92,4.42-26.16,7.93-39.15,12.14-6.84,2.2-11.14,1.93-13.07-6.56-3.67-16.06-7.9-32-12.76-47.8-2-6.6-.17-8.88,5.6-11.58,27.33-12.78,54.42-26.08,81.6-39.19,1.27-.62,2.68-1.93,3.86-1.72,12.84,2.47,25.63,6.39,35.79-6.89,1.47-1.93,4.23,2.39,5.21,5,10,26.62,29.09,47.37,45.19,70,4.17,5.79,5.12,9.49.7,15.77-11.12,15.83-21.24,32.37-31.78,48.62A2.6,2.6,0,0,1,1354.68,680.6Z"/><path class="cls-15" d="M1212.23,515.7c-7-5.59-14-11.23-21-16.75-3.75-2.94-6.53-5.33-1.14-9.65,16-13,31.78-26.41,51-42.47-2.41,21.64-4.2,39.47-6.42,57.25-2.92,23.17-3,23.17,18.84,32.82,2.33,1,5.48,1.31,7,6.89-25.85-2.43-50.41-4.77-75-7-7-.66-3.59-6.32-4.85-9.66l-.38.39c1-.79,2.91-1.53,3-2.39,1.14-13.71,8.42-12.86,17.78-7.82a21.77,21.77,0,0,0,5.38,1.35c3.61,2.24,8.63-.1,11.16,3A22.14,22.14,0,0,1,1212.23,515.7Z"/><path class="cls-16" d="M1215.26,390.61c8.92,4.79,18.55,1.22,27.78,2.34-6.43,5.79-14.26,2.93-21.23,2.55-9-.47-13.52,2.91-17.24,10.54-7.07,14.32-15.29,28.06-22.53,42.29-3.49,6.89-6.12,9.92-12.68,2.55-9.06-10.13-19-19.5-28.59-29.19l3.09-2.53c10.67-1.93,14,7.82,19.94,13,10.87,9.42,10.83,9.65,18-3.11,16.58-29.54,16.58-29.21-18.07-29.67-14.06-.2-28.46,2.81-42.18-2.82,0-3,3.16-5.68,1-9-1-1.54-1.52-3.86.7-4.21,2.74-.34,3,2.78,4,4.71,23-2.93,46.33-2.41,69.38-2.18C1203.16,385.92,1210.15,384.86,1215.26,390.61Z"/><path class="cls-17" d="M887.38,385.32l.93-4.84c15.3,9.46,20.73,25.79,28.8,39.74-.37.64,0,.31,0,.1-1.55-6.29-2.22-14.73,4.94-15.23,8.47-.58,5.31,8.8,6.23,14.25.24,1.37,0,2.82.26,4.13,14.11-3,23.62-13.69,35-21.08,4.25-2.76.7-5.91-2.49-7.22-10-4.09-19.3-9.85-30-11.8-3.87,2.05-2.78,8.28-8.86,9.54-4.83-8.53-6.36-16.91.25-25.52a6.56,6.56,0,0,1,1.77,0c4.08-.14,6.35,3,9.25,5L986,397.5c-21,14.56-40.21,27.84-59.51,41.26-5.79,4-7.22-.79-9.46-4.13q-12-17.89-23.9-35.85C889.37,395.13,884.48,391.87,887.38,385.32Z"/><path class="cls-18" d="M1358.81,287.3c-15.6,25.42-30.15,49.05-44.63,72.71-2.55,4.16-4.63,5.6-10.1,3-28.7-13.52-28.95-13.67-4.17-33.52,15.1-12.12,30.06-24.42,45.23-36.44C1348.25,290.62,1351,286.93,1358.81,287.3Z"/><path class="cls-19" d="M1283.87,499.2h78.65c3.45,0,6.6,1.08,6.52,5.62-.21,10.86-.19,21.73-.66,32.6-.25,5.79-4.22,5.48-8,3.42C1335.66,527.52,1311,514,1283.87,499.2Z"/><path class="cls-20" d="M1022.68,69.48c-17.82,18.65-34.75,36.18-51.46,54.06-3.86,4.17-6.89,3.86-10.66.77-6.89-5.54-20.29-8.24-20.4-15.44-.14-8.34,13.37-9.29,20.9-13.4,15.23-8.32,30.89-16,46.55-23.42C1011.47,70.31,1015.21,66.11,1022.68,69.48Z"/><path class="cls-21" d="M842.9,42.32,808.46,76.84c-2.26,2.26-4.24,3-7.12.42C789.89,67,778.17,56.9,763.21,43.73L841.28,39Z"/><path class="cls-17" d="M694.32,258.4c7.1-19.6,3.86-35-1.41-50.89-4-12.12,9.65-8.47,15.07-10.77,7.28-3.09,3.52,3.32,3.86,7.06,1.24,10.93,8.17,19.83,13.21,29.27,4,7.41,2.35,10.73-5,13.51S705.74,253.13,694.32,258.4Z"/><path class="cls-22" d="M934.42,620.68c-11.58-7.49-17.37-17.59-25.5-25.09-3-2.78-1.68-5.8.2-8.87,9-14.82,17.79-29.74,28.39-44.28C939.85,568.23,935.81,593.5,934.42,620.68Z"/><path class="cls-22" d="M365.91,395.73,443,405c-9.4,13.94-24.46,19-37.56,13.11q-18.6-8.38-37.07-17C367.73,400.77,367.59,399.59,365.91,395.73Z"/><path class="cls-23" d="M1180.59,527c-7.72-1-9.77-8.09-13.8-12.84-11.78-13.88-23.17-28.17-35.21-43,32.82-.62,49.78,19.57,48.65,56.21Z"/><path class="cls-24" d="M1109.22,45.68l20.12-25.38c1.79-2.26,3.72-4.75,6.91-2.42,13.34,9.89,26.6,19.89,42.18,31.55-14.17,3.26-24.57-.18-35-.76S1122.89,46.92,1109.22,45.68Z"/><path class="cls-25" d="M1243.12,412.66a199,199,0,0,1,32.82,39.78c5.79,9.23-8.59,10.37-12.8,16.08-2.61,3.52-6,1.55-7.22-2.37-5.5-17.37-10.87-34.61-16.28-51.93Z"/><path class="cls-26" d="M671.38,155.81c-11.41,10.39-22.74,20.85-34.3,31.06-3.86,3.4-5.79.83-6.6-3.12-1.61-8.36-3.13-16.76-4.68-25.1-.73-3.86.37-6.41,5-6.39h39.3Z"/><path class="cls-27" d="M656.92,393a5.31,5.31,0,0,1-2.33,6.56c-1.18-.5-2.88-1.76-3.44-1.37-5.94,4.13-13.51,6.29-17.95.87-4.67-5.79-2.67-14.71-1.18-21.93,1.41-6.87,8.8-3.71,13.4-4.87,5-1.27,7.35,3.11,8.55,7.44S652.41,389.32,656.92,393Z"/><path class="cls-20" d="M1478.09,671.78c-6.21,15.79-12.33,31.62-18.74,47.33a3.47,3.47,0,0,1-5.79,1.24c-6.18-5-15.06-8.88-17.71-15.35-2.49-6.12,7.73-8.9,12.49-12.93,8.77-7.55,18.27-14.27,27.45-21.24Z"/><path class="cls-22" d="M1342.38,278.88c1.12-16.74,0-32.47,4.13-51.25,9.77,14.15,14.1,27.37,19.71,39.88,1.8,4-1,5.79-4.84,6.54C1355.51,275.29,1349.76,277,1342.38,278.88Z"/><path class="cls-28" d="M1480,687.22c.33-13.51-1-25.73,2.15-38.61C1505.25,668.31,1502.45,669,1480,687.22Z"/><path class="cls-29" d="M680.65,223.59c15.29,19.15,20.5,18.49-7.72,31.06A97.29,97.29,0,0,1,680.65,223.59Z"/><path class="cls-30" d="M1354.68,680.6h3.26c10.64.14,12.76,4.69,7.49,13.71-2.76,4.71-4.84,9.8-7.72,15.54-7-5.79-7.43-13.71-10.93-19.89C1341.38,680.22,1347.77,680.1,1354.68,680.6Z"/><path class="cls-31" d="M1067.45,487.79c.48-1.93.91-4.32,1.6-6.58,1.58-5.25-1.93-13.4,4.17-15.45,5.27-1.73,8.71,6,13.51,8.85,5.8,3.39,5.37,6.81,0,10.34-4,2.61-7.72,5.56-11.58,8.25-1.93,1.27-3.55,3.68-6.18,2.37C1065.52,493.89,1067.55,490.72,1067.45,487.79Z"/><path class="cls-32" d="M748.58,194.27l-3.32-3.44a78.71,78.71,0,0,1,17.18-17.1l2.94,2.91C764.37,187,757.94,192,748.58,194.27Z"/><path class="cls-33" d="M887.38,385.32c1.31,4.75,8.63,6.91,5.79,13.52l-3,3.57a2.38,2.38,0,0,0-2.47,1c-5.21-1-6.58-4.88-7.13-9.4.33-3.61,1.18-7,4.25-9.38A6.18,6.18,0,0,0,887.38,385.32Z"/><path class="cls-33" d="M933.36,372.41c-3.86-.41-8.28.54-9.25-5,3.11-3-1.19-8.44,3.54-10.93C926.12,363,935,365.83,933.36,372.41Z"/><path class="cls-34" d="M1212.23,515.7a37,37,0,0,1,15.19,12.44l-21.1-9.66Z"/><path class="cls-9" d="M1209.12,241.78,1042.35,134.44c37.15-19.49,73-38.33,108.84-57.12C1170.86,67,1170.94,67,1175.67,88.54,1186.63,138.79,1197.6,189.06,1209.12,241.78Z"/><path class="cls-9" d="M1327.25,109.71l-112.93,132c-12.78-59.27-25.1-116-37.69-174.84Z"/><path class="cls-9" d="M1113.78,388.51l-90.17-116.33,183.95-21.64Z"/><path class="cls-9" d="M1205.38,245.62c-39.67,4.71-76.48,9.11-113.32,13.51-20.17,2.37-40.4,4.38-60.52,7.18-6.81.95-10.27,2.18-8.78-7.59,5.79-39.2,10.75-78.56,16.29-120.13Z"/><path class="cls-9" d="M888.59,166.93l145.21-29.49c-5.79,42.7-11.25,84.49-17,127.94Z"/><path class="cls-9" d="M1334.76,111.63l189.84,40.53c-60.77,15.85-118.71,30.89-176.6,46.1-4.21,1.12-7,1.72-7.39-4.26C1338.87,167.11,1336.8,140.23,1334.76,111.63Z"/><path class="cls-9" d="M1007.86,269.4c-38.19,0-76.35-.14-114.52.15-6.52,0-8-2.37-8-8.28.21-29.24.1-58.51.1-90l123,94.38Z"/><path class="cls-9" d="M1125.67,380.46,1213,251.83c15,20.93,29.2,40.72,43.45,60.45,2.16,3,3.59,4.9-1.26,7.29-42.46,21-84.82,42.3-127.21,63.51Z"/><path class="cls-9" d="M863.73,365.11c-5-9.32-12.72-13.51-23.3-15.73C816,344.2,791.67,338,767.71,330.87c-18.51-5.53-36.68-1.55-57.41-.2,15.25-13.84,29-26,44.84-35.83,5.43-3.37,7.55-.52,10.45,2.71,8.41,9.36,16.87,18.7,26.89,29.78,3.49-15.44-1.49-28-1.22-42.74L821,334.53c8.57-17.68,16.81-32.81,23.16-48.62,3.67-9.08,6.88-10,14.81-5,9,5.7,19,9.91,30.46,15.74l-50.38,20.63c8.53,6.95,17.1,8.71,25.09,10.54,12.65,2.9,16.2,8.52,9.14,19.68-4.37,6.89-3.32,13.33.85,19.74C870,370.19,867.15,366.11,863.73,365.11Z"/><path class="cls-9" d="M1329.81,114.77c1.94,28.57,3.46,53.57,5.8,78.49.61,6.76-1.93,9.29-7.53,11.2-34.56,11.93-69.09,24-106.72,37.06Z"/><path class="cls-9" d="M1020.66,276.85C1051,316,1078.94,352.14,1108.28,390c-31.45-2.92-60.46-5.8-89.52-8.13-6.75-.52-6.1-4.31-5.79-8.55C1015.42,342.25,1017.91,311.23,1020.66,276.85Z"/><path class="cls-9" d="M1217,248.69l115.38-40.54-68.45,105.17C1248.35,292,1233.27,271.14,1217,248.69Z"/><path class="cls-35" d="M887.22,274h123c-28.28,23.78-54.92,46-81.33,68.58-4.65,4-6.1,1.76-8.11-2.24C910.06,318.92,899.17,297.57,887.22,274Z"/><path class="cls-9" d="M1007.1,379.84,928.46,350l87.22-73.78C1012.68,312.2,1009.94,345.38,1007.1,379.84Z"/><path class="cls-36" d="M776.82,375.84c-.81,11.76,8,19.31,12.45,29,2.51,5.37,6,10.29,9.79,16.62-19.3-5-35.21-15.75-53.61-19.3-14.63-3.54-29.36-6.87-41.37-16.86-.29-9.65-12.2-12.21-13.3-21.44C707.33,355,724,346.44,740.34,337.2c6.16-3.5,9.4-3.57,12.74,3.38,4.69,9.65,10.48,18.86,15.79,28.24C770.72,372,772.36,375.48,776.82,375.84Z"/><path class="cls-9" d="M1215.26,390.61c-23.9-.15-47.81-.17-71.71-.6-5.41,0-11.24,1.93-16.26-1.93,41.49-18.05,81.08-40,121.62-59.72,2.53-1.24,5.12-2.3,10.31-4.62-6.72,22.22-12.94,42.47-19,62.93-1.41,4.77-5.11,3.23-8.09,3.42C1226.61,390.42,1220.94,390.44,1215.26,390.61Z"/><path class="cls-9" d="M1013.88,386.69l95.11,8.36-54.88,73.11C1040.79,441.21,1028.05,415.38,1013.88,386.69Z"/><path class="cls-37" d="M825.32,398.47c-9.93,4.38-11.59,15.6-19.31,23.26a307.84,307.84,0,0,1-24-42c.31-6.8-1.32-12.49-8.55-15l-18.92-31.23,93.72,23.26-3.69,10.52c.87,7.47-5.42,10.91-8.88,15.93-3.59,4.34-5,10-8.72,14.25Z"/><path class="cls-35" d="M1121.62,396.56h82.23c-8.55,15.67-17.16,30.69-25,46.12-3.3,6.46-5.59,4.18-9.17.75-8.51-8.21-17.21-16.2-25.82-24.27Z"/><path class="cls-33" d="M925.25,427.19V402c-8.24,8.79-3.28,17.38-6.17,25.62-10.72-16.41-20.74-31.78-30.77-47.12l-11.59-20.6c13.34-1.93,25.91-4.13,38.61-5.44,11.58-1.18,1.93,10.05,7.07,12.95a40.16,40.16,0,0,0,.23,22.76c3.38-11.58,3.38-11.58,8-11.83,9.81,8.88,11.76,19.13,4,30C930.39,414.2,934.44,424,925.25,427.19Z"/><path class="cls-38" d="M1448.38,130.58,1337.48,107c9.09-8.43,17.8-16.06,25.94-24.24,4.29-4.33,7.42-1.93,11,.33L1449,129Z"/><path class="cls-39" d="M874.68,180.85c-9.19,28.4-18.36,56.79-29.13,90.17-9.79-11.27-17-20.67-25.41-28.95-5-4.85-3.42-7.22.46-11.09,17.11-16.94,34-34.09,51-51.15Z"/><path class="cls-37" d="M1521.24,161.08,1435,232.76c8.44-20.15,15.45-36.47,22-52.93,1.64-4.09,4.32-5.6,8.28-6.6,18.21-4.66,36.35-9.56,54.52-14.37C1520.31,159.6,1520.77,160.35,1521.24,161.08Z"/><path class="cls-40" d="M1276.34,303.78l54.3-83.34,1.94.76c-3.87,18.28-7.88,36.52-11.59,54.82a10.8,10.8,0,0,1-5.23,7.84L1278.56,306Z"/><path class="cls-41" d="M843.62,274.77,820.74,324l-29.13-49.18Z"/><path class="cls-42" d="M880.39,188.84c0,24.85,1.49,49.83-.6,74.5-1.12,13.24-14.38,5.19-21.91,5.79-9.07.79-4.23-6.53-3.15-10,7.46-23.61,15.35-47.1,23.17-70.64Z"/><path class="cls-41" d="M896.28,303.18l23,45.58-43,5.79C882.92,337.54,889.06,321.73,896.28,303.18Z"/><path class="cls-43" d="M760.51,233.84,781,267H721.13Z"/><path class="cls-41" d="M803.15,141.35c.78-1.21.93-1.75,1.28-1.93,32.24-18.88,35.27-18,66.58,20.2-12.2-3.15-23.51-6-34.75-9C825.33,147.69,814.56,144.52,803.15,141.35Z"/><path class="cls-41" d="M722.62,270.81l55.26,3.3c-6.81,4.42-11.58,7.61-16.54,10.71C735.67,301.29,735.41,301.14,722.62,270.81Z"/><path class="cls-44" d="M848.35,191.47c-2.9-9.25-6.18-20.29-9.44-31.26-.22-.69.3-1.6.73-3.41,6.16,1.7,12.3,3.43,18.47,5.07,5.79,1.55,11.59,3,18.48,4.75Z"/><path class="cls-45" d="M677.17,407.31,671.09,396c-.34-9.65-4.82-20.6,8.21-26,2.82,8.8,11.35,9.49,18.1,12.72,3.11,1.62,6,3.45,6.68,7.3C704.3,412.29,696.63,417.23,677.17,407.31Z"/><path class="cls-46" d="M839.66,268.71H794.27c-.31-1.61-.63-2.22-.46-2.51C811.13,238,812,238.05,839.66,268.71Z"/><path class="cls-47" d="M847.8,125.24c5.91.79,11.93,1.6,17.94,2.37,30.09,3.86,30.09,3.86,13.86,33.49Z"/><path class="cls-37" d="M823.08,407.31c.75-2.93,1.48-5.89,2.24-8.82l-.37.37c4.32-4.41,7.08-9.87,10-15.22,4.21-5.48,7.72-11.48,12.87-16.21.85-.25,1.72-.49,2.61-.68a7.72,7.72,0,0,1,2.64,3.11,21.35,21.35,0,0,1,1.32,12,16.6,16.6,0,0,0-1.93,5.13c-1.06,15.89-1.06,15.89-16.06,16.06,4.42-.44,9.53.79,14.47-.79,3.86-2.24,1.93-7.72,5.56-10.09a6.53,6.53,0,0,1,4.25-.28c5,3.54,6.7,8.05,4.11,13.85C849.31,416.31,836.86,416.77,823.08,407.31Z"/><path class="cls-47" d="M827.57,154.85l-33.93,27.87c0-4.3-.22-6.93,0-9.51C796.65,139.71,788.37,141.55,827.57,154.85Z"/><path class="cls-48" d="M806.32,239.13c-4.71,6.83-8.36,12.24-12.12,17.55-2.15,3-4.48,5.91-7.42,9.75l-21-33.28Z"/><path class="cls-49" d="M1520.81,146c-7.72-1.68-15.56-3.38-23.36-5s-15.71-3.19-23.59-4.79c.18-1.12,0-2.26.51-2.86,12.58-15.23,12.58-15.21,28.78-3,6,4.5,12,8.94,18,13.51Z"/><path class="cls-50" d="M785.36,206.26c-18.31-42.82-18.79-29.93,5.17-55.66C788.75,169.56,787.15,186.84,785.36,206.26Z"/><path class="cls-51" d="M865,404.41,859.17,393a20,20,0,0,1,.14-23l4.69,1.48-.29-6.37,10.45,2.14,1.93,3.09c-.29,3.11-2.55,5.39-3.42,8.25-1.08,7.72,5.31,12.43,7.89,18.64,1.74,4.19,5.35,8-.19,12C874.21,411,868.44,411.36,865,404.41Z"/><path class="cls-50" d="M852.28,317.26l37.05-14.83C883.61,330.48,880.2,331.81,852.28,317.26Z"/><path class="cls-52" d="M785.08,275.83c-.42,13.51,4.19,24.57,2.28,38.3l-22.6-25.35Z"/><path class="cls-53" d="M735.18,334.2l-50.42,26.22C694.88,337.2,712.6,333.28,735.18,334.2Z"/><path class="cls-49" d="M833.87,162.15c3.65,11.71,6.54,21,9.46,30.32C819.43,191.24,818.66,189.17,833.87,162.15Z"/><path class="cls-54" d="M732.73,306.93a19.45,19.45,0,0,0-5.23,2.16c-6.52,5.23-12.88,10.69-20,16.68C710.84,298.53,710.84,298.53,732.73,306.93Z"/><path class="cls-45" d="M690.78,363.7c7,5.08,17,8,14.73,19.87-3.49,3.63-6.48-.56-9.75-.66-5.38-4.11-16.85-.58-15.92-12.63C686.23,372.66,685,362.37,690.78,363.7Z"/><path class="cls-55" d="M748.58,194.27l16.74-17.61c5.79,4.65,6.14,11.58,8.9,19C764.83,195.14,756.65,197.22,748.58,194.27Z"/><path class="cls-56" d="M700.92,325.61c-3.65-9.65-10.83-16.19-8.77-24.53.81-3.32,9.25-2.09,14.83-1.47-.81,4.23-1.45,8.23-2.36,12.18S702.6,319.46,700.92,325.61Z"/><path class="cls-57" d="M888.48,290.87,859,275.08C874.23,273.09,886.12,271.87,888.48,290.87Z"/><path class="cls-58" d="M687.37,307.7c3.86,8.61,7,15.44,10.3,22.68C682.44,332.2,682.44,332.2,687.37,307.7Z"/><path class="cls-59" d="M718.18,276.27l14.34,21.78C711.52,294,711.52,294,718.18,276.27Z"/><path class="cls-9" d="M870.74,375.61l5.38-5.27,8.71,14.19c-.42,2.94.7,6.33-2.53,8.42C872.86,390.9,871.32,383.59,870.74,375.61Z"/><path class="cls-36" d="M773.39,364.72c16,.7,16.54,1.63,8.55,15-2.2-.62-2.34-4.35-5.43-3.59Z"/><path class="cls-39" d="M859.33,370c0,7.72-.1,15.44-.14,23h-2.6c-6.28-6.56,1.2-16.64-5.93-23l-.23-3.32C855.8,361.25,856.92,367.39,859.33,370Z"/><path class="cls-17" d="M679.84,370.28c1.93,9.1,12.89,5.66,16.81,12l.23,1.35c-15.71-.56-20.27-4.11-17.58-13.72Z"/><path class="cls-60" d="M847.82,367.41c-4.15,5.46-4.78,13.22-11.25,17.18-2.63.66-4,0-3-3q5.46-7.15,10.92-14.35Z"/><path class="cls-45" d="M671.44,395.84l-.73,11.39c-8-1.73-5.79-9.07-7.73-14.13l-.52-2.91c2.59,0,2.63-9.65,7-1.93A29.67,29.67,0,0,1,671.44,395.84Z"/><path class="cls-9" d="M211.92,74.14c40.54-21.91,81.31-43.73,121.79-65.91,4.83-2.62,6.24-1.08,8.46,2.78,10.13,17.51,20.54,34.87,32,54.25L213.06,75.76Z"/><path class="cls-9" d="M330.62,138.44c10.87,30.29,21,58.49,31.68,88.37L242.9,211.37Z"/><path class="cls-9" d="M572.27,529.16,489.88,644.21c-5-29-9.3-55.55-14.19-82-1.29-7,3.48-6.43,7.28-7.51Z"/><path class="cls-9" d="M469.46,263.3l-95,103.84c-7.06-21.06-13.26-40.12-20-59-1.39-3.86-1.77-5.69,2.55-7.24Q412.64,281.06,468.2,261Z"/><path class="cls-9" d="M325.27,136.14l-86.86,72.2c-6-27.12-11.84-53-18-80.6Z"/><path class="cls-9" d="M475.33,551.34c3.65-28.76,7-55.4,10.63-84.05l86.35,56.39Z"/><path class="cls-35" d="M347.53,296.31,245.88,217.16c37.91,4.81,73.35,9.48,108.68,13.52,6.87.81,8.78,2.12,6.76,9.45C356.3,258.11,352.34,276.41,347.53,296.31Z"/><path class="cls-9" d="M382.92,504.87l97.5-38c-3.18,26.91-6.12,52.61-9.28,78.3-1.16,9.46-6.35,2.55-8.73,1.33C436.37,533.16,410.52,519.41,382.92,504.87Z"/><path class="cls-9" d="M240.08,219.13l101.53,79.32c-29,2.2-55.27,3.86-81.47,6.28-6.52.58-8-2.61-8.7-7.72C247.83,272.18,244.22,247.49,240.08,219.13Z"/><path class="cls-61" d="M229.93,211.7l-94.07,14.94V146.1Z"/><path class="cls-61" d="M352.73,296.75c4.88-20,9.3-37.66,13.51-55.4,1-4.19.75-8.72,7.39-7.37,31.72,6.5,63.46,12.83,98.88,20Z"/><path class="cls-61" d="M45.55,125.8c14.56,18.1,27.36,34.57,40.81,50.46,4.81,5.67,2.4,7.31-2.56,10.09C59.11,200.23,34.55,214.4,7.35,230Z"/><path class="cls-35" d="M232.44,207.12l-93.22-65.19c24.88-4.73,47.41-8.74,69.82-13.37,7.92-1.63,7.26,4.57,8.13,8.37C222.32,159.4,227,182,232.44,207.12Z"/><path class="cls-39" d="M233.6,121.61,371.72,73c-13.94,19.78-26.25,37-38.14,54.36-3.56,5.19-8.25,3.67-12.69,3.32C291.94,128.48,263,126,234,123.63Z"/><path class="cls-35" d="M129.9,222.76c-27.28-34.15-52-65.11-78.32-98,25.56,5.79,48.72,11,71.64,16.18,4.88,1.08,6.89,3.32,6.81,8.67C129.72,172.67,129.9,195.79,129.9,222.76Z"/><path class="cls-35" d="M481.39,655.74c-26,34.59-50.1,66.52-73.36,97.35,0-22.84.16-46.21-.11-69.59,0-5.79,1.93-8.25,7.49-9.65C436.43,668.32,457.26,662.4,481.39,655.74Z"/><path class="cls-9" d="M409.17,670.14c4.36-27.3,8.5-53.18,12.28-76.76l60.48,56.84Z"/><path class="cls-39" d="M475.75,249.13,372.49,228.55c17.8-14.28,33.55-26.73,49.23-39.38,4.23-3.4,5.79.29,7.72,2.68C444.32,210.21,459.13,228.57,475.75,249.13Z"/><path class="cls-35" d="M443.92,15.9l-64.42,48c-11.45-19.31-22.43-37.82-34.75-58.53Z"/><path class="cls-35" d="M291,364.13l-35.89-54.06,87.86-6.31Z"/><path class="cls-39" d="M365.08,442.06,247.32,391.13c13.25-6.14,25.6-11.75,37.84-17.58a7.27,7.27,0,0,1,9,1.25q36.21,32.51,72.54,64.75C366.16,440.4,365.62,441.27,365.08,442.06Z"/><path class="cls-42" d="M295,367.39l52.95-61.22,21.33,61.22Z"/><path class="cls-62" d="M481.14,641.14c-11.39-11.79-22.94-23.41-34.09-35.4C440.1,598.27,427.18,592,428.21,583c.63-5.66,15.67-9.65,24.32-14.38,17.22-9.35,17.37-9.36,20.81,9.23,3.67,20.36,6.85,40.79,10.25,61.19Z"/><path class="cls-39" d="M383.11,511l83.45,43.89c-14.17,7.73-27,14.29-39.47,21.59-5.91,3.43-7.3-.37-9.42-4.17C406.72,552.81,395.66,533.35,383.11,511Z"/><path class="cls-38" d="M139.34,231.49l91.34-14.77c-12.2,16-23.53,30.38-34.3,45.19-3.86,5.39-6.66,2.72-10.31.29C171.59,252.59,157,243.09,139.34,231.49Z"/><path class="cls-42" d="M237.75,376.15l-38.9-99c17,11.06,30.89,20.19,44.81,29,4.86,3.05,3.39,7.29,3,11.29-2.14,19.3-4.44,38.61-6.7,57.91Z"/><path class="cls-39" d="M234.89,219.92c4.19,28.59,8,54.23,12.07,82.24-16-10.48-30.29-20-44.75-29.34-4.32-2.8-3.86-5.16-1-8.94C212,250.21,222.44,236.27,234.89,219.92Z"/><path class="cls-42" d="M467.66,466.19l-87.25,34c3.2-13.22,6.37-24.86,8.72-36.68,1.35-6.71,5.93-5,9.79-4.69,22.86,1.66,45.69,3.54,68.53,5.35Z"/><path class="cls-37" d="M243.87,386.69c2.78-24.42,5.29-46.33,8.18-71.67,12.55,18.86,23.3,35,34.75,52.12Z"/><path class="cls-37" d="M452.3,153.05l-28.59,25c-12.8-18.88-26.45-39.07-42.32-62.52Z"/><path class="cls-63" d="M428.21,737.41c2.37,17.67,4.55,33.92,6.73,50.2-3.86.56-5.25-2.48-7.27-4.15C402.9,762.74,402.92,762.72,428.21,737.41Z"/><path class="cls-9" d="M883.32,574.51,783.19,510.14l128.94-53.82C902.26,496.84,893,534.72,883.32,574.51Z"/><path class="cls-9" d="M677.17,407.31c3.65.39,7.73,1.93,10.85.91,5.58-1.93,21.14,3,10.87-12.94-.44-.69,2.41-3.49,3.75-5.32,3.47-.95,5.79.9,7.72,3.32,3.55,7.72,9.9,10.36,18.09,10.29,5.94,0,12.18-.82,17.37,3.51l53.59,20.65c-36.83,17.2-71.14,33-105.25,49.29-7.1,3.4-7.28-1.76-7.84-5.43C683,450.2,680.17,428.74,677.17,407.31Z"/><path class="cls-9" d="M781.75,505c8.22-23.51,15.71-44.4,22.68-65.33,1.93-5.6,2.91-9,10.4-7.29,29.33,6.79,58.82,12.83,92.66,20.07Z"/><path class="cls-9" d="M780.34,514.64,877.46,577c-30.2,3.87-57.92,7.28-85.6,11.28-6.83,1-6.62-2.43-6.91-7C783.54,559.68,782,538.06,780.34,514.64Z"/><path class="cls-9" d="M822.73,662.22c-11.39-21.71-21.85-42.21-32.82-62.43-4.19-7.72,1.93-6.6,5.43-7.06,27.12-3.51,54.24-6.82,83.85-10.48Z"/><path class="cls-39" d="M865,404.41c5.65,3.54,11.79,3.17,18,2.3l1.93.64,25.21,40.33L809.74,426l13.51-18.75A54.89,54.89,0,0,0,865,404.41Z"/><path class="cls-39" d="M776.71,504l-34.08-43.77,58.42-27.6C792.63,457.37,785,479.68,776.71,504Z"/><path class="cls-41" d="M663,393.1c5.08,3.34,3.63,10.23,7.73,14.13,3.55,21.24,7.12,42.69,11.29,67.57-12-14.52-21.89-26.62-31.91-38.61-3-3.53-1.93-6.89-.41-10.52C654.18,414.9,658.56,404,663,393.1Z"/><path class="cls-47" d="M844.81,694.79c-22.7-29.55-22.56-30.89,5.48-60C848.5,654.5,846.74,673.71,844.81,694.79Z"/><path class="cls-64" d="M910,489.35c9.66-42,2.76-35.3,32.32-34.74Z"/><path class="cls-45" d="M745.76,407.08c-7.51,0-15,.1-22.53.25-9.65.19-15.09-4.09-15-14.21,14.44-3,25.35,5.33,36.91,11.58A9.67,9.67,0,0,0,745.76,407.08Z"/><path class="cls-65" d="M745.16,404.65c-12.91-1.93-23.64-10.72-36.91-11.59l-5.65-3.12-5.79-6.3a.9.9,0,0,1-.31-1.24l.07-.11,8.87,1.26c12.49,7.93,28.18,8.9,39.94,18.43A3.2,3.2,0,0,1,745.16,404.65Z"/><path class="cls-66" d="M884.83,407.31c-.64-.19-1.29-.41-1.93-.64C881.61,399,874,395,871.41,388.1c-1.48-3.86-7.45-8-.75-12.53L882.24,393l5.41,10.36C886.74,404.67,885.78,406,884.83,407.31Z"/><path class="cls-9" d="M610.19,12.09C593.72,34.89,578.05,56.16,563,77.84c-3.73,5.39-6.47,3.07-10.19,1.08-28.71-15.23-57.43-30.5-89.56-47.54Z"/><path class="cls-9" d="M660.26,67.17,536.72,175c8.45-29,16.21-55.25,23.72-81.6a9.64,9.64,0,0,1,7.72-7.18q45.24-10.84,90.46-21.6Z"/><path class="cls-35" d="M488.18,91.2l68.5-3.2c-8.65,29.38-16.9,57.43-25.89,87.85Z"/><path class="cls-35" d="M566.42,81.53C583.14,58.37,597.85,38.31,612.29,18c3.44-4.9,6-4,10-.62,15,12.84,30.39,25.33,47,39.13Z"/><path class="cls-67" d="M460.52,35.93l88.14,46.51c-21.48,3-40.75,2.37-59.84,3-5.38.17-5.79-4.48-7.3-7.37C474.67,65.18,468.46,52.11,460.52,35.93Z"/><path class="cls-42" d="M453.67,33.75C462.28,51.13,470.21,67,479,84.64L407.82,72Z"/><path class="cls-68" d="M1326.13,598l22.41-23.46c1.93,34.08,3.61,65.39,5.46,98.9L1289.84,637l16.67-18.74C1310.45,609,1317.4,602.61,1326.13,598Z"/><path class="cls-35" d="M1218.53,594.29,1302.19,554c-5,21.24-9.42,40.37-14,59.58-4.67,19.8-4.69,19.8-22.25,9.19Z"/><path class="cls-37" d="M1303.56,615.18l-13.22,12.2c5.79-24.32,11.21-46.33,16.08-68.32,1.48-6.74,4.61-5.23,8.76-3.32,10.16,4.65,20.37,9.21,31.18,14.09l-23.17,25.1C1319.14,604.06,1312.13,610.39,1303.56,615.18Z"/><path class="cls-37" d="M1359,670.12c-1.55-31.83-2.92-59.84-4.46-91.77,12,16.19,21.87,29.47,31.67,42.79a5,5,0,0,1,0,6.39C1377.65,640.68,1369.25,653.94,1359,670.12Z"/><path class="cls-37" d="M1277.33,636.38a65.55,65.55,0,0,1-9.66,3.68c-12.43,2.51-26.64,13.84-35.79,8.17-7.72-4.77-7.6-22.1-10.88-33.9-1.12-4-1.93-8.05-3.5-14.23,18.32,10.85,34.75,20.6,51.29,30.45C1271.61,632.19,1274.16,634.17,1277.33,636.38Z"/><path class="cls-69" d="M1303.56,615.18A104.46,104.46,0,0,1,1323.29,595l2.9,3a104.51,104.51,0,0,1-19.68,20.29Z"/><path class="cls-70" d="M1346,563.27l-16.18-6c0-5.35,4.64-9.1,7.48-8.73C1343.1,549.31,1342,556.3,1346,563.27Z"/><path class="cls-62" d="M1226.94,519.53l-33.68-25.74,41.44-35C1232,479.89,1229.61,498.81,1226.94,519.53Z"/><path class="cls-71" d="M1230,535.76c-12.47-1.08-24.92-2.26-37.39-3.18-3.86-.27-7.14-1.05-4.94-5.54,1.41-2.9.15-9.66,7.72-6.57,11.58,4.73,23.38,8.79,35.09,13.13Z"/><path class="cls-62" d="M925.25,427.19c3.34-9.32,3.46-19.42,10-28.1,5.29-7-4.36-13.52-4.65-20.77l45.54,19.82-47.24,32.34C923.48,434.09,925.39,429.49,925.25,427.19Z"/><path class="cls-47" d="M1287.52,346.31l51.77-41.54,1.66,1.52c-9.8,15.87-19.73,31.66-29.3,47.66-2.49,4.17-4.61,5-8.67,2.15C1298.39,352.83,1293.46,350.07,1287.52,346.31Z"/><path class="cls-37" d="M1363.35,536.13l-59.07-31.82c17.12,0,34.13.18,51.13,0,5.79,0,8.61,1.32,8.09,7.88C1362.9,519.41,1363.35,526.8,1363.35,536.13Z"/><path class="cls-47" d="M1001.45,83.83Q991,95,980.43,106.16C966,121.37,966,121.37,946.31,108.65L1000.37,82Z"/><path class="cls-72" d="M778.37,49.06c17.89-3.55,34.74-3.17,50.94-3.53,1.76,2.7-.19,3.26-1,4.11C804.33,74.6,804.33,74.6,778.37,49.06Z"/><path class="cls-53" d="M702.31,248.09c2.24-10.75,4.3-20.83,6.41-31C726,237.61,725.76,239.05,702.31,248.09Z"/><path class="cls-73" d="M705.76,202.12a20.44,20.44,0,0,1-3.86,14.17C698.74,210.87,693.64,205.33,705.76,202.12Z"/><path class="cls-63" d="M932.71,560c1.93,16.35-3,31.91-2.34,47.82C909.69,595.1,909.93,590.1,932.71,560Z"/><path class="cls-64" d="M392,404.09l38.46,4.2C415.7,425.73,404.4,408.22,392,404.09Z"/><path class="cls-74" d="M1144.51,479.26c18.67,5.5,33.21,12.06,28.55,34.22Z"/><path class="cls-75" d="M1119.69,41.72c15.83-22.27,15.83-22.27,42.23,3.52Z"/><path class="cls-76" d="M1260.82,463.56l-10.13-31.87C1272.75,450.05,1274,453.83,1260.82,463.56Z"/><path class="cls-53" d="M635.34,180c-3.47-22.55-3.47-22.55,25-22.74A126.59,126.59,0,0,1,635.34,180Z"/><path class="cls-52" d="M1467.22,685.29c-4.55,11.47-7.93,20-11.35,28.65C1440.54,704.69,1434.46,707.47,1467.22,685.29Z"/><path class="cls-77" d="M1351.47,247.26c2.38,5.13,4.62,10.33,7.17,15.44,1.1,2.24,2.43,4.87.17,6.28a13.77,13.77,0,0,1-8.15,1.67c-3.39-.28-1.93-3.47-2-5.57V247.26Z"/><path class="cls-78" d="M1354.93,699.11c1.93-5.79-6.14-8.35-.6-12.29,1.39-1,6-.37,6.35.56C1362.07,691.08,1359.74,694.06,1354.93,699.11Z"/><path class="cls-79" d="M1074,490c-.85-8.24-.19-12.53,3.38-15.69.29-.25,4.64,2.47,4.92,4.17C1083.3,484.53,1076.6,483.47,1074,490Z"/><path class="cls-80" d="M833.58,381.62l3,3c-2.41,5.94-3.17,13.24-11.58,14.25C824.21,391.33,830.82,387.41,833.58,381.62Z"/><path class="cls-39" d="M853.42,404.47H830.1c3.3-4.32,6.84-3.11,9.56-2.72,11.23,1.56,12.51-6.23,9.25-12.51-3.87-7.37.32-6.66,4.47-7.59A36.63,36.63,0,0,1,853.42,404.47Z"/><path class="cls-51" d="M853.42,404.47V381.65c-1.7-3.66-3.28-7.39-2.72-11.58,9.85,5.62,4.11,15.27,5.91,23C855.91,396.94,857.82,401.52,853.42,404.47Z"/></g></g></g></g></g></svg>