<svg xmlns="http://www.w3.org/2000/svg" viewBox="0 0 797.09 717.44"><defs><style>.cls-1{fill:#fff;}.cls-2{fill:#020203;}.cls-3{fill:#161616;}.cls-4{fill:#171717;}.cls-5{fill:#1a1b1b;}.cls-6{fill:#1c1c1c;}.cls-7{fill:#1f1f1f;}.cls-8{fill:#303030;}.cls-9{fill:#232323;}.cls-10{fill:#272828;}.cls-11{fill:#2b2b2c;}.cls-12{fill:#2a2a2a;}.cls-13{fill:#2f2f2f;}.cls-14{fill:#292929;}.cls-15{fill:#252526;}.cls-16{fill:#232424;}.cls-17{fill:#262626;}.cls-18{fill:#383838;}.cls-19{fill:#eaeaea;}.cls-20{fill:#2d2d2e;}.cls-21{fill:#2f3030;}.cls-22{fill:#3c3c3c;}.cls-23{fill:#343434;}.cls-24{fill:#474847;}.cls-25{fill:#e9e9e9;}.cls-26{fill:#c9c7c7;}.cls-27{fill:#fefefe;}.cls-28{fill:#fdfdfd;}.cls-29{fill:#f8f8f9;}.cls-30{fill:#fafafa;}.cls-31{fill:#fbfafb;}.cls-32{fill:#fcfcfc;}.cls-33{fill:#f9f8f9;}.cls-34{fill:#f8f8f8;}.cls-35{fill:#fbfbfb;}.cls-36{fill:#f8f7f8;}.cls-37{fill:#f5f5f5;}.cls-38{fill:#e7e7e7;}.cls-39{fill:#f0efef;}.cls-40{fill:#f7f7f7;}.cls-41{fill:#f4f3f4;}.cls-42{fill:#f3f2f3;}.cls-43{fill:#f0f0f0;}.cls-44{fill:#e3e3e3;}.cls-45{fill:#efefef;}.cls-46{fill:#edeced;}.cls-47{fill:#e8e8e8;}.cls-48{fill:#e3e2e3;}.cls-49{fill:#e9e8e9;}.cls-50{fill:#d2d1d1;}.cls-51{fill:#cfcece;}.cls-52{fill:#cdcbcc;}.cls-53{fill:#2d2d2d;}.cls-54{fill:#fefdfe;}.cls-55{fill:#f9f9f9;}.cls-56{fill:#f4f4f4;}.cls-57{fill:#e8e7e8;}.cls-58{fill:#595959;}.cls-59{fill:#4e4e4e;}.cls-60{fill:#faf9fa;}.cls-61{fill:#fdfcfd;}.cls-62{fill:#424242;}.cls-63{fill:#dddcdc;}.cls-64{fill:#e5e5e5;}.cls-65{fill:#f7f6f6;}.cls-66{fill:#dcdbdb;}.cls-67{fill:#e9e8e8;}.cls-68{fill:#eae9ea;}.cls-69{fill:#e2e2e2;}.cls-70{fill:#edecec;}.cls-71{fill:#e3e2e2;}.cls-72{fill:#e0dfdf;}.cls-73{fill:#727272;}</style></defs><g id="Calque_2" data-name="Calque 2"><g id="Calque_1-2" data-name="Calque 1"><path d="M276.84,707.48c-.08-10-12.64-21.13-22.54-19.61-27,4.16-52.25-.76-76.28-13.66-3.56-1.91-9.21-2-13.18-.75-25.54,8.12-50.25-5-56.63-30.54-2.86-11.45.54-19.49,9.35-22.15,9.12-2.75,15.34,1.65,18.84,13.73,2.33,8,7,13,15.74,11.55,7-1.18,11.11-6.18,10.81-13.19-.38-8.69-5.76-12.55-14.48-12.83-12.19-.39-18.41-6-18.06-15.32.34-8.88,7.81-14.45,19.39-14.45,23.66,0,42.42,18.16,42.27,42.12,0,7.81,2,12.79,9.41,14.76,10.62,2.82,21.23,6,32.05,7.63,10.14,1.56,20.14.89,24.74-11.3a12.08,12.08,0,0,1,6.48-6.49s14.14-8.91,15.72-5.75S276.84,707.48,276.84,707.48ZM149.75,667.6c18.86,0,34.54-15.31,34.7-34,.16-19-16.21-36-34.76-35-3.75.2-7.28,4.41-10.92,6.77,3.36,2,6.55,5.52,10.09,5.91C161,612.6,169.29,618.8,171,629.35c1.82,11.47-5.07,22.23-15.7,24.5-12.87,2.73-22.45-3.62-26.89-16.66-1.14-3.34-5.23-5.67-8-8.46-1.41,4-4.6,8.29-3.92,11.87C119.61,657,133.26,667.55,149.75,667.6Zm104.12,11.65c-3.34-6.4,1.32-16.54-8.58-16.15-19.51.77-37.77-2.4-55.35-12.12-3.46,4.84-6.54,9.17-10.15,14.23C202.9,678.51,226.31,684.25,253.87,679.25Z"/><path d="M280.56,607.36c14.78-44.69,45.55-71.52,91.91-80.31,4.38-.83,8.79-1.5,14.37-2.44,0-11.16.05-22.15-.07-33.15,0-1.22-.66-3.2-1.5-3.52-14-5.27-3.25-8.2,1.63-11.37-10.24-6.37-10.34-8.12-1.35-13-17.06-9.51-22.58-18.69-19.45-32.39A26.13,26.13,0,0,1,390,411.44a25.5,25.5,0,0,1,25.55,18.82c4,13.79-.65,22-18.49,33.15,1.83,2.17,5.43,4.66,5.12,6.49-.39,2.35-3.94,4.17-6.56,6.63,4.48,3.38,14,7.24.52,11.84-.73.25-1.11,2.45-1.12,3.75C395,502.79,395,513.46,395,521c20.52,7.86,40.17,12.91,57.28,22.49,27.15,15.21,44.08,39.88,50.78,70.34L506.59,700c0,5.51,0,11,0,17.46h-231c0-9.22-.62-18.17.16-27Zm110.25,103v.09q49.38,0,98.75,0c5.28,0,9.59-.1,9.39-7.42-.69-25.92.87-52.07-1.94-77.75-5.53-50.57-51.11-90.81-101.15-91.9-54.14-1.19-101.69,35-109.56,86.85-4,26.11-1.62,53.14-2.7,79.74-.34,8.32,2.4,10.63,10.55,10.53C326.37,710.16,358.59,710.4,390.81,710.4Zm.48-289.94a17.2,17.2,0,0,0-17.39,16.86c0,8.81,7.6,16.74,16.29,17a17.06,17.06,0,0,0,17.74-16.55C408.27,428.06,401.11,420.6,391.29,420.46Z"/><path class="cls-1" d="M149.75,667.6c-16.49-.05-30.14-10.63-33.26-27-.68-3.58,2.51-7.9,3.92-11.87,2.74,2.79,6.83,5.12,8,8.46,4.44,13,14,19.39,26.89,16.66,10.63-2.27,17.52-13,15.7-24.5-1.68-10.55-9.93-16.75-22.11-18.08-3.54-.39-6.73-3.86-10.09-5.91,3.64-2.36,7.17-6.57,10.92-6.77,18.55-1,34.92,16,34.76,35C184.29,652.29,168.61,667.65,149.75,667.6Z"/><path class="cls-1" d="M253.87,679.25c-27.56,5-51-.74-74.08-14,3.61-5.06,6.69-9.39,10.15-14.23,17.58,9.72,35.84,12.89,55.35,12.12C255.19,662.71,250.53,672.85,253.87,679.25Z"/><path class="cls-1" d="M390.81,710.4c-32.22,0-64.44-.24-96.66.17-8.15.1-10.89-2.21-10.55-10.53,1.08-26.6-1.26-53.63,2.7-79.74,7.87-51.87,55.42-88,109.56-86.85,50,1.09,95.62,41.33,101.15,91.9,2.81,25.68,1.25,51.83,1.94,77.75.2,7.32-4.11,7.44-9.39,7.42q-49.38-.1-98.75,0Z"/><path class="cls-1" d="M391.29,420.46c9.82.14,17,7.6,16.64,17.33a17.06,17.06,0,0,1-17.74,16.55c-8.69-.28-16.28-8.21-16.29-17A17.2,17.2,0,0,1,391.29,420.46Z"/><path class="cls-2" d="M385.43,573.14l10.46,0a60.25,60.25,0,0,1,23.33,7.07,27.7,27.7,0,0,0-6.29,8c-.81,1.71-2,.14-2.8-.19-17.34-6.78-33.76-5.13-48.93,5.67a48.69,48.69,0,0,0-18.61,52.25,49.31,49.31,0,0,0,42.11,36.3c32.07,3.52,58.49-22.67,55.06-54.63a42.4,42.4,0,0,0-3.05-12c-.62-1.47-.35-2.18,1.13-2.74a13.72,13.72,0,0,0,5.71-4c1.47-1.73,2-1.16,2.79.6,12,27.26,1.36,60.23-24.47,75.55-36.73,21.79-83.57.58-91.23-41.29-6-32.77,17.31-65.19,50.26-70Z"/><path class="cls-2" d="M390.63,605.93c15.22,0,27.73,12.44,27.62,27.39a27.7,27.7,0,0,1-55.4-.24A27.41,27.41,0,0,1,390.63,605.93Z"/><path class="cls-2" d="M417.73,595.76a12.51,12.51,0,0,1,12.49-12.61,12.59,12.59,0,1,1,0,25.18A12.51,12.51,0,0,1,417.73,595.76Z"/><path d="M499.26,631.23C500.83,628.07,515,637,515,637a12.08,12.08,0,0,1,6.48,6.49c4.59,12.19,14.6,12.86,24.74,11.3,10.82-1.66,21.43-4.81,32-7.63,7.46-2,9.45-6.95,9.4-14.76-.14-24,18.62-42.14,42.27-42.12,11.59,0,19.06,5.57,19.39,14.45.36,9.35-5.87,14.93-18.06,15.32-8.71.28-14.1,4.14-14.47,12.83-.31,7,3.78,12,10.8,13.19,8.78,1.46,13.41-3.51,15.74-11.55,3.51-12.08,9.73-16.48,18.85-13.73,8.81,2.66,12.2,10.7,9.35,22.15-6.38,25.58-31.09,38.66-56.63,30.54-4-1.26-9.62-1.16-13.18.75-24,12.9-49.25,17.82-76.28,13.66-9.9-1.52-22.47,9.66-22.54,19.61C502.89,707.48,497.68,634.38,499.26,631.23Zm164,9.37c.68-3.58-2.51-7.9-3.92-11.87-2.73,2.79-6.82,5.12-8,8.46-4.45,13-14,19.39-26.89,16.66-10.63-2.27-17.52-13-15.7-24.5,1.67-10.55,9.93-16.75,22.11-18.08,3.53-.39,6.73-3.86,10.08-5.91-3.63-2.36-7.17-6.57-10.91-6.77-18.56-1-34.93,16-34.76,35,.16,18.69,15.84,34,34.69,34C646.46,667.55,660.12,657,663.23,640.6Zm-63.29,24.61c-3.61-5.06-6.69-9.39-10.15-14.23-17.58,9.72-35.84,12.89-55.35,12.12-9.9-.39-5.24,9.75-8.58,16.15C553.41,684.25,576.83,678.51,599.94,665.21Z"/><path class="cls-1" d="M630,667.6c16.49-.05,30.15-10.63,33.26-27,.68-3.58-2.51-7.9-3.92-11.87-2.73,2.79-6.82,5.12-8,8.46-4.45,13-14,19.39-26.89,16.66-10.63-2.27-17.52-13-15.7-24.5,1.67-10.55,9.93-16.75,22.11-18.08,3.53-.39,6.73-3.86,10.08-5.91-3.63-2.36-7.17-6.57-10.91-6.77-18.56-1-34.93,16-34.76,35C595.44,652.29,611.12,667.65,630,667.6Z"/><path class="cls-1" d="M525.86,679.25c27.55,5,51-.74,74.08-14-3.61-5.06-6.69-9.39-10.15-14.23-17.58,9.72-35.84,12.89-55.35,12.12C524.54,662.71,529.2,672.85,525.86,679.25Z"/><g id="tkzClA.tif"><path class="cls-3" d="M395,90c7.14-7.23,12.58-15.72,21.79-21.4C429,61.05,441.28,62,454.2,63.8c11.66,1.64,11.66,1.57,7.65,12.77-.74,2.06-1.37,4.17-2.4,7.3,16-3.23,31.27-7.42,46.79-9.22,35.87-4.16,64.2-25.44,95.29-40.43,4.24-2,7.82-2.67,12.32-1.34,23.21,6.86,46.52,13.41,69.75,20.21,4,1.19,7,1.19,10.41-2.19,4.6-4.57,8.75-12.17,14.94-12,5.54.14,11,5.8,16.4,9.12,9.82,6,19.76,11.86,29.33,18.26,4.09,2.73,6.7,2.89,9.25-1.53,3.73-6.47,7.93-6.79,13.57-1.66,5.23,4.77,11.3,8.61,17,12.9,1.59,1.21,4.31,2.17,1.19,4.75-18.51,15.28-37,30.61-57.12,45,4.57-11.19,9.13-22.39,14-34.26-18.44,4.68-36.12,9.28-53.87,13.58-4.45,1.08-4.64,4.56-5.34,7.71-2.17,9.79-4.31,19.61-6,29.5-.59,3.53-1.7,6.18-5,7.39-22,8-32.29,24.92-35.88,47-.39,2.37-1.61,4.6-2.45,6.89a30,30,0,0,1-14.38.07c-.15-4,3.16-3.17,5.16-3.19,4.52,0,6.53-2.31,7.62-6.36,1.9-7.05,5.18-13.71,6.25-20.94-1.91-1.8-3.43-.38-4.79.34-16.19,8.63-32.92,16.18-49,25-3,1.65-6.07,3.2-9.59,3.22-4.53-1.17-.83,2.33-1.74,3.2,1.64,5.45,9,6.4,9.84,12.45-.47,1-1,1.79-2.32,1.13-3.39-3.15-7-6.11-10.12-9.52-2.77-3-4.34-2.55-6.61.56-8.26,11.28-16.82,22.33-25.11,33.6-2.64,3.6-4.07,4.08-6.23-.51-6-12.84-12.39-25.51-18.72-38.2-1-2.08-1.64-4.4-4.49-5.41-13.08-4.65-25.7-10.59-39.13-14.31-1.86,1.64.25,4.19-1.35,5.89a2.29,2.29,0,0,1-2-.16c-1.38-3.66-3.59-5.31-7.83-4.36-3.53.79-7.23.92-11.13,2.08,0,3.25,3.1,5.56,2.83,8.79a5.46,5.46,0,0,1-.61,2,2.43,2.43,0,0,1-1.86.78c-3.25-1.35-3.81-4.86-5.82-7.2a20.82,20.82,0,0,1-1.73-2.62,10.78,10.78,0,0,1-.35-10.61c2.47-4.74.49-6.54-3.89-7.63a55.35,55.35,0,0,1-6.21-2.31c-2.48-.94-5.92-1.52-5.81-4.74.12-3,3.5-3.81,5.94-4.82,4.72-2,9.76-3.21,14.72-6.37-2.8-2.81-6.37-3.76-9.43-5.51-3.5-2-6-1.17-7.7,2.5-2.4,5.11-5.22,10-7.41,15.22-1.22,2.89-1.87,6.84-5.62,7s-4.67-3.84-6.36-6.41a102,102,0,0,1-7.07-13.13,23.41,23.41,0,0,1,.82,11.75c-.75,4.57-3.35,5-6.78,2.48-2.59-1.93-4.13-4.84-6.28-7.19-5.43-5.93-7.23-6.16-13.67-1.64a92.19,92.19,0,0,0-12,10.23c23.56-2.9,44.48,7.64,66.54,11.86,4.09.78,6.43,4.27,8.29,7.86.42,2.45,1.27,5.16-2.91,4.85-1.89-.9-3.54-2.57-5.95-1.95a5.11,5.11,0,0,1-1.9-.34,3.36,3.36,0,0,1-1.29-1.48c-.69-2.67-2.48-4-5.1-4.71-11.86-3-23.72-5.94-36.56-9.14,1.92,5,4.95,8.34,6.59,12.33.85,1.95,1.89,3.85,1.32,6.1a1.81,1.81,0,0,1-1.6,1.1c-6.46-2.61-7.54-9.37-10.61-14.42-2.82-4.64-5.14-5.48-9.92-3-7.4,3.85-14.7,7.88-22,11.93-2,1.06-3.54,2.79-5.68,3.57-.56.28-1.13.54-1.69.81-3,2.73-1.45,6.7-2.71,9.89a3.39,3.39,0,0,1-1.26,1.42c-2,.16-2.44-2.6-4.48-2.37a2.58,2.58,0,0,1-2.31-.91c2.68-11.26,11.95-18,19.38-27.54-10.49,1.84-8.36-4.29-7.9-9.92.61-7.38,2.09-13.29,11.52-12.44,4.5.4,4.35-3.63,4.24-6.17-.24-5.89,2.88-9.29,7-12.74,9.1-7.59,19.58-13.92,24.36-26.89,1.48,2.54,2.29,3.68,2.85,4.93,5.09,11.29,14.5,12.86,23.47,4.09,3.66-3.57,7.76-6.69,12.53-10.77-2.8-1.24-3.6-1.61-4.42-2-12-4.91-12-4.91-7.21-17.24-3,2.42-6,4.75-8.88,7.3-3.16,2.82-7.82,4.38-7.85,9.87,0,4-.57,8.11-.88,12.18a8.61,8.61,0,0,1-2-.23c-2.15-10.95-9.84-12-19-10.87-1.53.2-3.8,1-4.56-1s1.29-2.84,2.63-3.82a2.94,2.94,0,0,1,2.84.24c2.79,1,6,2.16,8.14-.36,1.61-1.87-.64-4-1.69-5.89A2.7,2.7,0,0,1,395,90Z"/><path class="cls-4" d="M226.8,414c-5.88-5.12-11.7-10.32-17.67-15.33-2.37-2-1.64-4.42-1.64-6.79,0-28.29,2.36-56.36,8.21-84.07a13.28,13.28,0,0,0-1.84-10.4c-4.2-6.9-7.41-14.49-12.16-21-7.34-10-8.82-20.29-4-31.49,2.68-6.2.84-9.2-5.42-11.77-20.59-8.47-40.84-17.77-61.4-26.31-5.19-2.16-8.26-5.11-10.21-10.36-6.14-16.5-12.82-32.8-19.07-49.26-1.63-4.3-3.86-7.59-7.94-10-16.39-9.61-31.59-20.67-42-37.08-2.07-3.26-3.92-3.14-7-1.3-13.29,7.84-26.74,15.41-40.17,23-1.1.62-2.1,2.43-3.71,1.16s-.15-2.74.29-4C7.54,101.13,14.18,83.26,20.6,65.32c1.25-3.5,3-4.44,6.52-3.48,5.67,1.53,11.5,2.47,17.16,4C58.81,69.77,73,70.9,88.3,68.2c33.31-5.87,63.59-20.35,95.31-31l-82.36,5.19c0-3.48,2.35-3.71,3.89-4.55,22-11.9,44-23.7,65.87-35.66A15.74,15.74,0,0,1,180.8.11C197.37,2,214,3.84,230.54,5.75c1.3.15,3.24-.57,3.64,1.45.36,1.8-1.47,2.35-2.55,3.2A76.92,76.92,0,0,1,224,16.1c-20.21,12.19-35.21,29.33-47.58,49.14-2,3.2-2.73,5.54-1.3,9.28,5.32,13.86,10.14,27.91,15.31,42.37,8.32-6.57,16.07-13,24.12-18.93,3.05-2.26,3.29-3.81,1.12-6.88-6.93-9.82-13.57-19.85-20.25-29.84-1.16-1.73-3.28-3.07-2.71-5.73,1.92-1.37,3.24.41,4.51,1.08,12,6.19,23.8,12.63,35.79,18.79,3.8,2,5.49,3.37,1.5,7.13-4.2,3.94-11.23,7.95-10.83,12.87s6.64,9.27,10.34,13.86c4.93,6.12,9.7,12.38,14.91,18.26,2.52,2.84,2.25,4.5-.22,7.18-17.36,18.74-34.56,37.63-51.79,56.5a7.58,7.58,0,0,1-6.38,2.68c-11.53-.26-23.06-.11-34.44-.11,3.94,3.54,8.67,7.81,13.43,12,7.53,6.68,15.61,12.85,22.47,20.15,6.58,7,14.25,9.6,23.38,9.9,5.88.2,11.81,1.69,17.61,1.23,13.38-1,24.08,4.27,34.46,11.87,9.29,6.79,19.07,13,28.94,18.9,4.49,2.7,4.83,4.55,1.72,8.84-23.33,32.19-46,64.87-70.41,96.26a13,13,0,0,0-2.9,11.4c1.73,9.57,2.62,19.28,3.85,28.93Z"/><path class="cls-5" d="M340.8,202.12h2.42a3.18,3.18,0,0,1,1,1.81c-.12,4.54-2.26,8.5-4.11,12.42-2.59,5.47-1.49,9.85,2.46,14a70.5,70.5,0,0,1,8,10.07c-1.8-10.73-3.41-20.43-4.63-30.19,0-2,.36-3.79,1.93-5.16l-.18.07c3.84-.1,3.36,3.31,4.44,5.45,1.54,9.69,3,19.39,4.65,29.08.56,3.33,1.69,5.73,5.84,3.88,15.22-6.78,30.24-14,46.12-21.43-7.71-4.72-16-6-22.66-10.45a4.07,4.07,0,0,1-.8-2,3.75,3.75,0,0,1,.72-2c8.87-1.28,15.31,5.33,23.72,6.9-2.29-3.94-5-7.69-6.77-11.9-1.08-2.57-3.16-5.18-.49-8l-.16.13c1.61-1,2.65.09,3.72,1,2.78,4.54,5.6,9.07,8.05,13.81,2.07,4,4.15,6.11,7.38.74,1.25-2.08,2.69-4.9,6.19-3.58,1.12,1.77.41,3.42-.32,5.06-4.43,7.52-4.39,7.36,4.15,9.39,11.77,2.8,23.55,5.45,35.86,7.67-2.91-6.4-8.25-10.84-9.84-17.38a4.21,4.21,0,0,1,1.9-3.74,1.19,1.19,0,0,1,1.79.58c2.55,8.9,9,15.52,13.62,23.22,1.69,2.82,5,.91,7.52,1.19a95.45,95.45,0,0,0,9.92.08c-.49,4.09-3.52,6.16-5.9,8.2-13,11.2-20.35,25.19-22.47,42.24a54.6,54.6,0,0,1-14.07,30.89c-5.69,6.17-6.94,13.67-7.4,21.62-.59,10-1.54,19.89-2.34,29.82l-1.91.61c-5-7.65-10.11-15.21-14.88-23-2.79-4.58-4.48-9.89-7.56-14.25-10.54-14.89-13.79-31.73-13.13-49.38.4-10.79-3.3-19.11-10.15-27.22-10.64-12.58-10.22-12.93-25-6-12.5,5.81-12.5,5.81-21.33-4.93a20.7,20.7,0,0,0-2.86-3.36c-11.65-9.06-11.19-19.65-4.06-31.12.48-1.11,0-2.55,1.21-3.4Z"/><path class="cls-4" d="M316.18,3.58C320,2.53,321.37,4.72,323,6c8.17,6.66,16,13.71,24.4,20.13,3.9,3,3.63,4.61.15,7.62Q313,63.6,278.79,93.8c-3.31,2.93-4.59,2.06-6.28-1.4C266.09,79.21,259.38,66.17,253,53c-2.08-4.28-4.66-6.71-9.77-7.37-10.92-1.42-21.71-3.73-32.55-5.69-1.16-.21-2.66.13-3.23-1.24-.78-1.87,1-2.51,2-3.39C217.15,28.84,225,22.53,232.58,16c4.21-3.64,9.36-2.58,14.07-3.24C270.18,9.41,293.76,6.48,316.18,3.58Z"/><path class="cls-6" d="M701.79,352.57C690.86,346.23,679.9,340,669,333.5a8.2,8.2,0,0,0-7.59-.56c-6.69,2.29-13.55,4.11-20.28,6.29-3.54,1.14-5.77,1-6.77-3.4-1.9-8.32-4.09-16.6-6.61-24.76-1.06-3.42-.09-4.6,2.9-6,14.16-6.62,28.19-13.51,42.27-20.3.66-.32,1.39-1,2-.89,6.65,1.28,13.28,3.31,18.54-3.57.76-1,2.19,1.24,2.7,2.6,5.16,13.79,15.07,24.54,23.41,36.26,2.16,3,2.65,4.92.36,8.17-5.76,8.2-11,16.77-16.46,25.19A1.35,1.35,0,0,1,701.79,352.57Z"/><path class="cls-7" d="M628,267.15c-3.63-2.9-7.24-5.82-10.89-8.68-1.94-1.52-3.38-2.76-.59-5,8.3-6.75,16.46-13.68,26.4-22-1.25,11.21-2.18,20.45-3.33,29.66-1.51,12-1.58,12,9.76,17,1.21.53,2.84.68,3.6,3.57-13.39-1.26-26.11-2.47-38.84-3.65-3.61-.34-1.86-3.27-2.51-5l-.2.2c.54-.41,1.51-.79,1.54-1.24.59-7.1,4.36-6.66,9.21-4.05a11.3,11.3,0,0,0,2.79.7c1.87,1.16,4.47-.05,5.78,1.57A11.51,11.51,0,0,1,628,267.15Z"/><path class="cls-8" d="M629.57,202.35c4.62,2.48,9.61.63,14.39,1.21-3.33,3-7.39,1.52-11,1.32-4.64-.24-7,1.51-8.93,5.46-3.66,7.42-7.92,14.54-11.67,21.91-1.81,3.57-3.17,5.14-6.57,1.32-4.69-5.25-9.85-10.1-14.81-15.12l1.6-1.31c5.53-1,7.26,4.05,10.33,6.73,5.63,4.88,5.61,5,9.35-1.61,8.59-15.3,8.59-15.13-9.36-15.37-7.28-.1-14.74,1.46-21.85-1.46,0-1.57,1.64-2.94.52-4.67-.52-.8-.79-2,.36-2.18,1.42-.18,1.56,1.44,2.06,2.44,11.94-1.52,24-1.25,35.94-1.13C623.3,199.92,626.92,199.37,629.57,202.35Z"/><path class="cls-9" d="M459.72,199.61l.48-2.51c7.93,4.9,10.74,13.36,14.92,20.59-.19.33,0,.16,0,.05-.8-3.26-1.15-7.63,2.56-7.89,4.39-.3,2.75,4.56,3.23,7.38.12.71,0,1.46.13,2.14,7.31-1.57,12.24-7.09,18.13-10.92,2.2-1.43.36-3.06-1.29-3.74-5.16-2.12-10-5.1-15.55-6.11-2,1.06-1.44,4.29-4.59,4.94-2.5-4.42-3.29-8.76.13-13.22a3.54,3.54,0,0,1,.92,0c2.11-.07,3.29,1.56,4.79,2.6l27.25,13C499.94,213.46,490,220.34,480,227.29c-3,2.08-3.74-.41-4.9-2.14q-6.21-9.27-12.38-18.57C460.75,204.69,458.22,203,459.72,199.61Z"/><path class="cls-10" d="M703.93,148.83c-8.08,13.17-15.62,25.41-23.12,37.67-1.32,2.15-2.4,2.9-5.23,1.57-14.87-7-15-7.08-2.16-17.36,7.82-6.28,15.57-12.65,23.43-18.88C698.46,150.55,699.89,148.64,703.93,148.83Z"/><path class="cls-11" d="M665.11,258.6c14.93,0,27.84,0,40.74,0,1.79,0,3.42.56,3.38,2.91-.11,5.63-.1,11.26-.34,16.89-.13,3-2.19,2.84-4.15,1.77C691.94,273.27,679.18,266.28,665.11,258.6Z"/><path class="cls-12" d="M529.81,36c-9.23,9.66-18,18.74-26.66,28-2,2.16-3.57,2-5.52.4-3.57-2.87-10.51-4.27-10.57-8-.07-4.32,6.93-4.81,10.83-6.94,7.89-4.31,16-8.26,24.11-12.13C524,36.43,525.94,34.25,529.81,36Z"/><path class="cls-13" d="M436.68,21.93,418.84,39.81c-1.17,1.17-2.2,1.56-3.69.22-5.93-5.33-12-10.55-19.75-17.37l40.44-2.47Z"/><path class="cls-9" d="M359.71,133.86c3.68-10.15,2-18.11-.73-26.36-2.08-6.28,5-4.39,7.81-5.58,3.77-1.6,1.82,1.72,2,3.66.64,5.66,4.23,10.27,6.84,15.16,2.05,3.84,1.22,5.56-2.57,7S365.63,131.13,359.71,133.86Z"/><path class="cls-14" d="M484.09,321.53c-6-3.88-9-9.11-13.21-13-1.55-1.44-.87-3,.1-4.59,4.66-7.68,9.22-15.41,14.71-22.94C486.9,294.36,484.81,307.45,484.09,321.53Z"/><path class="cls-14" d="M189.59,205l39.92,4.82c-4.87,7.22-12.67,9.84-19.46,6.79q-9.63-4.34-19.2-8.8C190.53,207.61,190.46,207,189.59,205Z"/><path class="cls-15" d="M611.61,273c-4-.51-5.06-4.19-7.15-6.65-6.1-7.19-12-14.59-18.24-22.28,17-.32,25.79,10.14,25.2,29.12Z"/><path class="cls-16" d="M574.64,23.67l10.42-13.15c.93-1.17,1.93-2.46,3.58-1.25,6.91,5.12,13.78,10.3,21.85,16.34-7.34,1.69-12.73-.09-18.14-.39S581.72,24.31,574.64,23.67Z"/><path class="cls-17" d="M644,213.77a102.81,102.81,0,0,1,17,20.61c3,4.78-4.45,5.37-6.63,8.33-1.35,1.82-3.1.8-3.74-1.23-2.85-9-5.63-17.93-8.43-26.9Z"/><path class="cls-18" d="M347.83,80.72c-5.91,5.38-11.78,10.8-17.77,16.09-2,1.76-3,.43-3.42-1.62-.83-4.33-1.62-8.68-2.42-13-.38-2,.19-3.32,2.57-3.31,6.79,0,13.58,0,20.36,0Z"/><path class="cls-19" d="M340.34,203.59a2.75,2.75,0,0,1-1.21,3.4c-.61-.26-1.49-.91-1.78-.71-3.08,2.14-7,3.26-9.3.45-2.42-3-1.38-7.62-.61-11.36.73-3.56,4.56-1.92,6.94-2.52,2.59-.66,3.81,1.61,4.43,3.85S338,201.68,340.34,203.59Z"/><path class="cls-12" d="M765.72,348c-3.22,8.18-6.39,16.38-9.71,24.52a1.8,1.8,0,0,1-3,.64c-3.2-2.57-7.8-4.6-9.17-7.95-1.29-3.17,4-4.61,6.47-6.7,4.54-3.91,9.46-7.39,14.22-11Z"/><path class="cls-14" d="M695.42,144.47c.58-8.67,0-16.82,2.14-26.55,5.06,7.33,7.3,14.18,10.21,20.66.93,2.07-.53,3-2.51,3.39C702.22,142.61,699.24,143.49,695.42,144.47Z"/><path class="cls-20" d="M766.71,356c.17-7-.5-13.33,1.11-20C779.79,346.2,778.34,346.58,766.71,356Z"/><path class="cls-21" d="M352.63,115.83c7.92,9.92,10.62,9.58-4,16.09A50.47,50.47,0,0,1,352.63,115.83Z"/><path class="cls-22" d="M701.79,352.57l1.69,0c5.51.07,6.61,2.43,3.88,7.1-1.43,2.44-2.51,5.08-4,8.05-3.6-3-3.85-7.1-5.66-10.3C694.9,352.37,698.21,352.31,701.79,352.57Z"/><path class="cls-23" d="M553,252.69c.25-1,.47-2.24.83-3.41.82-2.72-1-6.94,2.16-8,2.73-.9,4.51,3.12,7,4.58,3,1.76,2.78,3.53,0,5.36-2.05,1.35-4,2.88-6,4.27-1,.66-1.84,1.91-3.2,1.23C552,255.85,553.05,254.21,553,252.69Z"/><path class="cls-24" d="M387.82,100.64l-1.72-1.78A40.69,40.69,0,0,1,395,90l1.52,1.51C396,96.85,392.67,99.46,387.82,100.64Z"/><path class="cls-25" d="M459.72,199.61c.68,2.46,4.47,3.58,3,7l-1.57,1.85a1.24,1.24,0,0,0-1.28.5c-2.7-.52-3.41-2.53-3.69-4.87.17-1.87.61-3.63,2.2-4.86A3.23,3.23,0,0,0,459.72,199.61Z"/><path class="cls-25" d="M483.54,192.92c-2-.21-4.29.28-4.79-2.6,1.61-1.56-.62-4.37,1.83-5.66C479.79,188.05,484.39,189.51,483.54,192.92Z"/><path class="cls-26" d="M628,267.15a19.16,19.16,0,0,1,7.87,6.44l-10.93-5Z"/><path class="cls-1" d="M626.39,125.25,540,69.65c19.24-10.1,37.8-19.86,56.38-29.59,10.19-5.34,10.23-5.33,12.68,5.81C614.74,71.9,620.42,97.94,626.39,125.25Z"/><path class="cls-1" d="M687.58,56.84l-58.5,68.36c-6.62-30.7-13-60.08-19.52-90.57Z"/><path class="cls-1" d="M577,201.26,530.29,141l95.29-11.21Z"/><path class="cls-1" d="M624.45,127.24c-20.55,2.44-39.62,4.72-58.7,7-10.45,1.23-20.93,2.27-31.35,3.72-3.53.49-5.32,1.13-4.55-3.93,3-20.31,5.57-40.7,8.44-62.23Z"/><path class="cls-1" d="M460.35,86.48,535.57,71.2c-3,22.12-5.83,43.77-8.83,66.28Z"/><path class="cls-1" d="M691.47,57.83l98.34,21c-31.48,8.21-61.49,16-91.48,23.88-2.18.58-3.63.89-3.83-2.21C693.6,86.57,692.53,72.65,691.47,57.83Z"/><path class="cls-27" d="M522.13,139.56c-19.78,0-39.55-.07-59.32.08-3.38,0-4.14-1.23-4.12-4.29.11-15.15.05-30.31.05-46.63l63.7,48.89Z"/><path class="cls-27" d="M583.16,197.09l45.22-66.63c7.79,10.84,15.13,21.09,22.51,31.31,1.12,1.56,1.86,2.54-.65,3.78-22,10.88-43.94,21.91-65.9,32.9Z"/><path class="cls-1" d="M447.47,189.14c-2.6-4.83-6.59-7-12.07-8.15-12.67-2.68-25.26-5.89-37.67-9.59-9.59-2.86-19-.8-29.74-.1,7.9-7.17,15-13.46,23.23-18.56,2.81-1.75,3.91-.27,5.41,1.4,4.36,4.85,8.74,9.69,13.93,15.43,1.81-8-.77-14.51-.63-22.14l15.42,25.87c4.44-9.16,8.71-17,12-25.19,1.9-4.7,3.56-5.16,7.67-2.58,4.68,2.95,9.84,5.13,15.78,8.15l-26.1,10.69c4.42,3.6,8.86,4.51,13,5.46,6.55,1.5,8.39,4.41,4.73,10.19-2.26,3.57-1.72,6.91.44,10.23C450.69,191.77,449.24,189.66,447.47,189.14Z"/><path class="cls-27" d="M688.91,59.46c1,14.8,1.79,27.75,3,40.66.32,3.5-1,4.81-3.9,5.8-17.9,6.18-35.79,12.42-55.28,19.2Z"/><path class="cls-27" d="M528.76,143.42c15.71,20.28,30.19,39,45.39,58.59-16.29-1.51-31.32-3-46.37-4.21-3.5-.27-3.16-2.23-3-4.43C526.05,177.3,527.34,161.23,528.76,143.42Z"/><path class="cls-27" d="M630.47,128.83l59.77-21-35.46,54.48C646.71,151.24,638.9,140.46,630.47,128.83Z"/><path class="cls-28" d="M459.64,141.93h63.73c-14.65,12.32-28.45,23.85-42.13,35.53-2.41,2.06-3.16.91-4.2-1.16C471.47,165.21,465.83,154.15,459.64,141.93Z"/><path class="cls-27" d="M521.74,196.77,481,181.29l45.18-38.22C524.63,161.73,523.21,178.92,521.74,196.77Z"/><path class="cls-29" d="M402.45,194.7c-.42,6.09,4.16,10,6.45,15,1.3,2.78,3.12,5.33,5.07,8.61-10-2.59-18.24-8.16-27.77-10-7.58-1.83-15.21-3.56-21.43-8.73-.15-5-6.32-6.33-6.89-11.11,8.57-4.57,17.23-9,25.67-13.79,3.19-1.81,4.87-1.85,6.6,1.75,2.43,5,5.43,9.77,8.18,14.63C399.29,192.7,400.14,194.51,402.45,194.7Z"/><path class="cls-27" d="M629.57,202.35c-12.38-.08-24.77-.09-37.15-.31-2.8,0-5.82,1-8.42-1,21.49-9.35,42-20.71,63-30.94,1.31-.64,2.65-1.19,5.34-2.39-3.48,11.51-6.7,22-9.82,32.6-.73,2.47-2.65,1.67-4.19,1.77C635.45,202.25,632.51,202.26,629.57,202.35Z"/><path class="cls-27" d="M525.25,200.32l49.27,4.33-28.43,37.87C539.19,228.56,532.59,215.18,525.25,200.32Z"/><path class="cls-30" d="M427.57,206.42c-5.14,2.27-6,8.08-10,12.05a159.13,159.13,0,0,1-12.46-21.78c.16-3.52-.68-6.47-4.43-7.75l-9.8-16.18,48.55,12.05-1.91,5.45c.45,3.87-2.81,5.65-4.6,8.25-1.86,2.25-2.57,5.19-4.52,7.38Z"/><path class="cls-28" d="M581.06,205.43h42.6c-4.43,8.12-8.89,15.9-12.94,23.89-1.71,3.35-2.9,2.17-4.75.39-4.41-4.25-8.92-8.39-13.38-12.57Z"/><path class="cls-25" d="M479.34,221.3V208.24c-4.27,4.55-1.7,9-3.2,13.27-5.55-8.5-10.74-16.46-15.94-24.41l-6-10.67c6.91-1,13.42-2.14,20-2.82,6-.61,1,5.21,3.66,6.71a20.82,20.82,0,0,0,.12,11.79c1.75-6,1.75-6,4.15-6.13,5.08,4.6,6.09,9.91,2.06,15.53C482,214.57,484.1,219.62,479.34,221.3Z"/><path class="cls-31" d="M750.33,67.65,692.88,55.42c4.71-4.37,9.22-8.32,13.44-12.56,2.22-2.24,3.84-1,5.72.17l38.62,23.81Z"/><path class="cls-32" d="M453.14,93.69c-4.76,14.71-9.51,29.42-15.09,46.71-5.07-5.84-8.81-10.71-13.16-15-2.57-2.51-1.77-3.74.24-5.74,8.86-8.78,17.61-17.66,26.4-26.5Z"/><path class="cls-30" d="M788.07,83.45l-44.68,37.13c4.37-10.44,8-18.89,11.42-27.42.85-2.12,2.24-2.9,4.29-3.42,9.43-2.41,18.83-4.95,28.24-7.44C787.59,82.68,787.83,83.07,788.07,83.45Z"/><path class="cls-33" d="M661.21,157.37l28.13-43.17,1,.39c-2,9.47-4.08,18.92-6,28.4a5.61,5.61,0,0,1-2.71,4.06l-19.27,11.47Z"/><path class="cls-34" d="M437.05,142.34,425.2,167.82l-15.09-25.48Z"/><path class="cls-35" d="M456.1,97.83c0,12.87.77,25.81-.31,38.59-.58,6.86-7.45,2.69-11.35,3-4.7.41-2.19-3.38-1.63-5.16,3.86-12.23,7.95-24.4,12-36.59Z"/><path class="cls-34" d="M464.33,157.06l11.93,23.61-22.28,3C457.41,174.86,460.59,166.67,464.33,157.06Z"/><path class="cls-36" d="M394,121.14l10.6,17.18h-31Z"/><path class="cls-34" d="M416.09,73.23c.4-.63.48-.91.66-1,16.7-9.78,18.27-9.32,34.49,10.46-6.32-1.63-12.18-3.09-18-4.65C427.58,76.51,422,74.87,416.09,73.23Z"/><path class="cls-34" d="M374.37,140.29,403,142c-3.53,2.29-6,3.94-8.57,5.55C381.13,156.08,381,156,374.37,140.29Z"/><path class="cls-37" d="M439.5,99.19C438,94.4,436.3,88.68,434.61,83c-.11-.36.16-.83.38-1.77,3.19.88,6.37,1.78,9.57,2.63,3,.8,6,1.54,9.57,2.46Z"/><path class="cls-38" d="M350.83,211l-3.15-5.87c-.18-5-2.5-10.67,4.25-13.49,1.46,4.56,5.88,4.92,9.38,6.59,1.61.84,3.11,1.79,3.46,3.78C364.88,213.58,360.91,216.14,350.83,211Z"/><path class="cls-39" d="M435,139.2H411.49c-.16-.83-.33-1.15-.24-1.3C420.22,123.3,420.69,123.32,435,139.2Z"/><path class="cls-40" d="M439.22,64.88c3.06.41,6.18.83,9.29,1.23,15.59,2,15.59,2,7.18,17.35Z"/><path class="cls-30" d="M426.41,211c.39-1.52.77-3.05,1.16-4.57l-.19.19c2.24-2.28,3.67-5.11,5.18-7.88,2.18-2.84,4-5.95,6.67-8.4.44-.13.89-.25,1.35-.35a4,4,0,0,1,1.37,1.61,11.06,11.06,0,0,1,.68,6.23,8.66,8.66,0,0,0-1,2.66c-.55,8.23-.55,8.23-8.32,8.32,2.29-.23,4.94.41,7.5-.41,2-1.16,1-4,2.88-5.23a3.39,3.39,0,0,1,2.2-.14c2.61,1.83,3.47,4.17,2.13,7.17C440,215.66,433.55,215.9,426.41,211Z"/><path class="cls-40" d="M428.74,80.22,411.16,94.66c0-2.23-.11-3.59,0-4.93C412.72,72.38,408.43,73.33,428.74,80.22Z"/><path class="cls-41" d="M417.73,123.88c-2.44,3.54-4.33,6.34-6.28,9.09-1.11,1.56-2.32,3.06-3.84,5.05l-10.86-17.24Z"/><path class="cls-42" d="M787.85,75.64c-4-.87-8.06-1.75-12.1-2.6s-8.14-1.65-12.22-2.48c.09-.58,0-1.17.26-1.48,6.52-7.89,6.52-7.88,14.91-1.56,3.1,2.33,6.22,4.63,9.33,7Z"/><path class="cls-43" d="M406.87,106.85c-9.48-22.18-9.73-15.5,2.68-28.83C408.63,87.84,407.8,96.79,406.87,106.85Z"/><path class="cls-44" d="M448.11,209.5l-3-5.89a10.37,10.37,0,0,1,.07-11.94l2.43.77-.15-3.3,5.41,1.11,1,1.6c-.15,1.61-1.32,2.79-1.77,4.27-.56,4,2.75,6.44,4.09,9.66.9,2.17,2.77,4.17-.1,6.23C452.9,212.9,449.91,213.1,448.11,209.5Z"/><path class="cls-43" d="M441.54,164.35l19.19-7.68C457.77,171.2,456,171.89,441.54,164.35Z"/><path class="cls-45" d="M406.73,142.89c-.22,7,2.17,12.73,1.18,19.84L396.2,149.6Z"/><path class="cls-46" d="M380.88,173.13l-26.12,13.58C360,174.68,369.18,172.65,380.88,173.13Z"/><path class="cls-42" d="M432,84c1.89,6.07,3.39,10.88,4.9,15.71C424.52,99.07,424.12,98,432,84Z"/><path class="cls-47" d="M379.61,159a10.24,10.24,0,0,0-2.71,1.12c-3.38,2.71-6.67,5.54-10.37,8.64C368.27,154.65,368.27,154.65,379.61,159Z"/><path class="cls-38" d="M357.88,188.41c3.62,2.63,8.78,4.12,7.63,10.29-1.81,1.88-3.36-.29-5.05-.34-2.79-2.13-8.73-.3-8.25-6.54C355.52,193.05,354.89,187.72,357.88,188.41Z"/><path class="cls-48" d="M387.82,100.64l8.67-9.12c3,2.41,3.18,6,4.61,9.85C396.24,101.09,392,102.17,387.82,100.64Z"/><path class="cls-49" d="M363.13,168.68c-1.89-5-5.61-8.39-4.54-12.71.42-1.72,4.79-1.08,7.68-.76-.42,2.19-.75,4.26-1.22,6.31S364,165.49,363.13,168.68Z"/><path class="cls-50" d="M460.29,150.68,445,142.5C452.91,141.47,459.07,140.84,460.29,150.68Z"/><path class="cls-51" d="M356.11,159.4c2,4.46,3.64,8,5.34,11.75C353.56,172.09,353.56,172.09,356.11,159.4Z"/><path class="cls-52" d="M372.07,143.12l7.43,11.28C368.62,152.28,368.62,152.28,372.07,143.12Z"/><path class="cls-1" d="M451.1,194.58l2.79-2.73,4.51,7.35c-.22,1.52.36,3.28-1.31,4.36C452.2,202.5,451.4,198.71,451.1,194.58Z"/><path class="cls-29" d="M400.67,188.94c8.29.36,8.57.84,4.43,7.75-1.14-.32-1.21-2.25-2.81-1.86Z"/><path class="cls-32" d="M445.19,191.67c0,4-.05,8-.07,11.94h-1.35c-3.25-3.4.62-8.62-3.07-11.9l-.12-1.72C443.36,187.14,443.94,190.32,445.19,191.67Z"/><path class="cls-9" d="M352.21,191.82c1,4.71,6.68,2.93,8.71,6.23l.12.7c-8.14-.29-10.5-2.13-9.11-7.11Z"/><path class="cls-53" d="M439.23,190.33c-2.15,2.83-2.48,6.85-5.83,8.9-1.36.34-2.08,0-1.55-1.54q2.83-3.7,5.66-7.43Z"/><path class="cls-38" d="M347.86,205.06l-.38,5.9c-4.16-.9-3-4.7-4-7.32l-.27-1.51c1.34,0,1.36-5,3.64-1A15.27,15.27,0,0,1,347.86,205.06Z"/><path class="cls-27" d="M109.82,38.41c21-11.35,42.12-22.65,63.09-34.14,2.5-1.36,3.23-.56,4.38,1.44,5.25,9.07,10.64,18.06,16.59,28.1l-83.47,5.44Z"/><path class="cls-27" d="M171.31,71.72c5.63,15.69,10.86,30.3,16.41,45.78l-61.85-8Z"/><path class="cls-27" d="M296.49,274.12l-42.68,59.6c-2.57-15-4.82-28.78-7.35-42.49-.67-3.63,1.8-3.33,3.77-3.89Z"/><path class="cls-27" d="M243.23,136.4,194,190.19c-3.66-10.91-6.87-20.78-10.36-30.55-.72-2-.92-2.95,1.32-3.75q28.83-10.29,57.62-20.69Z"/><path class="cls-27" d="M168.54,70.53l-45,37.4c-3.13-14.05-6.13-27.47-9.31-41.75Z"/><path class="cls-27" d="M246.27,285.61c1.89-14.9,3.63-28.7,5.51-43.54l44.73,29.21Z"/><path class="cls-28" d="M180.07,153.5l-52.66-41c19.64,2.49,38,4.91,56.3,7,3.56.42,4.55,1.1,3.5,4.9C184.61,133.71,182.56,143.19,180.07,153.5Z"/><path class="cls-27" d="M198.4,261.54l50.51-19.67c-1.65,13.94-3.17,27.25-4.81,40.56-.6,4.9-3.29,1.32-4.52.69C226.09,276.19,212.7,269.07,198.4,261.54Z"/><path class="cls-27" d="M124.41,113.52,177,154.61c-15,1.14-28.63,2-42.2,3.25-3.38.3-4.13-1.35-4.51-4C128.42,141,126.55,128.21,124.41,113.52Z"/><path class="cls-54" d="M119.15,109.67l-48.73,7.74V75.69Z"/><path class="cls-54" d="M182.76,153.73c2.53-10.35,4.82-19.51,7-28.7.51-2.17.39-4.52,3.83-3.82,16.43,3.37,32.87,6.65,51.22,10.35Z"/><path class="cls-54" d="M23.64,65.17c7.54,9.38,14.17,17.91,21.14,26.14,2.49,2.94,1.24,3.79-1.33,5.23-12.79,7.19-25.51,14.53-39.6,22.59Z"/><path class="cls-28" d="M120.45,107.3,72.16,73.53C85.05,71.08,96.72,69,108.33,66.6c4.1-.84,3.76,2.37,4.21,4.34C115.21,82.58,117.65,94.27,120.45,107.3Z"/><path class="cls-32" d="M121.05,63,192.6,37.84C185.38,48.09,179,57,172.84,66c-1.84,2.69-4.27,1.9-6.57,1.72-15-1.16-30-2.43-45-3.67Z"/><path class="cls-28" d="M67.33,115.4C53.2,97.71,40.39,81.67,26.76,64.62,40,67.62,52,70.34,63.87,73c2.53.56,3.57,1.72,3.53,4.49C67.24,89.45,67.33,101.43,67.33,115.4Z"/><path class="cls-28" d="M249.41,339.69c-13.49,17.92-25.95,34.46-38,50.43,0-11.83.08-23.94-.06-36.05,0-3,1-4.27,3.88-5C226.12,346.21,236.91,343.14,249.41,339.69Z"/><path class="cls-27" d="M212,347.15c2.26-14.14,4.4-27.55,6.36-39.76l31.33,29.44Z"/><path class="cls-32" d="M246.49,129.06,193,118.4C202.22,111,210.38,104.55,218.5,98c2.19-1.76,3,.15,4,1.39C230.21,108.9,237.88,118.41,246.49,129.06Z"/><path class="cls-28" d="M230,8.24,196.63,33.09c-5.93-10-11.62-19.59-18-30.32Z"/><path class="cls-28" d="M150.76,188.63l-18.59-28,45.51-3.27Z"/><path class="cls-32" d="M189.16,229l-61-26.38c6.86-3.18,13.26-6.09,19.6-9.11a3.76,3.76,0,0,1,4.66.65Q171.18,211,190,227.7C189.72,228.14,189.44,228.59,189.16,229Z"/><path class="cls-35" d="M152.83,190.32l27.43-31.71,11.05,31.71Z"/><path class="cls-55" d="M249.28,332.13c-5.9-6.11-11.88-12.13-17.66-18.34-3.6-3.87-10.29-7.13-9.76-11.79.33-2.93,8.12-5,12.6-7.45,8.92-4.84,9-4.85,10.78,4.78,1.9,10.55,3.55,21.13,5.31,31.7Z"/><path class="cls-32" d="M198.5,264.69l43.23,22.74c-7.34,4-14,7.4-20.45,11.18-3.06,1.78-3.78-.19-4.88-2.16C210.73,286.37,205,276.29,198.5,264.69Z"/><path class="cls-31" d="M72.22,119.92l47.32-7.65c-6.32,8.29-12.19,15.74-17.77,23.41-2,2.79-3.45,1.41-5.34.15C88.93,130.85,81.39,125.93,72.22,119.92Z"/><path class="cls-35" d="M123.2,194.86l-20.15-51.28c8.82,5.73,16,10.46,23.21,15,2.52,1.58,1.76,3.78,1.53,5.85-1.11,10-2.3,20-3.47,30Z"/><path class="cls-32" d="M121.72,113.93c2.17,14.81,4.12,28.09,6.25,42.6-8.26-5.43-15.69-10.36-23.18-15.2-2.24-1.45-2-2.67-.49-4.63C109.87,129.62,115.27,122.4,121.72,113.93Z"/><path class="cls-35" d="M242.3,241.5l-45.2,17.62c1.66-6.85,3.3-12.88,4.52-19,.7-3.48,3.07-2.58,5.07-2.43,11.84.86,23.67,1.83,35.5,2.77Z"/><path class="cls-30" d="M126.37,200.32c1.44-12.65,2.74-24,4.24-37.13,6.5,9.77,12.07,18.13,18,27Z"/><path class="cls-30" d="M234.34,79.29,219.53,92.23c-6.63-9.78-13.7-20.24-21.92-32.39Z"/><path class="cls-56" d="M221.86,382c1.23,9.15,2.36,17.57,3.49,26-2,.29-2.72-1.28-3.77-2.15C208.75,395.12,208.76,395.11,221.86,382Z"/><path class="cls-27" d="M457.62,297.61l-51.87-33.34,66.79-27.88C467.43,257.38,462.65,277,457.62,297.61Z"/><path class="cls-27" d="M350.83,211c1.89.2,4,1,5.62.47,2.89-1,10.95,1.54,5.63-6.7-.23-.36,1.25-1.81,1.94-2.76,1.8-.49,3,.47,4,1.72,1.84,4,5.13,5.37,9.37,5.33,3.08,0,6.31-.42,9,1.82l27.76,10.7c-19.08,8.91-36.85,17.1-54.52,25.53-3.68,1.76-3.77-.91-4.06-2.81C353.86,233.22,352.38,222.1,350.83,211Z"/><path class="cls-27" d="M405,261.62c4.26-12.18,8.14-23,11.75-33.84,1-2.9,1.51-4.67,5.39-3.78,15.19,3.52,30.47,6.65,48,10.4Z"/><path class="cls-27" d="M404.27,266.6l50.31,32.31c-15.64,2-30,3.77-44.34,5.84-3.54.51-3.43-1.26-3.58-3.62C405.93,289.93,405.12,278.73,404.27,266.6Z"/><path class="cls-27" d="M426.23,343.05c-5.9-11.25-11.32-21.87-17-32.34-2.17-4,1-3.42,2.81-3.66,14.05-1.82,28.1-3.53,43.44-5.43Z"/><path class="cls-32" d="M448.11,209.5c2.93,1.83,6.11,1.64,9.33,1.19l1,.33,13.06,20.89-52-11.21,7-9.71A28.44,28.44,0,0,0,448.11,209.5Z"/><path class="cls-32" d="M402.39,261.08l-17.65-22.67L415,224.11C410.64,236.93,406.69,248.49,402.39,261.08Z"/><path class="cls-34" d="M343.49,203.64c2.63,1.73,1.88,5.3,4,7.32,1.84,11,3.69,22.11,5.85,35-6.21-7.52-11.34-13.79-16.53-20-1.54-1.83-1-3.57-.21-5.45C338.92,214.93,341.19,209.28,343.49,203.64Z"/><path class="cls-40" d="M437.67,359.92c-11.76-15.31-11.69-16,2.84-31.06C439.58,339.05,438.67,349,437.67,359.92Z"/><path class="cls-57" d="M471.44,253.5c5-21.75,1.43-18.29,16.74-18Z"/><path class="cls-38" d="M386.36,210.88c-3.89,0-7.78.05-11.67.13-5,.1-7.82-2.12-7.76-7.36,7.48-1.55,13.13,2.76,19.12,6A5.05,5.05,0,0,0,386.36,210.88Z"/><path class="cls-58" d="M386.05,209.62c-6.69-1-12.25-5.55-19.12-6L364,202l-3-3.26a.47.47,0,0,1-.12-.7l4.59.65c6.47,4.11,14.6,4.61,20.69,9.55A1.65,1.65,0,0,1,386.05,209.62Z"/><path class="cls-59" d="M458.4,211q-.5-.15-1-.33c-.67-4-4.6-6.07-5.95-9.62-.77-2-3.86-4.13-.39-6.49l6,9q1.4,2.69,2.8,5.37C459.39,209.63,458.89,210.32,458.4,211Z"/><path class="cls-27" d="M316.13,6.27c-8.53,11.81-16.65,22.83-24.46,34.06-1.93,2.79-3.35,1.59-5.28.56C271.52,33,256.64,25.09,240,16.26Z"/><path class="cls-27" d="M342.07,34.8l-64,55.87c4.38-15,8.4-28.62,12.29-42.27a5,5,0,0,1,4-3.72q23.43-5.62,46.86-11.19Z"/><path class="cls-28" d="M252.93,47.25l35.48-1.66C283.93,60.81,279.66,75.34,275,91.1Z"/><path class="cls-28" d="M293.46,42.24c8.66-12,16.28-22.39,23.76-32.92C319,6.78,320.3,7.25,322.38,9c7.79,6.65,15.74,13.12,24.36,20.27Z"/><path class="cls-60" d="M238.6,18.62l45.66,24.09c-11.13,1.56-21.11,1.23-31,1.55-2.79.09-3-2.32-3.78-3.82C245.93,33.77,242.71,27,238.6,18.62Z"/><path class="cls-35" d="M235.05,17.49c4.46,9,8.57,17.23,13.12,26.36L211.3,37.29Z"/><path class="cls-61" d="M687,309.78l11.61-12.15c1,17.65,1.87,33.87,2.83,51.23L668.2,330l8.64-9.71C678.88,315.47,682.48,312.17,687,309.78Z"/><path class="cls-28" d="M631.26,307.86,674.6,287c-2.57,11-4.88,20.91-7.23,30.86-2.42,10.26-2.43,10.26-11.53,4.76Z"/><path class="cls-30" d="M675.31,318.68,668.46,325c3-12.6,5.81-24,8.33-35.39.77-3.49,2.39-2.71,4.54-1.72,5.26,2.41,10.55,4.77,16.15,7.3l-12,13C683.38,312.92,679.75,316.2,675.31,318.68Z"/><path class="cls-30" d="M704,347.14c-.8-16.49-1.51-31-2.31-47.54,6.22,8.39,11.33,15.27,16.41,22.17a2.62,2.62,0,0,1,0,3.31C713.69,331.89,709.34,338.76,704,347.14Z"/><path class="cls-30" d="M661.72,329.66a33.4,33.4,0,0,1-5,1.91c-6.44,1.3-13.8,7.17-18.54,4.23-4-2.47-3.94-11.45-5.64-17.56-.58-2.07-1-4.17-1.81-7.37,9.49,5.62,18,10.67,26.57,15.77C658.76,327.49,660.08,328.52,661.72,329.66Z"/><path class="cls-62" d="M675.31,318.68a54,54,0,0,1,10.22-10.48l1.5,1.58a54,54,0,0,1-10.19,10.51Z"/><path class="cls-63" d="M697.29,291.79l-8.38-3.09c0-2.77,2.4-4.71,3.87-4.52C695.79,284.56,695.23,288.18,697.29,291.79Z"/><path class="cls-55" d="M635.62,269.13,618.17,255.8l21.47-18.11C638.24,248.6,637,258.4,635.62,269.13Z"/><path class="cls-64" d="M637.22,277.54c-6.46-.56-12.91-1.17-19.37-1.65-2-.14-3.7-.54-2.56-2.87.73-1.5.08-5,4-3.4,6,2.45,12.11,4.55,18.18,6.8Z"/><path class="cls-55" d="M479.34,221.3c1.73-4.83,1.79-10.06,5.17-14.56,2.74-3.63-2.26-7-2.41-10.76l23.59,10.27L481.22,223C478.42,224.87,479.41,222.49,479.34,221.3Z"/><path class="cls-40" d="M667,179.4l26.82-21.52.86.79c-5.08,8.22-10.22,16.4-15.18,24.69-1.29,2.16-2.39,2.61-4.49,1.11C672.63,182.78,670.08,181.35,667,179.4Z"/><path class="cls-30" d="M706.28,277.73l-30.6-16.48c8.87,0,17.68.09,26.49,0,3,0,4.46.68,4.19,4.08C706.05,269.07,706.28,272.9,706.28,277.73Z"/><path class="cls-40" d="M518.81,43.43Q513.37,49.22,507.92,55c-7.45,7.88-7.45,7.88-17.67,1.29l28-13.8Z"/><path class="cls-65" d="M403.25,25.42c9.27-1.84,18-1.64,26.39-1.83.91,1.4-.1,1.69-.52,2.13C416.7,38.65,416.7,38.65,403.25,25.42Z"/><path class="cls-46" d="M363.85,128.52c1.16-5.57,2.23-10.79,3.32-16.07C376.12,123.09,376,123.84,363.85,128.52Z"/><path class="cls-66" d="M365.64,104.71a10.61,10.61,0,0,1-2,7.34C362,109.24,359.36,106.37,365.64,104.71Z"/><path class="cls-56" d="M483.2,290.09c1,8.47-1.54,16.53-1.21,24.77C471.28,308.28,471.4,305.69,483.2,290.09Z"/><path class="cls-57" d="M203.08,209.33,223,211.51C215.38,220.54,209.53,211.47,203.08,209.33Z"/><path class="cls-67" d="M592.92,248.27c9.67,2.85,17.2,6.25,14.79,17.73Z"/><path class="cls-68" d="M580.06,21.62c8.2-11.54,8.2-11.54,21.88,1.82Z"/><path class="cls-69" d="M653.17,240.14l-5.25-16.51C659.35,233.14,660,235.1,653.17,240.14Z"/><path class="cls-46" d="M329.16,93.25c-1.8-11.68-1.8-11.68,12.93-11.78A65.56,65.56,0,0,1,329.16,93.25Z"/><path class="cls-45" d="M760.09,355c-2.36,5.94-4.11,10.37-5.88,14.84C746.27,365.05,743.12,366.49,760.09,355Z"/><path class="cls-70" d="M700.13,128.09c1.23,2.66,2.39,5.35,3.71,8,.57,1.16,1.26,2.52.09,3.25a7.13,7.13,0,0,1-4.22.87c-1.76-.15-1-1.8-1.06-2.89,0-3.08,0-6.15,0-9.23Z"/><path class="cls-71" d="M701.92,362.16c1-3-3.18-4.33-.31-6.37.72-.52,3.1-.19,3.29.29C705.62,358,704.41,359.54,701.92,362.16Z"/><path class="cls-72" d="M556.39,253.81c-.44-4.27-.1-6.49,1.75-8.13.15-.13,2.4,1.28,2.55,2.16C561.21,251,557.74,250.45,556.39,253.81Z"/><path class="cls-73" d="M431.85,197.69l1.55,1.54c-1.25,3.08-1.64,6.86-6,7.38C427,202.72,430.42,200.69,431.85,197.69Z"/><path class="cls-32" d="M442.13,209.53H430.05c1.71-2.24,3.54-1.61,4.95-1.41,5.82.81,6.48-3.23,4.79-6.48-2-3.82.17-3.45,2.32-3.93A19,19,0,0,1,442.13,209.53Z"/><path class="cls-44" d="M442.13,209.53q0-5.91,0-11.82c-.88-1.9-1.7-3.83-1.41-6,5.1,2.91,2.13,7.91,3.06,11.9C443.42,205.63,444.41,208,442.13,209.53Z"/></g></g></g></svg>