<svg xmlns="http://www.w3.org/2000/svg" viewBox="0 0 2157.98 2419.79">
    <defs>
        <style>
            .cls-1{fill:#fff;}.cls-2{fill:#020203;}.cls-3{fill:#1576a8;}.cls-4{fill:#ebf0f1;}.cls-5{fill:#c5cbd7;}.cls-6{fill:#eaf0f1;}.cls-7{fill:#e8eef0;}
        </style>
    </defs>
    <g id="Calque_2" data-name="Calque 2">
        <g id="Calque_2-2" data-name="Calque 2">
            <path d="M1496.59,2090.68c6-12,60,22,60,22,10.08,3.39,20.9,14.63,24.72,24.77,17.55,46.55,55.75,49.09,94.44,43.15,41.32-6.34,81.82-18.39,122.36-29.12,28.5-7.54,36.1-26.56,35.91-56.35-.56-91.47,71-160.87,161.36-160.83,44.23,0,72.74,21.27,74,55.17,1.35,35.7-22.41,57-68.94,58.51-33.27,1.06-53.83,15.77-55.27,49-1.15,26.78,14.46,45.87,41.26,50.34,33.52,5.59,51.18-13.38,60.08-44.06,13.37-46.13,37.13-62.92,72-52.41,33.63,10.15,46.59,40.84,35.68,84.55-24.36,97.64-118.69,147.59-216.17,116.59-15.19-4.83-36.73-4.46-50.32,2.84-91.75,49.25-188,68-291.21,52.17-37.79-5.8-85.75,36.86-86,74.87C1510.46,2381.79,1490.57,2102.73,1496.59,2090.68Zm626,35.77c2.6-13.67-9.59-30.14-15-45.32-10.44,10.67-26.07,19.58-30.41,32.32-17,49.78-53.54,74-102.66,63.57-40.56-8.64-66.89-49.72-59.93-93.53,6.4-40.26,37.9-63.92,84.41-69,13.49-1.48,25.7-14.71,38.49-22.55-13.87-9-27.37-25.1-41.67-25.84-70.83-3.66-133.33,61.17-132.69,133.65.62,71.34,60.48,130,132.44,129.77C2058.56,2229.32,2110.69,2189,2122.58,2126.45Zm-241.62,94-38.75-54.34c-67.12,37.12-136.84,49.22-211.31,46.27-37.78-1.5-20,37.23-32.74,61.66C1703.34,2293.11,1792.73,2271.16,1881,2220.41Z"/>
            <path class="cls-1" d="M1995.6,2229.51c63-.19,115.09-40.55,127-103.06,2.6-13.67-9.59-30.14-15-45.32-10.44,10.67-26.07,19.58-30.41,32.32-17,49.78-53.54,74-102.66,63.57-40.56-8.64-66.89-49.72-59.93-93.53,6.4-40.26,37.9-63.92,84.41-69,13.49-1.48,25.7-14.71,38.49-22.55-13.87-9-27.37-25.1-41.67-25.84-70.83-3.66-133.33,61.17-132.69,133.65C1863.78,2171.08,1923.64,2229.73,1995.6,2229.51Z"/>
            <path class="cls-1" d="M1598.16,2274c105.18,19.11,194.57-2.84,282.8-53.59l-38.75-54.34c-67.12,37.12-136.84,49.22-211.31,46.27C1593.12,2210.84,1610.9,2249.57,1598.16,2274Z"/>
        </g>
        <g id="Calque_3" data-name="Calque 3">
            <path d="M661.72,1999.56c56.43-170.58,173.89-273,350.86-306.59,16.72-3.17,33.57-5.7,54.86-9.29,0-42.61.18-84.59-.26-126.56,0-4.65-2.51-12.22-5.74-13.44-53.36-20.12-12.4-31.31,6.23-43.41-39.07-24.3-39.47-31-5.14-49.66-65.14-36.3-86.2-71.37-74.26-123.66,9.46-41.45,48.74-73.8,91.41-75.3,45.36-1.59,84.62,27.33,97.53,71.85,15.26,52.62-2.47,84-70.6,126.54,7,8.26,20.74,17.78,19.56,24.79-1.5,9-15,15.91-25.06,25.29,17.1,12.9,53.5,27.64,2,45.21-2.8,1-4.25,9.34-4.29,14.29-.34,40.74-.19,81.48-.19,110.43,78.33,30,153.34,49.28,218.67,85.86,103.65,58,168.26,152.23,193.85,268.5l13.41,328.73c0,21,0,42.08,0,66.65H642.83c0-35.19-2.38-69.36.62-103Zm420.9,393.35v.33q188.48,0,377,.15c20.16,0,36.6-.41,35.85-28.33-2.65-99,3.33-198.79-7.4-296.82-21.12-193.06-195.1-346.66-386.14-350.84C895.21,1712.88,713.69,1851,683.63,2049c-15.13,99.67-6.16,202.88-10.3,304.4-1.3,31.79,9.16,40.6,40.27,40.2C836.59,2392,959.61,2392.91,1082.62,2392.91Zm1.8-1106.85c-35.91-.51-66.41,29.07-66.36,64.38,0,33.64,29,63.91,62.17,65a65.13,65.13,0,0,0,67.72-63.17C1149.27,1315.07,1121.93,1286.6,1084.42,1286.06Z"/>
            <path class="cls-1" d="M1082.62,2392.91c-123,0-246-.93-369,.64-31.11.4-41.57-8.41-40.27-40.2,4.14-101.52-4.83-204.73,10.3-304.4,30.06-198,211.58-336.07,418.26-331.55,191,4.18,365,157.78,386.14,350.84,10.73,98,4.75,197.84,7.4,296.82.75,27.92-15.69,28.37-35.85,28.33q-188.49-.43-377-.15Z"/>
            <path class="cls-2" d="M1062.07,1868.92l39.93.07c31.11,3.27,60.73,11.34,89.07,27-9.84,9.47-18.49,18.65-24,30.42-3.07,6.52-7.48.52-10.68-.73-66.18-25.9-128.89-19.58-186.8,21.63-63.17,44.94-91,125.06-71,199.49,20.2,75.07,84.1,130.15,160.77,138.57,122.41,13.44,223.26-86.57,210.17-208.58a161.17,161.17,0,0,0-11.63-45.92c-2.37-5.6-1.32-8.32,4.3-10.44a52.55,52.55,0,0,0,21.83-15.07c5.58-6.62,7.68-4.43,10.63,2.26,45.87,104.08,5.19,229.93-93.41,288.42-140.21,83.17-319,2.23-348.26-157.63-22.87-125.07,66.05-248.85,191.87-267.07C1050.55,1870.53,1056.31,1869.73,1062.07,1868.92Z"/>
            <path class="cls-2" d="M1185.36,1955.3a47.74,47.74,0,0,1,47.68-48.15c26.1-.24,48.19,21.71,48.26,48s-21.94,48.22-48.07,48.14A47.73,47.73,0,0,1,1185.36,1955.3Z"/>
            <path class="cls-1" d="M1084.42,1286.06c37.51.54,64.85,29,63.53,66.19a65.13,65.13,0,0,1-67.72,63.17c-33.17-1.07-62.14-31.34-62.17-65C1018,1315.13,1048.51,1285.55,1084.42,1286.06Z"/>
            <rect class="cls-2" x="992.61" y="2071.89" width="169.5" height="75.75" rx="37.88"/>
            <circle class="cls-2" cx="1077.36" cy="2099.07" r="89.65">
                <animate id="blink" attributeName="opacity"
                         attributeType="XML"
                         values="0;1;0;1;0;1"
                         dur = "5s"
                         begin="3s;blink.end+10s"
                />
            </circle>
        </g>
        <g id="Calque_5" data-name="Calque 5">
            <animateTransform attributeName="transform"
                              attributeType="XML"
                              type = "rotate"
                              from = "0 1119.27 582.69"
                              to = "360 1119.27 582.69"
                              dur = "10s"
                              repeatCount="indefinite"/>
            <circle class="cls-3" cx="1119.27" cy="582.69" r="582.69"/><g id="ITgZ0B.tif"><path class="cls-4" d="M1586,275.62c15.58-15.57,15.59-15.57,26.12,3.67,1.47,2.7,2.84,5.45,4.25,8.18a156.12,156.12,0,0,1,20.23,41.9q48.21,157.54,9.62,317.79a175.46,175.46,0,0,1-7.36,22.2c-1.46,2.55-3.23,4.59-6.59,4-11.24,1.82-16.61,8.87-19,19.67a47.91,47.91,0,0,1-15.79,26.45c-7.52,6.53-12.67,5.07-13.42-4.81-1.83-23.81-7.38-47.43-3.12-71.59,1.49-8.45,6-19.16-9.47-21-4.67-.55-4.3-6.14-5.38-10.22-4.42-16.8-11.61-30.36-31.63-34-13.31-2.43-28.36-5-34.57-20.79-.56-1.44-3.3-2.75-5.11-2.85-15.31-.87-21.42-11.61-25.32-24.05-1.87-6-3.59-12.4-10.82-10-8.6,2.79-5.06,10-2.71,15.71,3.51,8.58,9.13,15.93,10.86,25.72,1.67,9.45,11.12,6.18,16.94,4.47,17.76-5.18,13.1,14.67,22.53,19.64,7.26,3.83.67,10.59-3.56,15.35-16.24,18.31-39.16,22.36-61,28-11,2.83-22.71,2.57-34.09,3.78-8.13.86-11-2.78-11-10.83,0-33.49-10.27-65.41-15.63-98.09a29,29,0,0,0-4.2-10,6.94,6.94,0,0,0-5.06-2.63c-2.62-.05-2.93,2.63-2.94,4.63,0,6.79-1.23,14,.53,20.29,5.84,21,3.93,43,9.14,64,1.09,4.39,4.15,8.27,6.25,12.41,2.82,5.56,8.36,11.4,7.88,16.68-2.07,22.7,12.24,22.32,27.72,22,5.44-.1,12.9-2.27,15.54,4.18s-3.22,11.47-7.12,16.24c-14.65,17.89-31.5,32-53,42.47-29.76,14.55-53.52,35.24-51.62,74.42,1.08,22.4-6.92,41.61-33.9,46.83-12.35,2.39-23.1,9.82-22.23,26,.22,4.13-2.42,11.21-5.41,12.27-20.74,7.39-28.35,29-45.63,40.32-21,13.7-42.41,12.38-64.57,6.12-6.82-1.93-7.61-8.14-5.31-14.22,3.13-8.25,2.1-16.18,0-24.52-3.24-13.17-4.56-26.29-2-40.2,2.24-12.13,1.86-25.08.61-37.46-1.76-17.3,3.41-30.35,14.54-44.13,16.86-20.85,16.73-46.91,8.43-71.13-4.69-13.68-5-24.05,2.17-36.52,10-17.45,9.09-18.08-9.21-27.22-2.81-1.4-5.7-2.47-6.35-6.19-2.78-15.68-14.41-16.81-26.3-14.22-18.43,4-35.46-4-51.77-8.17-13.44-3.41-22-21.07-24.72-37.07-1.08-6.33-2.22-12.36-5.74-17.61-9-13.35-8.28-26.07.8-39.2,6.89-10,8.52-21.78,11.48-33.46,5.34-21.18,22.89-34.13,42-42.87,9.89-4.52,18.66-8.21,23-19.05,3.14-7.84,10.46-10.59,18.25-13.22,14.38-4.83,16.48-13.51,5.77-23.25-4.87-4.43-5.28-8.69-3.33-13.82,1.66-4.36,4.24-8.37,6.24-12.62,10-21.19,10.25-21.18,31.15-12.13,6.12,2.65,12.78,9.64,19.33.82,5.52-7.46,5.92-15.35.35-23.23-2-2.86-5-5.38-4.65-9.94,21.08-.58,41.63-2.51,59.1-15.9a11,11,0,0,1,7.41-1.74c9.3,1.22,14.46-1.32,15.63-11.77.62-5.54,5-11.68,11.11-3.62,2.37,3.14,2.12,8.59,8.13,6.57a4.63,4.63,0,0,0,2.9-6.39c-2.52-4.64.8-12.48-7.31-14a22.51,22.51,0,0,0-6.23.19c-8.52.88-16.21.56-16.33-11-.12-10.47,3.24-20.61,14.92-19.71,19.51,1.52,30.79-12.15,45.71-19.62a68.35,68.35,0,0,1,61.28-.4c16.81,8.12,32.22,19.19,48,29.27,4.27,2.72,10.35,6.56,7.79,12.08-3.16,6.82-9.75,2.66-15.08,1.4-3.71-.88-7.21-6-11.12-1.76-2.08,2.23-1.43,6.08.4,8.84,2.89,4.33,5.74,4.65,11.53,3.08,11.58-3.13,25.18.34,33.62-12,.45-.66,3.85-.37,3.93-.05,4,16.53,15.65,6.84,23.65,6.27,12.09-.85,21.62,8.64,33.37,6.93,16.3-2.37,29.94,3.75,43,12.23"/><path class="cls-4" d="M1431.72,409.77c-12.62-2.39-16.62-12.36-20.07-23.87-8.69,6.8-16.55,6.6-23.5-1.88-3.36-4.1-7.56-5.59-12.31-2.28-5.3,3.68-9.28,8.54-10.19,15.05-.62,4.42,3.3,5.17,6.31,4.85,17.29-1.81,31.26,5.84,44.78,15.06,5.31,3.63,12.3,2.16,17.73,5.54"/><path class="cls-4" d="M967.15,54.79c7.94,2.6,16.24,4.42,23.73,8,17.19,8.13,32.91,17.9,34.28,40,.16,2.72,2.7,5.51,4.63,7.86,3.18,3.87,9,7,3.15,12.82-5,4.91-10.19,4.47-15.23-.2-1.84-1.7-3.79-3.28-5.73-5-7.5,4.07,1.43,17.25-11.28,17.73s-23.85-1-28.36-15.24c-2.51-7.94-11.78-7-20-14,13.79,1,23.82,4,33.54-1.21,6-3.23,7.18-6.18,3.84-12.22-7-12.67-20.31-16.33-32.83-8.43C942.09,94.26,942,94.29,926.34,92c-1.91,5.92,5.88,8.31,5.16,14.21-4.71,4.5-15.78-7.66-17,6-4.48-.84-6.12-5.89-5.83-8,1.49-10.8-5.44-8.48-11.49-8.61C880.69,95.22,865,99,849.56,104c-13.81,4.46-15.84,16-4.83,25.48,7.49,6.42,13.44,14.72,22.82,18.89,8.26,3.67,3.19,7.9.57,12.23-3,4.88-7.21,10.62-.47,15.07,7.24,4.77,9.92-2.2,12.87-6.93,2.8-4.49,5-8.55,11.91-7.9,15.77,1.48,24.52-6.36,30-21.36,7.54-20.69,19.53-24.08,35.58-12,5.46,4.11,10.41,9.28,8,17.11-4.42,14,5,13.32,12.58,10.49,14.8-5.55,15.62,1.63,12.51,12.35-2.86,9.89-2.41,17.92,5.77,25.52,7.84,7.28,1.94,14.53-2.69,20.77-4.13,5.57-9,9.92-1.64,17,3.81,3.67.25,9.16-2.07,12.81-2.84,4.45-6.9.69-9.53-1-5.44-3.52-14.74-4.06-15.26-11.52-.42-6.13,8.17-6.93,12.55-10.38,2.38-1.87,5.39-3.34,5-8-18.35,3.55-36.54,4.67-52.35-9.26-3.22,8.64,8.32,11.27.95,18.81-10.18,10.41-4.53,15.34,8.14,15.15a50.49,50.49,0,0,1,6.59.8c-10.79,8.64-29.51,8.76-38,.74-3.88-3.66-27.28-.19-32,6.1-4.29,5.71-9,7.05-15.59,8-17.08,2.48-34,6.25-41.18,25.3-1.68,4.45-5.72,5.76-9.87,6.79-4.55,1.12-9.18,2-13.62,3.5-16.12,5.28-32.46,10.33-31.08,32.59.21,3.42-1.8,7-2.87,10.82-6.8-1.62-11.5-4.1-11-12.34.82-14.33-15.61-28-30.07-24.5-6.54,1.6-11.79,1.78-17.85-1.42-15.6-8.25-32-3.94-41.94,10.72-6.7,9.91-13.63,19.67-15.42,32.13-1.73,12.1,1.58,21.87,11.84,28.43,10.5,6.7,18.87,1.81,26.05-6.37,4.66-5.31,10.88-8.09,16.63-4.06,6.73,4.72.34,10.25-1.77,15a34,34,0,0,1-6.24,9c-8.54,9.28-7.32,15.61,5.43,18.28,14,2.92,14.49,11,9.38,22.07-2.6,5.65-5.23,11.65-5.92,17.71-.86,7.65,1.74,15.49,10.56,16.61,8.32,1.06,16.34.51,22.7,7.81,3.14,3.62,6.39-.47,9.23-2.71,16.52-13.07,31.19-12.55,46.27,2.11,7,6.79,14.54,11.34,24.52,12.41,8.14.87,14.17,5.28,17.66,13.49,6.84,16.13,12.66,32.31,32.53,39.1,10.28,3.52,14.51,16,14,27.82-.62,14.85,6.48,23.55,17.58,33.73,17.41,16,39.21,26.86,53.32,46.59,8.65,12.08,5,23.81-4.35,30.53-19.53,14.1-28.29,33.21-35.31,55.09-6.35,19.82-18,35.57-43.28,32.52-9.85-1.18-16.86,3.9-18.87,14.64-4.09,21.85-25.5,30.82-36.37,47.83-4.22,6.59-12.35-1.9-18.74-.91-2.43,4.53.09,8.4.76,12.4,1,5.91-1.28,12.08-6.58,12.54-11,.94-18.88,4.2-27.25,12.36-4.58,4.46-8.29,4.33-4,10.89.81,1.25-1.19,4.9-2.6,7-6,8.82-17.2,16.6-4.37,28.56.8.74-1.73,5.53-3.2,8.16-9.65,17.18-8.86,24.86,3.83,38.77,2.44,2.68,9,4.34,4.79,9.49-3.53,4.31-8.64,2.31-12.85-.24-22-13.41-34.39-33.62-37.18-58.66-1.46-13-3.51-27.18,5.66-39.35,2.26-3,5.11-8-3-8.33-2.67-.12-2.84-3-2.26-4.88,5.08-16.59,1.17-33.85,5.65-51,9.3-35.65,15-72.27,21.66-108.58,1.76-9.58-.15-19-8.23-25.69-18-14.79-22.83-35.41-26-56.89-.92-6.17-.37-13.56-3.61-18.22-13.3-19.09-3.16-37.19,1-55.44,2-8.63,10.05-13,16.59-18.16,14.46-11.46,19.84-27.85,14.21-42.9-1.23-3.3-2.86-9.3-6.61-5.75-12.52,11.84-14.78-3.49-21.37-7.09a4,4,0,0,1-1.92-2.42c-4.69-26.85-26-42.83-41.06-62.91-1.82-2.42-4.27-6.27-6.42-6.26-20.11.05-28.11-18.15-42.08-27.2-13.66-4.67-18.14-14.08-13.71-27.58,2.39-7.29-.47-15.49,4.22-22.28C607.43,276,626,253.34,643.53,230.34c36.48-47.78,79.83-88.54,129-123.29,26.85-19,55.8-34,85.07-48.62,13.57,1.85,26.69-3.63,40.35-2.53,2.65-5.4-4.49-10.61-.4-16l19.77-.48c7.52-.73,14.94,1.23,22.59.27a10.63,10.63,0,0,1,11.71,8.47c1.63,7.11-5.41,6.2-9.09,8.07-2.72,1.38-6.3,1.07-8.77,3-3.63,2.89-4.42,6.89-3,11.28.49,1.55,1.51,3,3.18,3,5.3-.23,4.37-4.93,5.36-8.1C944.08,50,955.61,52.4,967.15,54.79Z"/><path class="cls-5" d="M1698.72,666.76c-1.62-15.54-18.47-22.81-32.13-13.68A170.29,170.29,0,0,1,1635.35,670c8.05-37,16.94-73.75,19.68-111.82a677.5,677.5,0,0,0-.2-105.84,574.85,574.85,0,0,0-22.68-117.54c-4.78-15.93-10.51-31.57-15.8-47.34,7.54-2.72,6.83,4.63,8.68,7.79,32.64,55.66,54.81,115.47,67.51,178.56,11.09,55.1,16.46,110.78,8.9,167C1700.28,649.44,1703.9,658.57,1698.72,666.76Z"/><path class="cls-3" d="M1434.47,422.24c-6.49,4.5-12.83,2.85-19.18-.39-28.86-14.71-28.87-14.7-56-15.71-2.21-12.71,4.6-21.42,13.26-29,7.69-6.73,14.71-7.55,19.64,3.58,4.06,9.15,9,11.61,14.38.77,2.52-5.06,7.05-4.27,10.81-2.8,4.41,1.74,1.39,4.87.45,7.69-4.39,13,10.54,14.8,13.86,23.39Q1433.1,416,1434.47,422.24Z"/><path class="cls-6" d="M1310,886.47c2-6.93,6.91-13.63,9-20.59,6.83-23.26,26.25-31.42,44.48-41.6,2.67-1.49,4.94-4.48,8.28-2.76,4.18,2.14,3.86,6.66,2.15,9.56-13.95,23.72-27.74,47.61-47.08,67.56-3.07,3.16-7.19,4.78-11.32,2Q1308.36,895.93,1310,886.47Z"/><path class="cls-7" d="M1222.11,289c-3.58-.52-7.16-1.32-10.76-1.51-10.69-.57-12-8-6.21-13.24,9.19-8.2,8.57-14.57,3.77-24.76-3.29-7-1.4-16,10.44-15.86,4.83.07,9.46,2.17,7.78,7.07-4.44,13,2.95,22.92,6.79,33.9C1237.5,284.87,1232.78,290.55,1222.11,289Z"/><path class="cls-3" d="M1181.38,392.89c-2.81,1.19-7.12-.52-10.53-1.56-4.26-1.31-11.25-1.87-10.27-7.42,1.32-7.45,7.89-4.17,12.83-3.15,7.08,1.47,14.08.65,18.57-5.3,7.78-10.34,19.83-14.86,29-22.66,10.37-8.82,18.28,3.24,27.8-1.58,13.2-6.68,14.5,6,18.25,14.25a34.85,34.85,0,0,0,8.28,11.17c7.63,6.83,12.78,14.54,11.37,26.44,10.38-9,15.61-16.75,2.8-26.41-5.57-4.21-7-11.39-9.29-17.78-1.21-3.42-3.44-7.49,1-9.58,4.3-2,6.16,2.5,8.39,5.16,14.56,17.43,22.08,37.79,25.21,60.06.57,4.05-1,11.22,6.57,9.34,5.11-1.25,11.63-4,8.1-12.1-2.92-6.68.3-10,6.41-11.12,7.13-1.26,9,4.07,9.79,9.43.74,5.14.56,10.41.73,15.62.25,7.23,3.72,12.53,10.95,13,10.67.67,18.57,9.47,29.44,9.08a5.75,5.75,0,0,1,6,4.23c2.64,11.85-6.07,19.2-11.59,27.73-4.37,6.73-9.44,1.91-14.91,1.23-21.77-2.71-38-15.47-54.71-27.66-5.49-4-11-4.6-14.42,2.21-5.48,11-11.05,7.57-18.06,1.53-10.57-9.11-17.74-21.79-30.7-28.45-5.09-2.62-2.79-6.92-.39-10.68"/><path class="cls-3" d="M1488.72,400.44c5-.36,9.71.26,11.9,5.39,2.73,6.38-2.91,5.9-6.43,7.72-13,6.73-4,15.55.59,20,13.47,13.17-.29,26.33,1.33,39.38.55,4.44-7.88,3.21-11.86,1-6.82-3.81-16-9.15-11-17.65,6.41-10.78,1.66-18.41-1.87-27.47C1464.55,411.24,1471,401,1488.72,400.44Z"/></g></g><g id="Calque_4" data-name="Calque 4"><g id="Calque_8" data-name="Calque 8"><path d="M647.52,2381.79c-.29-38-48.25-80.67-86-74.87-103.2,15.85-199.46-2.92-291.21-52.17-13.59-7.3-35.13-7.67-50.32-2.84-97.48,31-191.81-18.95-216.17-116.59-10.91-43.71,2.05-74.4,35.68-84.55,34.82-10.51,58.58,6.28,71.95,52.41,8.9,30.68,26.57,49.65,60.08,44.06,26.8-4.47,42.41-23.56,41.26-50.34-1.44-33.19-22-47.9-55.27-49-46.53-1.49-70.29-22.81-68.93-58.51,1.28-33.9,29.79-55.15,74-55.17,90.31,0,161.92,69.36,161.36,160.83-.19,29.79,7.41,48.81,35.91,56.35,40.54,10.73,81,22.78,122.36,29.12,38.7,5.94,76.89,3.4,94.44-43.15,3.82-10.14,14.65-21.38,24.72-24.77,0,0,54-34,60-22S647.52,2381.79,647.52,2381.79ZM162.38,2229.51c72,.22,131.82-58.43,132.44-129.77.64-72.48-61.86-137.31-132.69-133.65-14.3.74-27.8,16.82-41.67,25.84,12.8,7.84,25,21.07,38.49,22.55,46.51,5.09,78,28.75,84.41,69,7,43.81-19.37,84.89-59.93,93.53-49.12,10.46-85.69-13.79-102.66-63.57-4.34-12.74-20-21.65-30.41-32.32-5.37,15.18-17.56,31.65-15,45.32C47.29,2189,99.42,2229.32,162.38,2229.51ZM559.82,2274c-12.74-24.43,5-63.16-32.74-61.66-74.47,2.95-144.19-9.15-211.31-46.27L277,2220.41C365.25,2271.16,454.64,2293.11,559.82,2274Z"/></g><path class="cls-1" d="M162.38,2229.51c-63-.19-115.09-40.55-127-103.06-2.6-13.67,9.59-30.14,15-45.32,10.44,10.67,26.07,19.58,30.41,32.32,17,49.78,53.54,74,102.66,63.57,40.56-8.64,66.89-49.72,59.93-93.53-6.4-40.26-37.9-63.92-84.41-69-13.49-1.48-25.69-14.71-38.49-22.55,13.87-9,27.37-25.1,41.67-25.84,70.83-3.66,133.33,61.17,132.69,133.65C294.2,2171.08,234.34,2229.73,162.38,2229.51Z"/><path class="cls-1" d="M559.82,2274c-105.18,19.11-194.57-2.84-282.8-53.59l38.75-54.34c67.12,37.12,136.84,49.22,211.31,46.27C564.86,2210.84,547.08,2249.57,559.82,2274Z"/></g></g></svg>