<svg xmlns="http://www.w3.org/2000/svg" viewBox="0 0 566.07 341.99"><defs><style>.cls-1{fill:#fff;}.cls-2{fill:#020203;}</style></defs><g id="Calque_2" data-name="Calque 2"><g id="Calque_1-2" data-name="Calque 1"><path d="M387,213.93c-.58,9.93,25.72,24.57,35.7,23.71,27.24-2.37,52.08,4.2,75.21,18.65,3.43,2.14,9.06,2.61,13.11,1.61,26-6.43,49.81,8.25,54.5,34.2,2.09,11.61-1.82,19.41-10.79,21.48-9.28,2.15-15.2-2.65-17.9-14.94-1.8-8.17-6.09-13.43-15-12.55-7.08.71-11.49,5.43-11.65,12.45-.19,8.7,4.93,12.9,13.6,13.75,12.14,1.19,18,7.17,17,16.48-.92,8.84-8.74,13.9-20.3,13.14-23.61-1.54-41.13-20.91-39.41-44.81.56-7.78-1.1-12.89-8.42-15.35-10.41-3.5-20.79-7.35-31.48-9.72-10-2.22-20-2.21-25.43,9.66a12.05,12.05,0,0,1-6.88,6s-14.71,8-16.07,4.71S387,213.93,387,213.93Zm138.68,50.81c-18.81-1.29-35.46,13-36.85,31.64-1.42,18.94,13.8,37,32.38,37.22,3.75.06,7.56-3.92,11.34-6-3.21-2.27-6.17-5.94-9.68-6.56C510.8,318.88,503,312.15,502,301.52c-1.07-11.57,6.52-21.86,17.27-23.42,13-1.88,22.17,5.08,25.74,18.39.92,3.4,4.85,6,7.4,9,1.66-3.88,5.13-8,4.69-11.59C555.07,277.33,542.13,265.88,525.68,264.74ZM422.56,246.27c2.91,6.61-2.4,16.42,7.5,16.68,19.51.51,37.53,4.88,54.43,15.74l11.07-13.54C473.37,250.36,450.38,243.09,422.56,246.27Z"/><path d="M170.55,195.93c14.78-44.68,45.55-71.52,91.91-80.31,4.38-.83,8.79-1.49,14.37-2.43,0-11.16.05-22.16-.07-33.16,0-1.21-.66-3.2-1.5-3.51-14-5.28-3.25-8.21,1.63-11.38-10.24-6.36-10.34-8.11-1.35-13-17.06-9.5-22.58-18.69-19.45-32.39A26.12,26.12,0,0,1,280,0a25.49,25.49,0,0,1,25.54,18.82c4,13.78-.64,22-18.49,33.14,1.83,2.17,5.43,4.66,5.12,6.5-.39,2.35-3.94,4.17-6.56,6.62,4.48,3.38,14,7.24.53,11.85-.74.25-1.12,2.44-1.13,3.74C285,91.36,285,102,285,109.62c20.52,7.85,40.17,12.91,57.28,22.49,27.15,15.2,44.08,39.88,50.78,70.33l3.52,86.12c0,5.51,0,11,0,17.45h-231c0-9.22-.62-18.16.16-27ZM280.8,299v.09q49.38,0,98.75,0c5.28,0,9.59-.11,9.39-7.42-.69-25.93.87-52.08-1.94-77.75-5.53-50.58-51.1-90.82-101.15-91.91-54.14-1.18-101.69,35-109.56,86.85-4,26.11-1.61,53.15-2.7,79.74-.34,8.33,2.4,10.63,10.55,10.53C216.36,298.73,248.58,299,280.8,299ZM281.28,9A17.21,17.21,0,0,0,263.89,25.9c0,8.81,7.6,16.74,16.29,17a17.07,17.07,0,0,0,17.74-16.55C298.26,16.63,291.1,9.17,281.28,9Z"/><path class="cls-1" d="M525.68,264.74c16.45,1.14,29.39,12.59,31.42,29.13.44,3.62-3,7.71-4.69,11.59-2.55-3-6.48-5.57-7.4-9-3.57-13.31-12.72-20.27-25.74-18.39C508.52,279.66,500.93,290,502,301.52c1,10.63,8.8,17.36,20.87,19.49,3.51.62,6.47,4.29,9.68,6.56-3.78,2.11-7.59,6.09-11.34,6-18.58-.26-33.8-18.28-32.38-37.22C490.22,277.75,506.87,263.45,525.68,264.74Z"/><path class="cls-1" d="M422.56,246.27c27.82-3.18,50.81,4.09,73,18.88l-11.07,13.54c-16.9-10.86-34.92-15.23-54.43-15.74C420.16,262.69,425.47,252.88,422.56,246.27Z"/><path class="cls-1" d="M280.8,299c-32.22,0-64.44-.24-96.66.17-8.15.1-10.89-2.2-10.55-10.53,1.09-26.59-1.26-53.63,2.7-79.74,7.87-51.87,55.42-88,109.56-86.85,50,1.09,95.62,41.33,101.15,91.91,2.81,25.67,1.25,51.82,1.94,77.75.2,7.31-4.11,7.43-9.39,7.42q-49.37-.12-98.75,0Z"/><path class="cls-1" d="M281.28,9c9.82.14,17,7.6,16.64,17.34a17.07,17.07,0,0,1-17.74,16.55c-8.69-.28-16.28-8.21-16.29-17A17.21,17.21,0,0,1,281.28,9Z"/><path class="cls-2" d="M275.42,161.71l10.46,0a60.36,60.36,0,0,1,23.34,7.08c-2.58,2.48-4.85,4.88-6.3,8-.81,1.7-2,.13-2.8-.19-17.34-6.79-33.76-5.13-48.93,5.66a48.7,48.7,0,0,0-18.61,52.26,49.33,49.33,0,0,0,42.11,36.3c32.07,3.52,58.49-22.68,55.06-54.64a42.07,42.07,0,0,0-3.05-12c-.62-1.47-.34-2.18,1.13-2.74a13.73,13.73,0,0,0,5.72-3.94c1.46-1.74,2-1.16,2.78.59,12,27.26,1.36,60.23-24.47,75.55-36.73,21.79-83.57.59-91.23-41.29-6-32.76,17.31-65.19,50.27-70Z"/><path class="cls-2" d="M280.62,194.5c15.22,0,27.73,12.44,27.62,27.39a27.7,27.7,0,0,1-55.39-.24A27.41,27.41,0,0,1,280.62,194.5Z"/><path class="cls-2" d="M307.72,184.34a12.49,12.49,0,0,1,12.49-12.61,12.59,12.59,0,1,1,.05,25.17A12.49,12.49,0,0,1,307.72,184.34Z"/><path d="M173,293.64c-1.68,3.1-15.53-6.25-15.53-6.25a12.08,12.08,0,0,1-6.27-6.69c-4.21-12.33-14.19-13.31-24.37-12.08-10.87,1.31-21.57,4.13-32.28,6.6-7.52,1.74-9.67,6.66-9.87,14.46-.61,23.95-19.94,41.53-43.58,40.77-11.58-.38-18.87-6.18-18.92-15.07-.06-9.35,6.34-14.74,18.53-14.74,8.72,0,14.23-3.68,14.88-12.36.52-7-3.4-12.13-10.38-13.52-8.73-1.75-13.52,3.08-16.1,11-3.88,12-10.25,16.17-19.27,13.13C1.15,296-2,287.84,1.24,276.48c7.19-25.36,32.3-37.65,57.56-28.72,3.94,1.39,9.58,1.47,13.2-.33,24.43-12.13,49.79-16.25,76.68-11.24,9.85,1.84,22.76-8.93,23.15-18.88C171.83,217.31,174.72,290.54,173,293.64ZM9.44,279.07c-.79,3.56,2.26,8,3.54,12,2.82-2.71,7-4.91,8.23-8.21,4.86-12.89,14.64-18.94,27.41-15.79,10.55,2.6,17.1,13.57,14.91,25-2,10.48-10.45,16.42-22.67,17.36-3.55.28-6.85,3.64-10.27,5.59,3.56,2.47,7,6.8,10.7,7.11,18.51,1.55,35.41-14.91,35.85-33.89.43-18.68-14.75-34.54-33.6-35.08C27.06,252.67,13.07,262.8,9.44,279.07Zm64-22.59L83.18,271c17.88-9.16,36.23-11.75,55.71-10.36,9.88.71,5.54-9.58,9.08-15.87C120.59,238.92,97,243.92,73.48,256.48Z"/><path class="cls-1" d="M43.54,253.14c-16.48-.47-30.47,9.66-34.1,25.93-.79,3.56,2.26,8,3.54,12,2.82-2.71,7-4.91,8.23-8.21,4.86-12.89,14.64-18.94,27.41-15.79,10.55,2.6,17.1,13.57,14.91,25-2,10.48-10.45,16.42-22.67,17.36-3.55.28-6.85,3.64-10.27,5.59,3.56,2.47,7,6.8,10.7,7.11,18.51,1.55,35.41-14.91,35.85-33.89C77.57,269.54,62.39,253.68,43.54,253.14Z"/><path class="cls-1" d="M148,244.8c-27.38-5.88-51-.88-74.49,11.68L83.18,271c17.88-9.16,36.23-11.75,55.71-10.36C148.77,261.38,144.43,251.09,148,244.8Z"/><path class="cls-1" d="M212.44,236.34c9.83.14,17,7.6,16.64,17.34a17.07,17.07,0,0,1-17.74,16.55c-8.69-.28-16.27-8.21-16.28-17C195,244,203,236.21,212.44,236.34Z"/></g></g></svg>