<svg xmlns="http://www.w3.org/2000/svg" viewBox="0 0 1613.31 2291.4"><defs><style>.cls-1{fill:#fff;}.cls-2{fill:#050607;}.cls-3{fill:#525560;}.cls-4{fill:#ffe35f;}.cls-5{fill:#f0eef2;}.cls-6{fill:#f0eff2;}.cls-7{fill:#f1eff2;}.cls-8{fill:#f2eef3;}.cls-9{fill:#f2eef2;}.cls-10{fill:#efeef4;}.cls-11{fill:#bfd4a1;}.cls-12{fill:#bad1a4;}.cls-13{fill:#c8d6a4;}.cls-14{fill:#bed39f;}.cls-15{fill:#c2d5a5;}.cls-16{fill:#c6d89f;}.cls-17{fill:#71c6e1;}.cls-18{fill:#73c5e1;}.cls-19{fill:#75c5e2;}.cls-20{fill:#75c5df;}.cls-21{fill:#75c5de;}</style></defs><g id="Calque_2" data-name="Calque 2"><g id="Calque_1-2" data-name="Calque 1"><g id="Groupe_5" data-name="Groupe 5"><path id="Tracé_32" data-name="Tracé 32" d="M1103,1926.4c-1.65,28.33,73.28,70,101.72,67.58,77.66-6.74,148.45,12,214.38,53.16a53.53,53.53,0,0,0,37.35,4.59c74.14-18.31,142,23.53,155.32,97.47,6,33.09-5.18,55.32-30.74,61.24-26.45,6.11-43.33-7.56-51-42.58-5.12-23.31-17.35-38.3-42.59-35.78a34.48,34.48,0,0,0-33.2,35.48c-.57,24.79,14,36.76,38.76,39.19,34.59,3.4,51.24,20.44,48.49,47-2.63,25.19-24.9,39.62-57.86,37.46-67.28-4.4-117.22-59.61-112.31-127.72,1.59-22.18-3.13-36.72-24-43.74-29.67-10-59.25-20.95-89.72-27.68-28.54-6.32-57.12-6.32-72.48,27.51a34.38,34.38,0,0,1-19.63,17.23s-41.9,22.68-45.79,13.42S1103,1926.4,1103,1926.4Zm395.24,144.84a98.84,98.84,0,0,0-105,90.18c-4,54,39.34,105.33,92.28,106.08,10.68.15,21.53-11.17,32.31-17.2-9.15-6.48-17.59-16.93-27.57-18.7-34.4-6.08-56.7-25.25-59.49-55.55-3-33,18.59-62.3,49.23-66.74,37.11-5.37,63.17,14.48,73.36,52.4,2.62,9.71,13.82,17.11,21.07,25.57,4.75-11.05,14.63-22.72,13.37-33C1581.93,2107.1,1545.09,2074.48,1498.2,2071.24Zm-293.9-52.65c8.3,18.83-6.85,46.8,21.37,47.54,55.63,1.46,107,13.9,155.15,44.85l31.54-38.59c-63.25-42.13-128.77-62.86-208.06-53.79Z"/><path id="Tracé_33" data-name="Tracé 33" d="M486.05,1875.13c42.13-127.36,129.82-203.85,262-228.9,12.48-2.37,25.06-4.25,41-6.94,0-31.81.13-63.13-.19-94.49,0-3.46-1.88-9.11-4.29-10-39.82-15-9.26-23.39,4.65-32.42-29.18-18.14-29.47-23.13-3.84-37.07-48.63-27.1-64.36-53.28-55.45-92.32a74.46,74.46,0,0,1,68.25-56.22,72.65,72.65,0,0,1,72.81,53.64c11.4,39.28-1.84,62.74-52.7,94.47,5.22,6.17,15.48,13.28,14.6,18.51-1.13,6.7-11.23,11.88-18.71,18.89,12.77,9.62,39.95,20.63,1.5,33.75-2.09.71-3.18,7-3.21,10.68-.25,30.41-.14,60.83-.14,82.44,58.49,22.39,114.49,36.8,163.26,64.11,77.39,43.34,125.62,113.64,144.72,200.46l10,245.42v49.76H471.94c0-26.28-1.77-51.78.49-76.93Zm706.56,86.51L800.29,2168.79v.25q140.7,0,281.43.11c15,0,27.33-.3,26.77-21.15-2-73.89,2.48-148.41-5.52-221.6-15.77-144.14-145.67-258.81-288.3-261.93-154.3-3.38-289.82,99.7-312.26,247.53-11.3,74.41-4.6,151.46-7.69,227.26-1,23.73,6.83,30.3,30.06,30,91.82-1.17,183.67-.47,275.51-.47Z"/><path id="Tracé_34" data-name="Tracé 34" class="cls-1" d="M1498.2,2071.24c46.9,3.24,83.75,35.86,89.54,83,1.26,10.31-8.62,22-13.37,33-7.25-8.46-18.45-15.86-21.07-25.57-10.19-37.92-36.25-57.79-73.36-52.4-30.64,4.44-52.27,33.76-49.23,66.74,2.79,30.3,25.09,49.48,59.49,55.56,10,1.76,18.42,12.21,27.57,18.69-10.78,6-21.63,17.35-32.32,17.2-52.93-.75-96.31-52.12-92.27-106.08A98.84,98.84,0,0,1,1498.2,2071.24Z"/><path id="Tracé_35" data-name="Tracé 35" class="cls-1" d="M1204.3,2018.6c79.29-9.08,144.81,11.65,208,53.8L1380.81,2111c-48.17-30.94-99.52-43.38-155.14-44.84C1197.45,2065.4,1212.6,2037.42,1204.3,2018.6Z"/><path id="Tracé_36" data-name="Tracé 36" class="cls-1" d="M800.28,2168.8c-91.84,0-183.68-.69-275.5.48-23.23.3-31-6.27-30.07-30,3.09-75.79-3.6-152.85,7.69-227.26,22.44-147.82,158-250.9,312.27-247.53,142.62,3.12,272.52,117.79,288.29,261.94,8,73.18,3.55,147.7,5.53,221.6.56,20.84-11.72,21.18-26.77,21.15q-140.72-.33-281.43-.12Z"/><path id="Tracé_37" data-name="Tracé 37" class="cls-1" d="M801.63,1342.44a46.7,46.7,0,0,1,47.5,45.91c0,1.17,0,2.33-.07,3.5A48.62,48.62,0,0,1,799,1439l-.53,0a49.82,49.82,0,0,1-46.42-48.51A49,49,0,0,1,801.63,1342.44Z"/><g id="Groupe_4" data-name="Groupe 4"><path id="Tracé_38" data-name="Tracé 38" class="cls-2" d="M784.94,1777.59l29.81.05a171.92,171.92,0,0,1,66.49,20.18,78.43,78.43,0,0,0-18,22.71c-2.29,4.86-5.59.39-8-.55-49.4-19.33-96.22-14.62-139.45,16.15a138.78,138.78,0,0,0-53,148.93,141.32,141.32,0,0,0,276.94-52.26,120.33,120.33,0,0,0-8.69-34.29c-1.77-4.17-1-6.21,3.21-7.77a39.09,39.09,0,0,0,16.3-11.25c4.17-4.94,5.74-3.3,7.94,1.69a173,173,0,1,1-329.75,97.64C611.68,1885.46,678.07,1793,772,1779.44,776.34,1778.79,780.64,1778.2,784.94,1777.59Z"/><path id="Tracé_39" data-name="Tracé 39" class="cls-2" d="M799.77,1871a78.26,78.26,0,1,1-79.16,77.38A78.26,78.26,0,0,1,799.77,1871Z"/><path id="Tracé_40" data-name="Tracé 40" class="cls-2" d="M877,1842.08a35.65,35.65,0,0,1,35.35-35.94h.25a35.87,35.87,0,0,1,1,71.74h-.85A35.64,35.64,0,0,1,877,1842.35Z"/></g><path id="Tracé_41" data-name="Tracé 41" d="M493.14,2153.6c-4.78,8.85-44.27-17.81-44.27-17.81A34.46,34.46,0,0,1,431,2116.73c-12-35.16-40.43-37.95-69.44-34.44-31,3.75-61.49,11.78-92,18.83-21.44,5-27.57,19-28.13,41.2-1.75,68.26-56.82,118.36-124.22,116.19-33-1.07-53.77-17.6-53.9-42.93-.17-26.67,18.07-42,52.83-42,24.85,0,40.54-10.5,42.4-35.23A34.48,34.48,0,0,0,129,2099.79c-24.88-5-38.52,8.77-45.88,31.45-11.07,34.11-29.2,46.08-54.93,37.4-24.86-8.37-33.8-31.57-24.63-63.94,20.49-72.29,92.07-107.33,164.07-81.88a53.51,53.51,0,0,0,37.62-.92c69.63-34.58,141.9-46.3,218.53-32.06,28.07,5.23,64.87-25.46,66-53.82C489.69,1936,497.93,2144.75,493.14,2153.6ZM26.88,2112.07c-2.27,10.14,6.43,22.72,10.09,34.17,8-7.71,19.91-14,23.46-23.39,13.84-36.75,41.7-54,78.11-45,30.06,7.41,48.74,38.69,42.5,71.21-5.73,29.89-29.79,46.8-64.62,49.5-10.1.78-19.52,10.37-29.26,15.92,10.14,7.05,19.84,19.37,30.49,20.26,52.76,4.41,100.94-42.49,102.18-96.58a98.83,98.83,0,0,0-95.76-100C77.09,2036.83,37.22,2065.71,26.88,2112.07Zm182.52-64.39L237,2089.16c51-26.11,103.27-33.51,158.77-29.52,28.17,2,15.81-27.31,25.9-45.24-78-16.75-145.27-2.49-212.29,33.28Z"/><path id="Tracé_42" data-name="Tracé 42" class="cls-1" d="M124.07,2038.18c-47-1.35-86.85,27.54-97.19,73.89-2.27,10.14,6.43,22.72,10.09,34.18,8-7.72,19.91-14,23.46-23.4,13.84-36.74,41.7-54,78.11-45,30.06,7.4,48.74,38.68,42.5,71.21-5.73,29.89-29.79,46.8-64.62,49.5-10.1.78-19.52,10.37-29.26,15.91,10.14,7.05,19.84,19.38,30.49,20.27,52.76,4.41,100.94-42.49,102.18-96.59A98.83,98.83,0,0,0,124.07,2038.18Z"/><path id="Tracé_43" data-name="Tracé 43" class="cls-1" d="M421.7,2014.4c-78-16.76-145.25-2.5-212.3,33.28L237,2089.15c51-26.11,103.27-33.51,158.78-29.52C424,2061.65,411.61,2032.32,421.7,2014.4Z"/><path id="Tracé_44" data-name="Tracé 44" class="cls-1" d="M605.44,1990.31A46.71,46.71,0,0,1,653,2036.2c0,1.18,0,2.35-.08,3.52a48.61,48.61,0,0,1-50,47.18l-.54,0a49.82,49.82,0,0,1-46.42-48.51A49,49,0,0,1,605.44,1990.31Z"/></g><g id="Groupe_6" data-name="Groupe 6"><path id="Tracé_45" data-name="Tracé 45" class="cls-3" d="M647.21,0a265.38,265.38,0,0,1,73.26,9.43,284.83,284.83,0,0,1,70.32,31.42,315.39,315.39,0,0,1,60.7,47.71,375.9,375.9,0,0,1,47,55.41,515.83,515.83,0,0,1,39.09,71.44,84.13,84.13,0,0,1,4.26,14.15c1.27,5.17,3.31,4.55,6.8,1.78,10.41-8.22,18.61-18.94,29.89-26.14,21.29-13.54,41-30,66.42-36,35.58-8.43,70.73-7.49,103.71,8.63,28.22,13.8,54.5,30.76,72.5,58.28a173.73,173.73,0,0,1,29,102.34,206.81,206.81,0,0,1-22.34,85.92c-.57,1.18-1,2.43-1.48,3.83,4.59,1.87,8.54-.88,12.69-.86,42.39.25,83.41,5.2,118.29,32.74A103.34,103.34,0,0,1,1385,490.93a402.52,402.52,0,0,1,25.56,50.29,175.74,175.74,0,0,1,9.87,68.69c-.67,23.27-10.56,43.76-21.09,63.92a159.46,159.46,0,0,1-75,70.68c-18,8.6-36.25,18.22-56.57,20.92a453.06,453.06,0,0,1-65.24,3.6c-3.11,0-6,.68-9.08.63-22.43-.35-44.87-.49-67.29-1.19a123,123,0,0,0-18.71.64c-21.24,2.58-42.48-.13-63.72-.74a90.82,90.82,0,0,0-24.08,1,73.33,73.33,0,0,1-30.53-1.56c2-3,2.65-6.65,4.47-9.71s3.66-6,8.08-4a7.34,7.34,0,0,0-10.32,1.16,7.5,7.5,0,0,0-1,1.72c-2,3.16-4.12,4.73-7.69,3.13-3.17-1.43-5.07.71-7.14,2.32-1.7,1.33-2.19,4.06-4.9,4.23-3.7-2.76-6.22-6.84-10-9.44-2.15-1.46-4.3-5.23-7.78-1.75a10.44,10.44,0,0,1-3.27,1.71,6.06,6.06,0,0,0,3.27-1.7c3.07-2,5.23-.21,6.65,2.09a26.64,26.64,0,0,0,10.66,8.7,3.48,3.48,0,0,1,1.77,3.09c-8.92,2.61-17.72-.42-26.54-.85a297,297,0,0,0-35,.55c-11.78.82-23.66.17-35.5.16-4.89,4.12-10.75,2.82-16.17,2.37a303.71,303.71,0,0,0-53.69,0,67.48,67.48,0,0,1-20.11-.68,27.06,27.06,0,0,0-10.72-.19,98.56,98.56,0,0,1-30.71.64,194.68,194.68,0,0,0-42.89.81c-11.92,1.26-23.12-1.46-34.64-2.25-7.23-1.75-5.23-7.77-5.81-13-.27,5.8-1.25,10.74-8,11.54a2.89,2.89,0,0,1-1.66-.76c-3.52-1.45-4.66-4.14-2.72-8.37-2.91,1.4-5.14,2.14-4.86,4.48.22,1.7,2.51,1.35,3.82,2a11.85,11.85,0,0,1,4,2.21c-.31,1-.72,1.81-2,1.11-21.37.18-42.7.27-64.05.58a166.5,166.5,0,0,1-30.93-.7c-15.31-2.62-30.36,2.37-45.65,1.29-33.17-2.33-66.43-1.21-99.63-1.61a345.41,345.41,0,0,1-95.13-14.57c-25.53-7.64-50.44-18.45-69.19-39.42-7-7.8-16.73-13.11-22.78-21.82-20.49-29.5-36.11-60.95-36.36-98a9.56,9.56,0,0,0,8.61-4.25c2.26-3.79,7.4-3,10.35-6.31-7.94-.62-3.16-10.82-9.72-12.27,1.87,12.09.44,13.77-9.22,10.64,2.26-35.45,9.44-69.27,32.95-97.57a15.06,15.06,0,0,0,2.82-3.76c6.91-18.34,23.22-27.68,37.88-38,17-11.94,37.16-17.68,57.23-22.55a168.68,168.68,0,0,1,57.31-5.7c1.18.12,2.91.78,3.5-.93.49-1.36-.42-2.55-1.27-3.63-14.9-19-20.49-42.12-28.62-64.14"/><path id="Tracé_46" data-name="Tracé 46" class="cls-3" d="M345.11,341.37a108.86,108.86,0,0,1-6.48-34.86c.25-7.36-1-14.79-1.29-22.14a210.49,210.49,0,0,1,12.05-75.27c2.4-7.22,5-14.35,7.22-21.63a72.89,72.89,0,0,1,11.89-25.39,20.76,20.76,0,0,0,3.26-5.08c10.64-27,33.44-45.17,49.42-68.3,5.34-7.74,14.73-10.81,21.6-17,12.53-11.24,24.64-23.28,39.89-30.84C508.76,28,535,15.56,563.93,9.56A395.58,395.58,0,0,1,647.21,0"/><path id="Tracé_47" data-name="Tracé 47" class="cls-4" d="M650.51,767.82a.63.63,0,0,0,.88,0,.61.61,0,0,0,.12-.16,14,14,0,0,1,12.39-.25c7.64.18,15.12,2,22.65,2.59a164.77,164.77,0,0,0,25.31-1.23,149.69,149.69,0,0,1,31.53.06,97.64,97.64,0,0,0,28.76-.71c7.59-1.25,15.21,1.09,22.8.84a511.49,511.49,0,0,1,52.39-.75c9.15.64,18.34.71,27.52,1a380.71,380.71,0,0,1-19.05,51.83,62.21,62.21,0,0,0-4.11,17.48c-1.65,12.46-8.74,22.83-12.65,34.36-.49,1.45-1.34,2.84-1.76,4.33-1.78,6.35-.67,7.77,6.11,7.91,7.33-.48,14.55-2.08,21.93-2,20,.29,39.94-.81,59.83-1.76,20.48-1,41.05-2.8,61.46-5.49a62.49,62.49,0,0,1,10.77-.12c5.07.23,6.23,2.09,5,6.92a42.07,42.07,0,0,1-8.89,14.85,474.36,474.36,0,0,0-27.84,41.54c-17.55,28.6-37.57,55.46-57.4,82.47h0c-9.39,11.3-14.46,25.35-23.59,36.91a165.85,165.85,0,0,0-13.93,21.07,237.64,237.64,0,0,1-27.33,39.06c-4.37,5-6.1,11.33-10.15,16.35-6.24,8.88-11.74,18.24-17.77,27.25a18.77,18.77,0,0,1-4,4.19,131.63,131.63,0,0,1-11.74,16.31c-5.72,8.54-10.08,17.87-15.63,26.5-7.09,11-15,21.48-22.83,32-3.48,4.67-6.53,9.62-10.15,14.18-9.53,15-18.07,30.64-27.2,45.89-.58,1-1,2-1.57,3-1.51,2.43-2.73,6.06-6.11,5.3-3.89-.87-1.65-4.65-1.58-6.95a167.49,167.49,0,0,1,4.33-25.74c1.57-8.29,2.89-16.68,5-24.89,5.4-19.54,11.23-39,12.17-59.44a43.57,43.57,0,0,1,2.57-11c5-15.54,5.38-32,10.37-47.67,2.88-9,2-18.94,4.3-28.41,4.72-19.46,9.82-38.85,14.26-58.38a51.78,51.78,0,0,1,1.54-10.51c1.36-7.2,5.53-13.67,5.51-21.22,0-5-1.64-7.67-7.39-6.23-19.16,4.8-39.1,4.85-58.31,8.82-17.49,3.61-35.46.26-52.64,4.86-17.73,4.72-36.56,3.61-53.85,10.45a3.69,3.69,0,0,1-.65.18c-9.95,2.43-11.17,1.35-8.48-8.55a493.6,493.6,0,0,0,12.78-59.54c.76-5.3,4.52-9.76,5.09-15.23,2-15.23,6.32-30,9.75-44.88,4.06-17.7,7.15-35.66,12.43-53.11,2.38-7.88,1.48-16.38,3.43-24.43a32.84,32.84,0,0,1,1.41-7.14c1.9-14.74,11.2-27.74,10.15-43.22a79.38,79.38,0,0,1,.25-8l1.74-1.41Z"/><path id="Tracé_48" data-name="Tracé 48" class="cls-5" d="M1137.3,955.5c-18-.16-30.2-11.13-36-32a46.12,46.12,0,0,1,5-33.81,90.27,90.27,0,0,1,22-27.54c9.78-8.49,18.16-18.59,29.21-25.65,3.77-2.43,7.77-4.46,11.66-6.66,4.29-2.43,7.11-1.24,8.94,3.34a117.35,117.35,0,0,1,6.73,67.65,218.62,218.62,0,0,1-8.16,29.62C1173.13,940.77,1152.38,957.13,1137.3,955.5Z"/><path id="Tracé_49" data-name="Tracé 49" class="cls-6" d="M406.11,863.44c1.16,14.75-4.11,28.46-9.38,42.4A45.31,45.31,0,0,1,377.67,930a26.08,26.08,0,0,1-19.46,3.1A88.31,88.31,0,0,1,338,925.88c-9.76-4.92-12.7-14.71-14.24-24.53-1.91-12.18,3.22-23.22,9-33.18a157.3,157.3,0,0,1,59.38-58c5.06-2.92,6.83-1.34,7.66,3.64C402.47,830.12,406.73,846.22,406.11,863.44Z"/><path id="Tracé_50" data-name="Tracé 50" class="cls-7" d="M1024,1107.36c-16.14-1.45-27.64-4-33.09-15.61a40.49,40.49,0,0,1-1.25-36.16c10-20.61,26.25-34.79,45.6-46,1.73-1,3.52-2,5.16-3.06,9.06-6.24,10.4-6,11.86,4.55,1.6,11.53,5.73,22.42,6.62,34.21a68.17,68.17,0,0,1-12.56,46.34C1040.83,1099.15,1032.68,1109.15,1024,1107.36Z"/><path id="Tracé_51" data-name="Tracé 51" class="cls-8" d="M487.05,993.16a78.82,78.82,0,0,1-9.19,40,29.37,29.37,0,0,1-25.9,17.64,28.82,28.82,0,0,1-28.29-17.15,31.87,31.87,0,0,1,.86-29.88,116.05,116.05,0,0,1,36.61-40.61c4.65-3.13,9.27-6.31,13.76-9.67,3.12-2.32,5.55-2.32,6.46,1.77C484.19,968,487.93,980.49,487.05,993.16Z"/><path id="Tracé_52" data-name="Tracé 52" class="cls-9" d="M1310.74,991.54a65.2,65.2,0,0,1-14.5,41.87,24,24,0,0,1-23.22,7.82,31,31,0,0,1-26.59-24.2,11.48,11.48,0,0,1-.48-5.95c4.68-13.64,7.61-27.91,20.54-37.52a238.21,238.21,0,0,1,28.35-20.31c5.61-3,6.88-2.69,9.13,3.23A132.74,132.74,0,0,1,1310.74,991.54Z"/><path id="Tracé_53" data-name="Tracé 53" class="cls-10" d="M225.14,1069.76c-1.18-6.38,2.37-12.15,6.36-17.65,11.55-15.9,24.37-30.44,42.43-39.4,3.68-1.83,5.15-.92,6.08,2.72,4.93,19.25,7.87,38.53,3.27,58.38-3.14,13.51-18.77,26.44-32.33,26C237.19,1099.45,224.85,1085.52,225.14,1069.76Z"/><path id="Tracé_54" data-name="Tracé 54" class="cls-11" d="M908.27,1021.6a187.9,187.9,0,0,1,23.94-35.38,244.64,244.64,0,0,0,25.64-39.14,161.52,161.52,0,0,1,10.42-15.51c9.6-14.63,20.2-28.61,30.18-43a10,10,0,0,0,2.11-10c-1.52-2.91-5.34-1.58-8.13-1.37-20.75,1.63-41.5,3.45-62.25,5.18a60.56,60.56,0,0,1-8.08.38c-20.25-1.06-40.39,1.81-60.63,1.45-6-.11-12,2.07-18.08,1a34.86,34.86,0,0,1,15-2.53c20.43.19,40.79-2.34,61.24-1.48a82,82,0,0,0,18.69-1.67c18.35-3.53,37.1-2.22,55.5-5a27.2,27.2,0,0,1,6.05-.05c5.35.43,7,3.33,4.64,8.26a98.68,98.68,0,0,1-14.18,21.15A238.24,238.24,0,0,0,976.36,925c-10.19,14.9-20.32,29.9-29.42,45.48-10,17.09-23.54,31.42-34.62,47.63A20.27,20.27,0,0,1,908.27,1021.6Z"/><path id="Tracé_55" data-name="Tracé 55" class="cls-12" d="M769.22,1036.52a92.79,92.79,0,0,1-4.81,29.6c-5.86,23-9.43,46.48-14.65,69.54-4.08,18-5.12,36.7-11.79,54.18a66.14,66.14,0,0,0-1.8,15.28,225.46,225.46,0,0,1-11.46,47.35.85.85,0,0,1-1.19.21,1,1,0,0,1-.21-.21c2.23-9.56,4.22-19.19,6.74-28.68,3.76-14.13,3-29.19,7.34-42.89,4.61-14.63,4.79-30,10-44.38,3.47-9.61.81-20,3.85-29.89,4-12.93,7.29-26.1,10.58-39.24,2.22-8.82,4-17.76,5.83-26.67C767.94,1039.19,767.63,1037.51,769.22,1036.52Z"/><path id="Tracé_56" data-name="Tracé 56" class="cls-11" d="M832.55,1134.79a44.45,44.45,0,0,1,10.07-17.06,218.2,218.2,0,0,0,25.18-35.94c9.2-17.6,23.42-31.9,31.76-50a48.49,48.49,0,0,1,8.71-10.14c-.09.88.16,2.07-.32,2.61-8.39,9.41-11.47,22.1-19.48,31.7a380.93,380.93,0,0,0-22.83,34.16,250.12,250.12,0,0,1-22.34,30.63c-4.43,4.85-4.1,12.55-10.4,16a1.14,1.14,0,0,1-.64-1.49A1.06,1.06,0,0,1,832.55,1134.79Z"/><path id="Tracé_57" data-name="Tracé 57" class="cls-13" d="M638.29,820.48a236.77,236.77,0,0,1-6.83,44.91,63.33,63.33,0,0,0-4,21.65c.44,5.53-3.89,9.57-4.59,14.57-2,14.63-6.7,28.66-9.09,43.19a6.67,6.67,0,0,1-2.49,5.26c-1.83-11.76,4-22.17,5.94-33.28,3.89-22.63,10-44.77,15.35-67.07,1.76-7.33,2-15,3.16-22.51A9.32,9.32,0,0,1,638.29,820.48Z"/><path id="Tracé_58" data-name="Tracé 58" class="cls-14" d="M723.31,1252.45h1.4a383.75,383.75,0,0,1-8.38,44.73c-.91,3.66-3.09,9.12-.08,10.53,4.25,2,4.77-4.27,6.36-6.87,8.22-13.41,15.87-27.19,23.59-40.9a23.31,23.31,0,0,1,4.2-6,2.07,2.07,0,0,1,2.05,1.15c-5,8.54-10.09,17-14.79,25.66-4.11,7.58-9.91,14.16-13,22.31-1.94,5.11-7.45,7.65-9.94,12.79C712.35,1294,717.79,1273.23,723.31,1252.45Z"/><path id="Tracé_59" data-name="Tracé 59" class="cls-15" d="M752.47,1255.13l-2.05-1.15c12.5-17.64,26.67-34.18,37.15-53.15a200.1,200.1,0,0,1,23.56-34.76c.6-.7,1.13-.66,1.6.14-2.32,6.74-8,11.25-11.54,17.12-5.43,8.89-10.29,18.16-16.06,26.82-7.43,11.17-15.3,22-23.42,32.72A61,61,0,0,1,752.47,1255.13Z"/><path id="Tracé_60" data-name="Tracé 60" class="cls-16" d="M812.7,1166.21l-1.59-.14c5.34-8.2,10.84-16.3,15.87-24.68a28.23,28.23,0,0,1,5.58-6.6l.32,1.9A96.69,96.69,0,0,1,812.7,1166.21Z"/><path id="Tracé_61" data-name="Tracé 61" class="cls-17" d="M1170.48,876.56c-2.3,17.07-2.76,34-12.93,48.51-7.65,10.9-18.16,12.69-28.92,4.86a17.25,17.25,0,0,1-6.38-17.27,57.22,57.22,0,0,1,13.06-30.39c8-9.55,15.1-20.06,25.45-27.54,3.73-2.69,6.43-4.43,7.06,2.35S1169.61,870.34,1170.48,876.56Z"/><path id="Tracé_62" data-name="Tracé 62" class="cls-17" d="M387.16,863.21A60.28,60.28,0,0,1,372.26,907a18.93,18.93,0,0,1-20.93,4.14,15.53,15.53,0,0,1-6.75-16.92,106.88,106.88,0,0,1,35-52.88c3.14-2.65,5.09-1.6,6.17,2.25A74.08,74.08,0,0,1,387.16,863.21Z"/><path id="Tracé_63" data-name="Tracé 63" class="cls-18" d="M1040.5,1034.3c-2.45,14.41.8,29.07-6.93,42a30.17,30.17,0,0,1-5.26,6.9,11.13,11.13,0,0,1-13.59,2.13,12.79,12.79,0,0,1-7.43-14.94c3.66-17.92,15.72-30.27,27.82-42.64,2.17-2.22,3.85-2.18,4.52,1.22C1040,1030.94,1040.27,1032.93,1040.5,1034.3Z"/><path id="Tracé_64" data-name="Tracé 64" class="cls-19" d="M442.59,1017.22c-.19-7.74,4.45-13.44,8.33-19.4a94,94,0,0,1,12.95-14.52c.87-.87,1.94-2.22,3.4-1.22a2.85,2.85,0,0,1,.73,2.4c-2.32,11.71.42,24.38-6.63,35.19-.85,1.3-1.72,2.6-2.68,3.82-2.82,3.52-6.22,6.28-10.95,4.45S442.58,1021.66,442.59,1017.22Z"/><path id="Tracé_65" data-name="Tracé 65" class="cls-20" d="M1293,981a109.79,109.79,0,0,1-4.91,28.08,35.33,35.33,0,0,1-4.67,8.87c-2.48,3.35-6.06,6.41-10.27,3.65a11.23,11.23,0,0,1-6.45-12c3.89-14.12,13.38-25.09,21.6-36.75a3.07,3.07,0,0,1,3.43-1.55c1.62.57,1.18,2.22,1.25,3.49C1293.08,976.34,1293,977.91,1293,981Z"/><path id="Tracé_66" data-name="Tracé 66" class="cls-21" d="M268.46,1045.75a107.42,107.42,0,0,1-3.36,21.45,15.77,15.77,0,0,1-11.21,10.71c-4.82,1.81-6.89-1.78-7.21-6.22a34.16,34.16,0,0,1,8.5-24.17,33.43,33.43,0,0,1,5.34-5.16c2.21-1.76,3.7-6.18,6.47-5C270.15,1038.7,267.77,1043,268.46,1045.75Z"/></g></g></g></svg>