<svg xmlns="http://www.w3.org/2000/svg" viewBox="0 0 1488.75 853.59"><defs><style>.cls-1{fill:#fff;}.cls-2{fill:#020203;}.cls-3{fill:#241c27;}.cls-4{fill:#241d28;}.cls-5{fill:#181219;}.cls-6{fill:#1c181d;}.cls-7{fill:#e7933f;}.cls-8{fill:#da9554;}.cls-9{fill:#f1861f;}.cls-10{fill:#f3953e;}.cls-11{fill:#e79a61;}</style></defs><g id="Calque_2" data-name="Calque 2"><g id="Calque_1-2" data-name="Calque 1"><path d="M446.71,779.71c-.19-26.22-33.28-55.65-59.36-51.65-71.19,10.93-137.6-2-200.89-36-9.38-5-24.24-5.3-34.72-2C84.49,711.49,19.41,677,2.61,609.67-4.92,579.52,4,558.34,27.23,551.34c24-7.25,40.41,4.34,49.63,36.16,6.14,21.17,18.33,34.26,41.45,30.4,18.49-3.09,29.26-16.26,28.46-34.73-1-22.9-15.17-33-38.13-33.78-32.1-1-48.49-15.73-47.55-40.36C62,485.64,81.64,471,112.15,471c62.31,0,111.71,47.85,111.32,110.95-.13,20.55,5.12,33.67,24.77,38.87,28,7.41,55.92,15.72,84.42,20.09,26.7,4.1,53,2.35,65.15-29.77,2.64-7,10.11-14.75,17.06-17.08,0,0,37.25-23.46,41.41-15.15S446.71,779.71,446.71,779.71ZM112,674.65c49.65.16,90.94-40.31,91.37-89.53.44-50-42.68-94.72-91.54-92.2-9.86.51-19.18,11.61-28.75,17.83,8.83,5.41,17.25,14.53,26.56,15.55,32.08,3.52,53.82,19.84,58.23,47.62,4.8,30.22-13.36,58.56-41.34,64.52-33.89,7.21-59.12-9.51-70.83-43.85-3-8.8-13.77-14.94-21-22.3-3.7,10.47-12.11,21.83-10.32,31.26C32.62,646.68,68.59,674.52,112,674.65Zm274.19,30.69c-8.79-16.85,3.48-43.57-22.59-42.53-51.37,2-99.47-6.32-145.77-31.93l-26.74,37.5C252,703.39,313.65,718.53,386.21,705.34Z"/><path d="M456.51,516c38.93-117.68,120-188.36,242-211.51,11.54-2.19,23.16-3.93,37.85-6.41,0-29.39.12-58.35-.18-87.31,0-3.2-1.73-8.43-4-9.27-36.81-13.88-8.56-21.6,4.3-29.95-27-16.76-27.24-21.38-3.54-34.26-44.95-25-59.48-49.23-51.24-85.31C688.32,23.4,715.42,1.07,744.85,0,776.15-1,803.23,18.9,812.14,49.61c10.53,36.3-1.71,58-48.71,87.3,4.83,5.7,14.31,12.26,13.5,17.1-1,6.18-10.38,11-17.3,17.45,11.81,8.89,36.92,19.07,1.39,31.19-1.92.66-2.93,6.44-3,9.86-.23,28.1-.13,56.21-.13,76.18,54,20.68,105.79,34,150.86,59.23,71.51,40.05,116.08,105,133.73,185.24L1051.78,760c0,14.51,0,29,0,46H443.48c0-24.28-1.64-47.85.43-71.1ZM746.88,787.38v.23q130,0,260.06.1c13.91,0,25.25-.28,24.74-19.54-1.84-68.29,2.29-137.14-5.11-204.77C1012,430.2,892,324.24,760.18,321.36c-142.59-3.12-267.82,92.13-288.55,228.73-10.44,68.76-4.26,140-7.11,210-.9,21.93,6.32,28,27.78,27.73C577.15,786.74,662,787.38,746.88,787.38Zm1.25-763.6c-24.78-.35-45.82,20.06-45.79,44.42,0,23.2,20,44.09,42.9,44.82A44.92,44.92,0,0,0,792,69.44C792.86,43.8,774,24.15,748.13,23.78Z"/><path class="cls-1" d="M112,674.65c-43.43-.13-79.4-28-87.6-71.1-1.79-9.43,6.62-20.79,10.32-31.26,7.21,7.36,18,13.5,21,22.3,11.71,34.34,36.94,51.06,70.83,43.85,28-6,46.14-34.3,41.34-64.52-4.41-27.78-26.15-44.1-58.23-47.62-9.31-1-17.73-10.14-26.56-15.55,9.57-6.22,18.89-17.32,28.75-17.83,48.86-2.52,92,42.21,91.54,92.2C203,634.34,161.67,674.81,112,674.65Z"/><path class="cls-1" d="M386.21,705.34c-72.56,13.19-134.23-2-195.1-37l26.74-37.5c46.3,25.61,94.4,34,145.77,31.93C389.69,661.77,377.42,688.49,386.21,705.34Z"/><path class="cls-1" d="M746.88,787.38c-84.86,0-169.73-.64-254.58.44-21.46.27-28.68-5.8-27.78-27.73,2.85-70-3.33-141.24,7.11-210,20.73-136.6,146-231.85,288.55-228.73C892,324.24,1012,430.2,1026.57,563.4c7.4,67.63,3.27,136.48,5.11,204.77.51,19.26-10.83,19.57-24.74,19.54q-130-.3-260.06-.1Z"/><path class="cls-1" d="M748.13,23.78c25.87.37,44.73,20,43.82,45.66A44.92,44.92,0,0,1,745.24,113c-22.89-.73-42.87-21.62-42.9-44.82C702.31,43.84,723.35,23.43,748.13,23.78Z"/><path class="cls-2" d="M732.7,425.89l27.55,0c21.46,2.26,41.9,7.83,61.45,18.65-6.79,6.53-12.76,12.86-16.59,21-2.11,4.49-5.16.35-7.37-.51-45.65-17.87-88.91-13.51-128.86,14.92-43.58,31-62.82,86.28-49,137.63,13.93,51.79,58,89.78,110.9,95.59,84.45,9.28,154-59.72,145-143.89a111.29,111.29,0,0,0-8-31.68c-1.64-3.86-.92-5.74,3-7.21A36.15,36.15,0,0,0,885.78,520c3.85-4.57,5.3-3,7.34,1.56,31.64,71.8,3.58,158.63-64.45,199-96.73,57.37-220.09,1.53-240.26-108.76C572.63,525.54,634,440.14,720.78,427.57,724.75,427,728.73,426.45,732.7,425.89Z"/><path class="cls-2" d="M746.4,512.24c40.07.08,73,32.76,72.73,72.13a72.95,72.95,0,0,1-145.89-.62C673.5,543.89,706,512.15,746.4,512.24Z"/><path class="cls-2" d="M817.76,485.48a32.94,32.94,0,0,1,32.89-33.22c18-.17,33.25,15,33.3,33.09s-15.14,33.27-33.17,33.21A32.93,32.93,0,0,1,817.76,485.48Z"/><path d="M1032.48,578.88c4.15-8.31,41.41,15.15,41.41,15.15,6.95,2.33,14.42,10.09,17,17.08,12.11,32.12,38.46,33.87,65.16,29.77,28.5-4.37,56.44-12.68,84.41-20.09,19.66-5.2,24.9-18.32,24.77-38.87-.39-63.1,49-111,111.32-110.95,30.52,0,50.18,14.67,51.07,38.06.93,24.63-15.46,39.33-47.56,40.36-22.95.73-37.14,10.88-38.13,33.78-.79,18.47,10,31.64,28.46,34.73,23.13,3.86,35.32-9.23,41.45-30.4,9.23-31.82,25.62-43.41,49.64-36.16,23.21,7,32.14,28.18,24.62,58.33C1469.34,677,1404.26,711.49,1337,690.11c-10.48-3.34-25.34-3.08-34.72,2-63.29,34-129.7,46.92-200.9,36-26.07-4-59.16,25.43-59.36,51.65C1042,779.71,1028.32,587.19,1032.48,578.88Zm431.85,24.67c1.79-9.43-6.61-20.79-10.32-31.26-7.2,7.36-18,13.5-21,22.3-11.7,34.34-36.93,51.06-70.82,43.85-28-6-46.15-34.3-41.34-64.52,4.41-27.78,26.14-44.1,58.23-47.62,9.3-1,17.72-10.14,26.55-15.55-9.57-6.22-18.88-17.32-28.75-17.83-48.86-2.52-92,42.21-91.54,92.2.43,49.22,41.73,89.69,91.37,89.53C1420.17,674.52,1456.13,646.68,1464.33,603.55Zm-166.69,64.83-26.73-37.5c-46.3,25.61-94.4,34-145.78,31.93-26.06-1-13.79,25.68-22.59,42.53C1175.1,718.53,1236.78,703.39,1297.64,668.38Z"/><path class="cls-1" d="M1376.73,674.65c43.44-.13,79.4-28,87.6-71.1,1.79-9.43-6.61-20.79-10.32-31.26-7.2,7.36-18,13.5-21,22.3-11.7,34.34-36.93,51.06-70.82,43.85-28-6-46.15-34.3-41.34-64.52,4.41-27.78,26.14-44.1,58.23-47.62,9.3-1,17.72-10.14,26.55-15.55-9.57-6.22-18.88-17.32-28.75-17.83-48.86-2.52-92,42.21-91.54,92.2C1285.79,634.34,1327.09,674.81,1376.73,674.65Z"/><path class="cls-1" d="M1102.54,705.34c72.56,13.19,134.24-2,195.1-37l-26.73-37.5c-46.3,25.61-94.4,34-145.78,31.93C1099.07,661.77,1111.34,688.49,1102.54,705.34Z"/><path class="cls-3" d="M430.14,192.8Q520.91,175.39,611.67,158c38.24-7.24,76.36-15.53,114.89-20.67,27.9-3.72,55,6.94,82.32,11.63,74.54,12.78,148.87,26.75,223.27,40.36,2,.37,3.86,1.86,5.78,2.83-1.62,13.31-12.37,16.71-22.55,20.44-11.6,4.25-24.16,4.32-36,7.74-65.5,12.81-130.76,26.78-195.6,42.53-41.51,10.09-81.5,6.2-121.16-7.51-19.47-6.72-38.89-13.09-60-12.51-7.07.2-16.32.13-18.24-8.69s8-8.29,12.83-12c10.85-8.34,22.14-13.48,36.17-11.57,4.43.61,6.7-1.74,4.08-6.54,15.64-11,34.25-8.95,51.63-12.07,10.15-5.37,19.65-2.77,29.27,2,18.15,8.95,37.35,6.64,55.67,2.07,8.16-2,20.87-5.4,16.09-25.8-4,14.44-7.7,24.44-18.94,26.3-10.74,1.77-21.53,4.36-32.62,2.69-14.53-2.17-27.63-6-28-26.5-8.79,6-12.36,16.17-21.81,18.74-26.91,2-52.4,11.86-79.25,14-18.59-5.22-36.23,1.43-54.25,4.18-32.21,4.93-64.5,10.59-96.57-1.45C448.43,204.37,437.6,201.79,430.14,192.8Z"/><path class="cls-4" d="M631.6,743.11c19.65-12.91,36.74-40.62,58.59-37,43.51,7.29,84.73,8.06,128.15.23,18.36-3.32,33.66,19.62,50.73,30,15.43-1.53,23.11,10.45,32.48,19.06,14.88,13.67,27.74,29.56,44.07,41.62,26.66,19.67,35.65,17.9,51.7-10.66,8.72-15.53,16.74-26,28.71-2.82,6.09,54.13-20.29,78.4-73.87,67.39-24.66-5.08-49.32-12.19-69.85-26.69-39-27.58-89.72-31.86-128.75-31.06-42.23.87-93.86,6.38-135.41,34.76a146.87,146.87,0,0,1-92,25c-21-1.25-36.86-11.49-43.68-31.51-6-17.58-5.29-35,11.51-47.6,13.72,4.27,5.68,14.61,8.26,21.34,9.51,24.9,24.9,35.2,49.39,19.53C582.08,795.25,607,769.22,631.6,743.11Z"/><path class="cls-5" d="M637.69,205.88c13.14,3.38,4,9.85,0,9.07-19.94-3.92-30.61,18-49.55,14.5a51.6,51.6,0,0,0,1,5.61c40.48-1.65,76.95,15.84,115,25,39.35,9.44,75.49-3.21,112.25-10.88,54.21-11.33,108-24.88,162.62-34.06,6,7.9-.16,12.85-4.42,18.26a89.66,89.66,0,0,1-37.76,8.85c-10.31,2.06-8.76,10.22-8.7,17.36.25,31.46-1,62.94,1.13,94.38-1.94,5.55-5.84,8.57-11.7,9-8.7-2.63-5.27-9.28-4.37-14.56,3.85-22.72.91-45.62,2.21-68.37,1-16.78-5.25-23-22.12-19.21-43.11,9.6-86.73,16.77-129.67,27.12-13.86,3.34-27.82,6.23-41.47,3.07-56.58-13.1-114-22.07-170.52-35.58-11.15-5.17-23.8-6.27-34.58-12.54-8.73-10.41-8-18.69,5.44-24.08,33.15-8.35,67.46-9.68,100.89-16.42C628.36,201.37,633.58,202,637.69,205.88Z"/><path class="cls-6" d="M504.27,237.35l-25-4.27c-19-4.54-38.14-8.84-57.08-13.75-7.47-1.93-18.24,1.16-18.45-13-.24-15.9,11.83-11.33,19.9-13.54,2-.56,4.33,0,6.51,0,14.41,4.42,28.68,9.37,43.26,13.15,34.68,9,68.51,0,102.34-6.19,10.85-2,21.31-4.67,31.79.8-14,12.75-32.69,9.05-49,13.06a268.57,268.57,0,0,1-40.34,6.95C508.56,222,512.44,234.69,504.27,237.35Z"/><path class="cls-7" d="M690.52,187.56c6.82-10.81,11.84-23.68,29-24.91,1.85,9.9-11.28,22.93,5.87,29.19,18.3,6.68,36.21,6.55,52.72-3.38,13-7.84-4.93-16.07-1.05-26.31,11.25,1.26,22.24,5,24.44,16.88,2.43,13.12-10.21,16.68-19.64,19.71-22.18,7.12-44.85,6.58-66.94-.39-7.71-2.43-15-5.47-23.2-4.71A4.56,4.56,0,0,1,690.52,187.56Z"/><path class="cls-8" d="M690.52,187.56l1.2,6.08-54,12.24L523.22,223.27c-2.55-2.5-7.15-.26-9.17-4,30.47-9.65,62.52-11.49,93.48-18.73Z"/><path class="cls-9" d="M542,498.29c-10.07,19.56-14.77,42.46-36.38,58.89,2.7-19.51,5.94-35.86,4.5-52.54-1.54-17.94-7.73-33.89-17.11-49.33-20.16-33.19-18.4-47.51,5.3-78.41,4.17-5.44,5.05-13.41,7.45-20.21,2.8-2.51,5.92-2.66,9.24-1.25,15,20.67,31.08,40.79,33.82,67.58,9.64,10.21,3.5,22.21,3.86,33.52a35.14,35.14,0,0,1-.68,6C550.22,474.94,545.06,486.33,542,498.29Z"/><path class="cls-10" d="M514.28,356.78l-8.57-.09.09-115.17c4.27-2.57,8-2.52,10.87,2.14C523.33,281.53,527.37,319.33,514.28,356.78Z"/><path class="cls-11" d="M515.77,242.6l-10-1.08c-.5-1.39-1-2.78-1.52-4.17,4.08-5.57-4.23-17.86,9.77-18.06l9.17,4c-11.84,3.54-10.28,10.22-4.2,17.95L517.86,243Z"/><path class="cls-3" d="M917,361.09c-9.86,9.8-24.32,10.67-35.34,18.2C862.48,399.37,836,397,811.9,401.35c-12.93,2.34-26.16,3.66-39.27,5.45-21.8.91-43.59,1.12-65.37.24-25.6-3.35-51.28-6.32-76.37-12.74-8-2.1-15.84-4.83-23.77-7.26-9-3.37-18.27-6.16-27.46-9.16-27-8.25-39.34-25.6-36.44-54.48,1.68-16.74,0-33.78.48-50.67.22-8-.28-16.39,7-22.26,55.87,10.22,111.88,19.69,166.82,34.46,25.47,6.84,48.92-5.66,73.14-9.56,38.17-6.14,76-14.79,113.76-23.06,10.92-2.38,17.6-1.36,17.07,11.57C920.12,296.29,925.32,329,917,361.09Z"/></g></g></svg>